<?xml version="1.0" encoding="utf-8"?>
<!-- Generator: Adobe Illustrator 25.2.3, SVG Export Plug-In . SVG Version: 6.00 Build 0)  -->
<svg version="1.1" id="Ebene_1" xmlns="http://www.w3.org/2000/svg" xmlns:xlink="http://www.w3.org/1999/xlink" x="0px" y="0px"
	 viewBox="0 0 130.2 139.4" style="enable-background:new 0 0 130.2 139.4;" xml:space="preserve">
<style type="text/css">
	.st0{fill:#FFED00;}
</style>
<g>
	<g>
		<path class="st0" d="M96.5,139.4c-5,0-10.2-0.9-15.7-2.6c-11-3.6-21.6-10.3-29.6-15.7c-7.7-5.2-14.8-11.8-21.6-20
			c-7.3-7.9-12.8-15.8-17-24.1C8.3,68.3,3,57,0.9,45.6c-2.4-13.2-0.2-24.5,6.5-33.6c2.8-3.8,6.2-6.6,10.2-8.6
			C21.5,1.4,26,0.4,31.3,0c3.1-0.2,7.3,0.7,9.8,5.9c2,4.2,4,8.5,6,12.7c1.4,3,2.9,6.1,4.3,9.1c0.9,2,1.7,3.9,2.3,5.9
			c1.2,3.8,0.1,7-3.2,9.6C46.2,46.6,42,49.9,38,53.3c-0.2,0.1-0.5,0.4-0.7,0.6c0,0.2,0.2,0.6,0.4,1.3c4.1,10.1,9.1,18.4,15.2,25.3
			l0.1,0.1c6.1,7,13.6,13,23.1,18.4c0.6,0.3,1,0.5,1.2,0.6c0.2-0.2,0.5-0.4,0.7-0.6c3.9-3.5,7.8-7.3,11.7-11.1c3.1-3,6.3-3.6,10-1.9
			c1.8,0.8,3.7,1.9,5.5,3c2.8,1.8,5.7,3.7,8.4,5.5c3.8,2.5,7.8,5.1,11.8,7.6c4.9,3.1,5.2,7.4,4.6,10.5c-1,5.2-2.7,9.5-5,13.1
			c-2.5,3.8-5.7,6.7-9.9,9C109.3,137.8,103.1,139.4,96.5,139.4z M32.3,8.1c-0.1,0-0.3,0-0.5,0c-4.3,0.3-7.7,1.1-10.6,2.5
			C18.4,12,16,14,14,16.7c-11.9,16.1-3.7,37.6,5.8,56.5c3.9,7.7,9,15,15.8,22.3l0.1,0.2c6.4,7.7,12.9,13.8,20,18.6
			c17.5,12,37.8,22.9,55.3,13.2c3-1.6,5.3-3.7,7-6.4c1.8-2.7,3-6,3.9-10.2c0.2-1,0.2-1.3-1-2c-4-2.5-8-5.2-11.9-7.7
			c-2.7-1.8-5.6-3.7-8.4-5.5c-1.5-1-3-1.8-4.5-2.5c-0.1-0.1-0.3-0.1-0.3-0.1c-0.1,0.1-0.3,0.2-0.6,0.5c-4,3.9-7.9,7.6-11.9,11.3
			c-0.9,0.8-2.3,2.1-4.4,2.6c-3,0.7-5.7-0.8-6.9-1.5C61.9,100.2,53.6,93.6,47,85.9l-0.1-0.1c-6.8-7.6-12.2-16.6-16.7-27.6
			c-0.5-1.3-1.7-4.1-0.6-7.1c0.7-2,2.2-3.3,3.1-4c4.1-3.5,8.4-6.9,12.7-10.3c0.3-0.3,0.5-0.4,0.6-0.5c0-0.1,0-0.2-0.1-0.3
			c-0.5-1.6-1.1-3.2-1.9-4.8c-1.4-3-2.9-6.1-4.3-9c-2-4.2-4.1-8.5-6.1-12.8C33.3,8.3,33,8.1,32.3,8.1z M77.1,99.7L77.1,99.7
			L77.1,99.7z M37.2,54.1L37.2,54.1L37.2,54.1z M46.1,36.4L46.1,36.4L46.1,36.4z"/>
	</g>
</g>
</svg>
