<?xml version="1.0" encoding="utf-8"?>
<!-- Generator: Adobe Illustrator 25.2.3, SVG Export Plug-In . SVG Version: 6.00 Build 0)  -->
<svg version="1.1" id="Ebene_1" xmlns="http://www.w3.org/2000/svg" xmlns:xlink="http://www.w3.org/1999/xlink" x="0px" y="0px"
	 viewBox="0 0 182.3 123.5" style="enable-background:new 0 0 182.3 123.5;" xml:space="preserve">
<style type="text/css">
	.st0{opacity:0.77;fill:#FFF24C;}
</style>
<path class="st0" d="M176.4,0H5.9C2.6,0,0,2.6,0,5.9v111.8c0,3.2,2.6,5.9,5.9,5.9h170.5c3.2,0,5.9-2.6,5.9-5.9V5.9
	C182.3,2.6,179.6,0,176.4,0z M172.7,16.3v91.2l-45.6-45.6L172.7,16.3z M89.9,83.1L16.3,9.6h149.6L92.3,83.1
	C91.7,83.8,90.6,83.8,89.9,83.1z M61.9,68.7l25.9,25.9c0.9,0.9,2.1,1.4,3.3,1.4c1.3,0,2.4-0.5,3.3-1.4l25.9-25.9l45.3,45.3H16.6
	L61.9,68.7z M55.1,61.9L9.6,107.5V16.3L55.1,61.9z"/>
</svg>
