<?xml version="1.0" encoding="utf-8"?>
<!-- Generator: Adobe Illustrator 25.2.3, SVG Export Plug-In . SVG Version: 6.00 Build 0)  -->
<svg version="1.1" id="Ebene_1" xmlns="http://www.w3.org/2000/svg" xmlns:xlink="http://www.w3.org/1999/xlink" x="0px" y="0px"
	 viewBox="0 0 235 160.4" style="enable-background:new 0 0 235 160.4;" xml:space="preserve">
<style type="text/css">
	.st0{fill:#8AC1A8;}
	.st1{fill:#93C198;}
	.st2{fill:#9CC388;}
	.st3{fill:#A6C17A;}
	.st4{fill:#ADC268;}
	.st5{fill:#86C1AF;}
	.st6{clip-path:url(#SVGID_2_);fill:url(#SVGID_3_);}
	.st7{clip-path:url(#SVGID_5_);fill:url(#SVGID_6_);}
	.st8{clip-path:url(#SVGID_8_);fill:url(#SVGID_9_);}
	.st9{clip-path:url(#SVGID_11_);fill:url(#SVGID_12_);}
	.st10{clip-path:url(#SVGID_14_);}
	.st11{fill:url(#SVGID_15_);}
	.st12{fill:url(#SVGID_16_);}
	.st13{clip-path:url(#SVGID_18_);fill:url(#SVGID_19_);}
	.st14{clip-path:url(#SVGID_21_);fill:url(#SVGID_22_);}
	.st15{clip-path:url(#SVGID_24_);fill:url(#SVGID_25_);}
	.st16{clip-path:url(#SVGID_27_);fill:url(#SVGID_28_);}
	.st17{clip-path:url(#SVGID_30_);fill:url(#SVGID_31_);}
	.st18{clip-path:url(#SVGID_33_);fill:url(#SVGID_34_);}
</style>
<g>
	<g>
		<g>
			<g>
				<circle class="st0" cx="20.7" cy="120.6" r="8.2"/>
				<circle class="st1" cx="11.4" cy="103.3" r="7.4"/>
				<ellipse transform="matrix(0.9566 -0.2913 0.2913 0.9566 -23.8958 5.5574)" class="st1" cx="6.7" cy="83" rx="6.7" ry="6.7"/>
				<circle class="st2" cx="8.6" cy="62.7" r="6.1"/>
				
					<ellipse transform="matrix(0.4546 -0.8907 0.8907 0.4546 -30.5932 37.3502)" class="st2" cx="15.2" cy="43.7" rx="5.4" ry="5.4"/>
				<path class="st3" d="M31.3,28.6c-0.8,2.6-3.5,4.1-6.1,3.4c-2.6-0.8-4.1-3.5-3.4-6.1s3.5-4.1,6.1-3.4
					C30.6,23.3,32.1,26,31.3,28.6z"/>
				<ellipse transform="matrix(0.8748 -0.4846 0.4846 0.8748 -1.5648 21.9098)" class="st3" cx="41.6" cy="14" rx="4" ry="4"/>
				<path class="st4" d="M57.2,8.1c-0.5,1.8-2.5,2.9-4.3,2.4C51.1,9.9,50,8,50.6,6.1c0.5-1.8,2.5-2.9,4.3-2.4
					C56.7,4.3,57.7,6.2,57.2,8.1z"/>
				<circle class="st4" cx="65.8" cy="2.7" r="2.7"/>
				<g>
					
						<ellipse transform="matrix(0.9899 -0.1415 0.1415 0.9899 -18.8932 6.012)" class="st0" cx="32.8" cy="135.8" rx="7.4" ry="7.4"/>
					
						<ellipse transform="matrix(0.9989 -4.737037e-02 4.737037e-02 0.9989 -6.9497 2.5226)" class="st0" cx="49.7" cy="147.9" rx="6.7" ry="6.7"/>
					
						<ellipse transform="matrix(0.8346 -0.5509 0.5509 0.8346 -73.3334 63.5928)" class="st0" cx="69.2" cy="153.9" rx="6.1" ry="6.1"/>
					
						<ellipse transform="matrix(0.9981 -6.138823e-02 6.138823e-02 0.9981 -9.3462 5.7796)" class="st5" cx="89.4" cy="155" rx="5.4" ry="5.4"/>
					
						<ellipse transform="matrix(0.7796 -0.6263 0.6263 0.7796 -70.406 101.4067)" class="st5" cx="108.9" cy="150.7" rx="4.9" ry="4.9"/>
					
						<ellipse transform="matrix(0.8159 -0.5782 0.5782 0.8159 -58.6576 99.4702)" class="st5" cx="126.9" cy="141.8" rx="4" ry="4"/>
					<circle class="st5" cx="137.9" cy="133.1" r="3.5"/>
					
						<ellipse transform="matrix(0.1394 -0.9902 0.9902 0.1394 3.5023 251.5662)" class="st5" cx="146.5" cy="123.8" rx="2.7" ry="2.7"/>
				</g>
			</g>
			<g>
				<ellipse transform="matrix(0.1002 -0.995 0.995 0.1002 -34.6217 76.7418)" class="st2" cx="25.1" cy="57.5" rx="6.6" ry="6.6"/>
				<circle class="st2" cx="20.8" cy="73.8" r="6.2"/>
				<ellipse transform="matrix(0.8666 -0.499 0.499 0.8666 -41.7453 23.0152)" class="st1" cx="22.2" cy="89.6" rx="5.5" ry="5.5"/>
				
					<ellipse transform="matrix(0.5442 -0.839 0.839 0.5442 -75.9334 71.5774)" class="st1" cx="27.9" cy="105.7" rx="4.8" ry="4.8"/>
				
					<ellipse transform="matrix(0.7225 -0.6913 0.6913 0.7225 -72.3934 58.6165)" class="st0" cx="36.8" cy="119.5" rx="4.4" ry="4.4"/>
				<path class="st0" d="M53,131.9c-0.6,2.1-2.7,3.3-4.8,2.7c-2.1-0.6-3.3-2.7-2.7-4.8c0.6-2.1,2.7-3.3,4.8-2.7
					C52.3,127.7,53.5,129.8,53,131.9z"/>
				
					<ellipse transform="matrix(0.3568 -0.9342 0.9342 0.3568 -88.2243 148.4559)" class="st0" cx="63.7" cy="138.3" rx="3.4" ry="3.4"/>
				<g>
					
						<ellipse transform="matrix(0.5028 -0.8644 0.8644 0.5028 -20.1372 48.7502)" class="st3" cx="32.3" cy="41.9" rx="6.2" ry="6.2"/>
					
						<ellipse transform="matrix(0.4427 -0.8967 0.8967 0.4427 -3.1227 55.6487)" class="st3" cx="43.2" cy="30.3" rx="5.5" ry="5.5"/>
					
						<ellipse transform="matrix(0.4921 -0.8706 0.8706 0.4921 10.7746 61.0254)" class="st4" cx="57.7" cy="21.3" rx="4.8" ry="4.8"/>
					<ellipse transform="matrix(0.9029 -0.4299 0.4299 0.9029 0.2491 33.0495)" class="st4" cx="73.3" cy="16" rx="4.4" ry="4.4"/>
					<ellipse transform="matrix(0.3132 -0.9497 0.9497 0.3132 47.7984 95.6373)" class="st4" cx="90" cy="14.8" rx="3.9" ry="3.9"/>
					
						<ellipse transform="matrix(8.747098e-02 -0.9962 0.9962 8.747098e-02 78.8916 121.9286)" class="st4" cx="106" cy="17.9" rx="3.4" ry="3.4"/>
				</g>
			</g>
			<g>
				<circle class="st3" cx="53.2" cy="41.1" r="4.7"/>
				<g>
					<path class="st3" d="M48.1,50.4c0.3,2.3-1.4,4.4-3.7,4.7c-2.3,0.3-4.4-1.4-4.7-3.7c-0.3-2.3,1.4-4.4,3.7-4.7
						C45.7,46.4,47.9,48,48.1,50.4z"/>
					<circle class="st2" cx="37.9" cy="63" r="3.7"/>
					<path class="st2" d="M38.1,74.9c0.2,1.8-1,3.4-2.8,3.6c-1.8,0.2-3.4-1-3.6-2.8c-0.2-1.8,1-3.4,2.8-3.6
						C36.3,71.8,37.9,73.1,38.1,74.9z"/>
					<circle class="st1" cx="35.3" cy="89.1" r="2.8"/>
					<path class="st1" d="M42,101.3c0.2,1.3-0.8,2.5-2.1,2.7c-1.3,0.2-2.5-0.8-2.7-2.1c-0.2-1.3,0.8-2.5,2.1-2.7
						C40.7,99.1,41.9,100,42,101.3z"/>
					<path class="st0" d="M48.7,113c0.1,1.1-0.6,2-1.7,2.2c-1.1,0.1-2-0.6-2.2-1.7c-0.1-1.1,0.6-2,1.7-2.2
						C47.6,111.2,48.6,111.9,48.7,113z"/>
				</g>
				<circle class="st4" cx="64.9" cy="32.6" r="4.2"/>
				<circle class="st4" cx="78" cy="29.2" r="3.7"/>
				<circle class="st4" cx="90.6" cy="28.8" r="3.2"/>
				<path class="st4" d="M101.7,33.8c1.5,0.5,3-0.3,3.5-1.7c0.5-1.5-0.3-3-1.7-3.5c-1.5-0.5-3,0.3-3.5,1.7
					C99.4,31.7,100.2,33.3,101.7,33.8z"/>
				<path class="st4" d="M112.3,38.7c1.2,0.4,2.6-0.2,3-1.5c0.4-1.2-0.2-2.6-1.5-3c-1.2-0.4-2.6,0.2-3,1.5
					C110.4,36.9,111.1,38.3,112.3,38.7z"/>
				<path class="st4" d="M120.9,44.8c1,0.3,2.1-0.2,2.4-1.2c0.3-1-0.2-2.1-1.2-2.4c-1-0.3-2.1,0.2-2.4,1.2
					C119.3,43.4,119.9,44.5,120.9,44.8z"/>
			</g>
		</g>
	</g>
	<g>
		<defs>
			<path id="SVGID_1_" d="M53.8,98.9c-1.3-1.3-2-3.1-2-5.2V76.8c0-2.1,0.7-3.9,2-5.2c1.3-1.3,3.1-2,5.2-2c2.1,0,3.9,0.7,5.2,2
				c1.3,1.3,2,3.1,2,5.2v3.6h-4.5v-3.6c0-0.9-0.2-1.6-0.7-2.1c-0.5-0.5-1.1-0.8-1.9-0.8c-0.8,0-1.4,0.3-1.9,0.8
				c-0.5,0.5-0.7,1.2-0.7,2.1v16.9c0,0.9,0.2,1.6,0.7,2.1c0.5,0.5,1.1,0.8,1.9,0.8c0.8,0,1.4-0.3,1.9-0.8c0.5-0.5,0.7-1.2,0.7-2.1
				v-4.3h4.5v4.3c0,2.1-0.7,3.9-2,5.2c-1.3,1.3-3.1,2-5.2,2C56.9,100.9,55.1,100.2,53.8,98.9z"/>
		</defs>
		<clipPath id="SVGID_2_">
			<use xlink:href="#SVGID_1_"  style="overflow:visible;"/>
		</clipPath>
		<linearGradient id="SVGID_3_" gradientUnits="userSpaceOnUse" x1="-89.5907" y1="91.1822" x2="328.2023" y2="91.1822">
			<stop  offset="0" style="stop-color:#ADC268"/>
			<stop  offset="0.2993" style="stop-color:#ABC26B"/>
			<stop  offset="0.5146" style="stop-color:#A6C274"/>
			<stop  offset="0.7034" style="stop-color:#9CC284"/>
			<stop  offset="0.8761" style="stop-color:#8FC29A"/>
			<stop  offset="1" style="stop-color:#83C2AF"/>
		</linearGradient>
		<rect x="-89.6" y="41.2" class="st6" width="417.8" height="100"/>
	</g>
	<g>
		<defs>
			<path id="SVGID_4_" d="M79.5,93.7h-5l-1,6.7H69L74,70h6.2l5,30.4h-4.7L79.5,93.7z M78.9,89.3l-1.9-12.7l-1.9,12.7H78.9z"/>
		</defs>
		<clipPath id="SVGID_5_">
			<use xlink:href="#SVGID_4_"  style="overflow:visible;"/>
		</clipPath>
		<linearGradient id="SVGID_6_" gradientUnits="userSpaceOnUse" x1="-89.5907" y1="91.1822" x2="328.2023" y2="91.1822">
			<stop  offset="0" style="stop-color:#ADC268"/>
			<stop  offset="0.2993" style="stop-color:#ABC26B"/>
			<stop  offset="0.5146" style="stop-color:#A6C274"/>
			<stop  offset="0.7034" style="stop-color:#9CC284"/>
			<stop  offset="0.8761" style="stop-color:#8FC29A"/>
			<stop  offset="1" style="stop-color:#83C2AF"/>
		</linearGradient>
		<rect x="-89.6" y="41.2" class="st7" width="417.8" height="100"/>
	</g>
	<g>
		<defs>
			<path id="SVGID_7_" d="M85.5,70h14.7v4.3h-5v26.1h-4.6V74.4h-5V70z"/>
		</defs>
		<clipPath id="SVGID_8_">
			<use xlink:href="#SVGID_7_"  style="overflow:visible;"/>
		</clipPath>
		<linearGradient id="SVGID_9_" gradientUnits="userSpaceOnUse" x1="-89.5907" y1="91.1822" x2="328.2023" y2="91.1822">
			<stop  offset="0" style="stop-color:#ADC268"/>
			<stop  offset="0.2993" style="stop-color:#ABC26B"/>
			<stop  offset="0.5146" style="stop-color:#A6C274"/>
			<stop  offset="0.7034" style="stop-color:#9CC284"/>
			<stop  offset="0.8761" style="stop-color:#8FC29A"/>
			<stop  offset="1" style="stop-color:#83C2AF"/>
		</linearGradient>
		<rect x="-89.6" y="41.2" class="st8" width="417.8" height="100"/>
	</g>
	<g>
		<defs>
			<path id="SVGID_10_" d="M111,93.7h-5l-1,6.7h-4.6l5-30.4h6.2l5,30.4H112L111,93.7z M110.4,89.3l-1.9-12.7l-1.9,12.7H110.4z"/>
		</defs>
		<clipPath id="SVGID_11_">
			<use xlink:href="#SVGID_10_"  style="overflow:visible;"/>
		</clipPath>
		<linearGradient id="SVGID_12_" gradientUnits="userSpaceOnUse" x1="-89.5907" y1="91.1822" x2="328.2023" y2="91.1822">
			<stop  offset="0" style="stop-color:#ADC268"/>
			<stop  offset="0.2993" style="stop-color:#ABC26B"/>
			<stop  offset="0.5146" style="stop-color:#A6C274"/>
			<stop  offset="0.7034" style="stop-color:#9CC284"/>
			<stop  offset="0.8761" style="stop-color:#8FC29A"/>
			<stop  offset="1" style="stop-color:#83C2AF"/>
		</linearGradient>
		<rect x="-89.6" y="41.2" class="st9" width="417.8" height="100"/>
	</g>
	<g>
		<defs>
			<path id="SVGID_13_" d="M120.3,70h7.2c2.2,0,4,0.7,5.3,2c1.3,1.3,2,3.1,2,5.3v15.9c0,2.2-0.7,4-2,5.3c-1.3,1.3-3.1,2-5.3,2h-7.2
				V70z M127.2,96.1c0.9,0,1.6-0.2,2.1-0.7c0.5-0.5,0.7-1.2,0.7-2.1V77.2c0-0.9-0.2-1.6-0.7-2.1c-0.5-0.5-1.2-0.7-2.1-0.7h-2.4v21.7
				H127.2z"/>
		</defs>
		<clipPath id="SVGID_14_">
			<use xlink:href="#SVGID_13_"  style="overflow:visible;"/>
		</clipPath>
		<g class="st10">
			<linearGradient id="SVGID_15_" gradientUnits="userSpaceOnUse" x1="-89.5907" y1="91.1822" x2="328.2023" y2="91.1822">
				<stop  offset="0" style="stop-color:#ADC268"/>
				<stop  offset="0.2993" style="stop-color:#ABC26B"/>
				<stop  offset="0.5146" style="stop-color:#A6C274"/>
				<stop  offset="0.7034" style="stop-color:#9CC284"/>
				<stop  offset="0.8761" style="stop-color:#8FC29A"/>
				<stop  offset="1" style="stop-color:#83C2AF"/>
			</linearGradient>
			<rect x="-89.6" y="41.2" class="st11" width="417.8" height="100"/>
			<linearGradient id="SVGID_16_" gradientUnits="userSpaceOnUse" x1="-89.5907" y1="91.1822" x2="328.2023" y2="91.1822">
				<stop  offset="0" style="stop-color:#ADC268"/>
				<stop  offset="0.2993" style="stop-color:#ABC26B"/>
				<stop  offset="0.5146" style="stop-color:#A6C274"/>
				<stop  offset="0.7034" style="stop-color:#9CC284"/>
				<stop  offset="0.8761" style="stop-color:#8FC29A"/>
				<stop  offset="1" style="stop-color:#83C2AF"/>
			</linearGradient>
			<rect x="-89.6" y="41.2" class="st12" width="417.8" height="100"/>
		</g>
	</g>
	<g>
		<defs>
			<path id="SVGID_17_" d="M139.3,70h4.6v30.4h-4.6V70z"/>
		</defs>
		<clipPath id="SVGID_18_">
			<use xlink:href="#SVGID_17_"  style="overflow:visible;"/>
		</clipPath>
		<linearGradient id="SVGID_19_" gradientUnits="userSpaceOnUse" x1="-89.5907" y1="91.1822" x2="328.2023" y2="91.1822">
			<stop  offset="0" style="stop-color:#ADC268"/>
			<stop  offset="0.2993" style="stop-color:#ABC26B"/>
			<stop  offset="0.5146" style="stop-color:#A6C274"/>
			<stop  offset="0.7034" style="stop-color:#9CC284"/>
			<stop  offset="0.8761" style="stop-color:#8FC29A"/>
			<stop  offset="1" style="stop-color:#83C2AF"/>
		</linearGradient>
		<rect x="-89.6" y="41.2" class="st13" width="417.8" height="100"/>
	</g>
	<g>
		<defs>
			<path id="SVGID_20_" d="M150.6,98.9c-1.4-1.3-2-3.1-2-5.3V76.9c0-2.2,0.7-4,2-5.3c1.4-1.3,3.1-2,5.3-2c2.2,0,4,0.7,5.3,2
				c1.4,1.3,2,3.1,2,5.3v16.6c0,2.2-0.7,4-2,5.3c-1.4,1.3-3.1,2-5.3,2C153.7,100.9,151.9,100.2,150.6,98.9z M158,95.8
				c0.5-0.5,0.7-1.3,0.7-2.2V76.9c0-1-0.2-1.7-0.7-2.2c-0.5-0.5-1.2-0.8-2-0.8c-0.9,0-1.6,0.3-2,0.8c-0.5,0.5-0.7,1.3-0.7,2.2v16.6
				c0,1,0.2,1.7,0.7,2.2c0.5,0.5,1.2,0.8,2,0.8C156.8,96.5,157.5,96.3,158,95.8z"/>
		</defs>
		<clipPath id="SVGID_21_">
			<use xlink:href="#SVGID_20_"  style="overflow:visible;"/>
		</clipPath>
		<linearGradient id="SVGID_22_" gradientUnits="userSpaceOnUse" x1="-89.5907" y1="91.1822" x2="328.2023" y2="91.1822">
			<stop  offset="0" style="stop-color:#ADC268"/>
			<stop  offset="0.2993" style="stop-color:#ABC26B"/>
			<stop  offset="0.5146" style="stop-color:#A6C274"/>
			<stop  offset="0.7034" style="stop-color:#9CC284"/>
			<stop  offset="0.8761" style="stop-color:#8FC29A"/>
			<stop  offset="1" style="stop-color:#83C2AF"/>
		</linearGradient>
		<rect x="-89.6" y="41.2" class="st14" width="417.8" height="100"/>
	</g>
	<g>
		<defs>
			<path id="SVGID_23_" d="M168,70h7.2c2.2,0,4,0.7,5.3,2c1.3,1.3,2,3.1,2,5.3v3.6c0,2.2-0.7,4-2,5.3c-1.3,1.3-3.1,2-5.3,2h-2.6
				v12.3H168V70z M175,83.8c0.9,0,1.6-0.2,2.1-0.7c0.5-0.5,0.7-1.2,0.7-2.1v-3.7c0-0.9-0.2-1.6-0.7-2.1c-0.5-0.5-1.2-0.7-2.1-0.7
				h-2.4v9.4H175z"/>
		</defs>
		<clipPath id="SVGID_24_">
			<use xlink:href="#SVGID_23_"  style="overflow:visible;"/>
		</clipPath>
		<linearGradient id="SVGID_25_" gradientUnits="userSpaceOnUse" x1="-89.5907" y1="91.1822" x2="328.2023" y2="91.1822">
			<stop  offset="0" style="stop-color:#ADC268"/>
			<stop  offset="0.2993" style="stop-color:#ABC26B"/>
			<stop  offset="0.5146" style="stop-color:#A6C274"/>
			<stop  offset="0.7034" style="stop-color:#9CC284"/>
			<stop  offset="0.8761" style="stop-color:#8FC29A"/>
			<stop  offset="1" style="stop-color:#83C2AF"/>
		</linearGradient>
		<rect x="-89.6" y="41.2" class="st15" width="417.8" height="100"/>
	</g>
	<g>
		<defs>
			<path id="SVGID_26_" d="M184.8,70h14.7v4.3h-5v26.1h-4.6V74.4h-5V70z"/>
		</defs>
		<clipPath id="SVGID_27_">
			<use xlink:href="#SVGID_26_"  style="overflow:visible;"/>
		</clipPath>
		<linearGradient id="SVGID_28_" gradientUnits="userSpaceOnUse" x1="-89.5907" y1="91.1822" x2="328.2023" y2="91.1822">
			<stop  offset="0" style="stop-color:#ADC268"/>
			<stop  offset="0.2993" style="stop-color:#ABC26B"/>
			<stop  offset="0.5146" style="stop-color:#A6C274"/>
			<stop  offset="0.7034" style="stop-color:#9CC284"/>
			<stop  offset="0.8761" style="stop-color:#8FC29A"/>
			<stop  offset="1" style="stop-color:#83C2AF"/>
		</linearGradient>
		<rect x="-89.6" y="41.2" class="st16" width="417.8" height="100"/>
	</g>
	<g>
		<defs>
			<path id="SVGID_29_" d="M213.4,100.5L210,87.9h-2.4v12.6H203V70h7.2c2.2,0,4,0.7,5.3,2c1.3,1.3,2,3.1,2,5.3v3.3
				c0,1.4-0.3,2.6-0.8,3.7c-0.6,1.1-1.3,1.9-2.3,2.5l3.9,13.6H213.4z M207.6,83.6h2.4c0.9,0,1.6-0.2,2.1-0.7
				c0.5-0.5,0.7-1.2,0.7-2.1v-3.5c0-0.9-0.2-1.6-0.7-2.1c-0.5-0.5-1.2-0.7-2.1-0.7h-2.4V83.6z"/>
		</defs>
		<clipPath id="SVGID_30_">
			<use xlink:href="#SVGID_29_"  style="overflow:visible;"/>
		</clipPath>
		<linearGradient id="SVGID_31_" gradientUnits="userSpaceOnUse" x1="-89.5907" y1="91.1822" x2="328.2023" y2="91.1822">
			<stop  offset="0" style="stop-color:#ADC268"/>
			<stop  offset="0.2993" style="stop-color:#ABC26B"/>
			<stop  offset="0.5146" style="stop-color:#A6C274"/>
			<stop  offset="0.7034" style="stop-color:#9CC284"/>
			<stop  offset="0.8761" style="stop-color:#8FC29A"/>
			<stop  offset="1" style="stop-color:#83C2AF"/>
		</linearGradient>
		<rect x="-89.6" y="41.2" class="st17" width="417.8" height="100"/>
	</g>
	<g>
		<defs>
			<path id="SVGID_32_" d="M221.9,70H235v4.3h-8.5v8.5h6.7v4.3h-6.7v8.9h8.5v4.3h-13.1V70z"/>
		</defs>
		<clipPath id="SVGID_33_">
			<use xlink:href="#SVGID_32_"  style="overflow:visible;"/>
		</clipPath>
		<linearGradient id="SVGID_34_" gradientUnits="userSpaceOnUse" x1="-89.5907" y1="91.1822" x2="328.2023" y2="91.1822">
			<stop  offset="0" style="stop-color:#ADC268"/>
			<stop  offset="0.2993" style="stop-color:#ABC26B"/>
			<stop  offset="0.5146" style="stop-color:#A6C274"/>
			<stop  offset="0.7034" style="stop-color:#9CC284"/>
			<stop  offset="0.8761" style="stop-color:#8FC29A"/>
			<stop  offset="1" style="stop-color:#83C2AF"/>
		</linearGradient>
		<rect x="-89.6" y="41.2" class="st18" width="417.8" height="100"/>
	</g>
</g>
</svg>
