<?xml version="1.0" encoding="utf-8"?>
<!-- Generator: Adobe Illustrator 25.2.3, SVG Export Plug-In . SVG Version: 6.00 Build 0)  -->
<svg version="1.1" id="Ebene_1" xmlns="http://www.w3.org/2000/svg" xmlns:xlink="http://www.w3.org/1999/xlink" x="0px" y="0px"
	 viewBox="0 0 317.6 138.3" style="enable-background:new 0 0 317.6 138.3;" xml:space="preserve">
<style type="text/css">
	.st0{fill:none;stroke:#FFFFFF;stroke-width:26.6876;stroke-miterlimit:10;}
	.st1{fill:#FFFFFF;}
</style>
<g>
	<g>
		<circle class="st0" cx="62.4" cy="62.4" r="49"/>
		<circle class="st1" cx="107.9" cy="120.7" r="17.7"/>
	</g>
	<g>
		<g>
			<path class="st1" d="M179.7,75.7c-0.8,1-1.7,1.7-2.8,2.2c-1.1,0.5-2.3,0.8-3.7,0.8c-1.8,0-3.4-0.4-4.9-1.2
				c-1.4-0.8-3.1-2.1-5-4.1c-2.2-0.3-4.1-1-5.8-2.1c-1.7-1.1-3-2.6-4-4.4s-1.4-3.8-1.4-5.9c0-2.4,0.6-4.5,1.7-6.4s2.7-3.4,4.7-4.5
				c2-1.1,4.3-1.6,6.8-1.6c2.5,0,4.8,0.5,6.8,1.6c2,1.1,3.6,2.6,4.7,4.5s1.7,4,1.7,6.4c0,2.8-0.8,5.3-2.4,7.4
				c-1.6,2.1-3.7,3.6-6.3,4.4c0.6,0.6,1.1,1,1.7,1.3s1.1,0.4,1.7,0.4c1.5,0,2.8-0.6,3.9-1.8L179.7,75.7z M158.7,65
				c0.7,1.2,1.6,2.1,2.7,2.7s2.4,1,3.9,1c1.4,0,2.7-0.3,3.9-1s2.1-1.6,2.7-2.7c0.7-1.2,1-2.5,1-4c0-1.5-0.3-2.8-1-4
				c-0.7-1.2-1.6-2.1-2.7-2.7s-2.4-1-3.9-1c-1.4,0-2.7,0.3-3.9,1s-2.1,1.6-2.7,2.7c-0.7,1.2-1,2.5-1,4
				C157.8,62.5,158.1,63.9,158.7,65z"/>
			<path class="st1" d="M198.3,67.9h-11.2l-2.1,5.2h-5.7L190,49h5.5l10.8,24.1h-5.9L198.3,67.9z M196.5,63.7l-3.8-9.2l-3.8,9.2
				H196.5z"/>
			<path class="st1" d="M208.8,49h5.6v19.6h12.1v4.6h-17.7V49z"/>
			<path class="st1" d="M229.6,49h5.6v24.1h-5.6V49z"/>
			<path class="st1" d="M256.9,50c1.6,0.7,2.8,1.7,3.6,3c0.8,1.3,1.3,2.9,1.3,4.7c0,1.8-0.4,3.3-1.3,4.6c-0.9,1.3-2.1,2.3-3.6,3
				c-1.6,0.7-3.4,1.1-5.6,1.1h-4.9v6.7h-5.6V49h10.4C253.5,49,255.4,49.3,256.9,50z M254.9,60.8c0.9-0.7,1.3-1.8,1.3-3.1
				c0-1.4-0.4-2.4-1.3-3.1c-0.9-0.7-2.1-1.1-3.8-1.1h-4.6v8.4h4.6C252.7,61.9,254,61.5,254.9,60.8z"/>
			<path class="st1" d="M268.6,72.7c-1.8-0.5-3.2-1.2-4.3-2l1.9-4.2c1,0.8,2.3,1.4,3.7,1.8c1.4,0.5,2.9,0.7,4.3,0.7
				c1.6,0,2.8-0.2,3.5-0.7c0.8-0.5,1.1-1.1,1.1-1.9c0-0.6-0.2-1.1-0.7-1.4s-1-0.7-1.7-0.9c-0.7-0.2-1.6-0.5-2.8-0.8
				c-1.8-0.4-3.3-0.9-4.5-1.3c-1.2-0.4-2.2-1.1-3-2.1c-0.8-1-1.3-2.3-1.3-3.9c0-1.4,0.4-2.7,1.1-3.8s1.9-2,3.4-2.7
				c1.5-0.7,3.4-1,5.6-1c1.5,0,3,0.2,4.5,0.6c1.5,0.4,2.8,0.9,3.9,1.6l-1.7,4.2c-2.2-1.3-4.5-1.9-6.7-1.9c-1.6,0-2.7,0.3-3.5,0.8
				c-0.7,0.5-1.1,1.2-1.1,2c0,0.8,0.4,1.4,1.3,1.8c0.9,0.4,2.2,0.8,3.9,1.2c1.8,0.4,3.3,0.9,4.5,1.3c1.2,0.4,2.2,1.1,3,2.1
				c0.8,0.9,1.3,2.2,1.3,3.8c0,1.4-0.4,2.6-1.2,3.8c-0.8,1.1-1.9,2-3.5,2.7c-1.5,0.7-3.4,1-5.6,1C272.2,73.5,270.3,73.2,268.6,72.7z
				"/>
			<path class="st1" d="M288.2,49h5.6v24.1h-5.6V49z"/>
			<path class="st1" d="M301.9,72.7c-1.8-0.5-3.2-1.2-4.3-2l1.9-4.2c1,0.8,2.3,1.4,3.7,1.8c1.4,0.5,2.9,0.7,4.3,0.7
				c1.6,0,2.8-0.2,3.5-0.7c0.8-0.5,1.1-1.1,1.1-1.9c0-0.6-0.2-1.1-0.7-1.4s-1-0.7-1.7-0.9c-0.7-0.2-1.6-0.5-2.8-0.8
				c-1.8-0.4-3.3-0.9-4.5-1.3c-1.2-0.4-2.2-1.1-3-2.1c-0.8-1-1.3-2.3-1.3-3.9c0-1.4,0.4-2.7,1.1-3.8s1.9-2,3.4-2.7
				c1.5-0.7,3.4-1,5.6-1c1.5,0,3,0.2,4.5,0.6c1.5,0.4,2.8,0.9,3.9,1.6l-1.7,4.2c-2.2-1.3-4.5-1.9-6.7-1.9c-1.6,0-2.7,0.3-3.5,0.8
				c-0.7,0.5-1.1,1.2-1.1,2c0,0.8,0.4,1.4,1.3,1.8c0.9,0.4,2.2,0.8,3.9,1.2c1.8,0.4,3.3,0.9,4.5,1.3c1.2,0.4,2.2,1.1,3,2.1
				c0.8,0.9,1.3,2.2,1.3,3.8c0,1.4-0.4,2.6-1.2,3.8c-0.8,1.1-1.9,2-3.5,2.7c-1.5,0.7-3.4,1-5.6,1C305.5,73.5,303.6,73.2,301.9,72.7z
				"/>
		</g>
		<g>
			<path class="st1" d="M185.7,87.2h1.3v12.2h-1.3V87.2z"/>
			<path class="st1" d="M206.1,87.2v12.2h-1.1l-7.9-9.9v9.9h-1.3V87.2h1.1l7.9,9.9v-9.9H206.1z"/>
			<path class="st1" d="M215.8,99.1c-0.8-0.3-1.5-0.7-1.9-1.2l0.5-1c0.4,0.4,1,0.8,1.8,1.1c0.7,0.3,1.5,0.4,2.3,0.4
				c1.1,0,1.9-0.2,2.5-0.6c0.5-0.4,0.8-0.9,0.8-1.6c0-0.5-0.1-0.9-0.4-1.2s-0.7-0.5-1.1-0.7s-1-0.3-1.8-0.5
				c-0.9-0.2-1.7-0.5-2.2-0.7c-0.5-0.2-1-0.5-1.4-1c-0.4-0.4-0.6-1-0.6-1.8c0-0.6,0.2-1.2,0.5-1.7c0.3-0.5,0.8-0.9,1.5-1.2
				c0.7-0.3,1.5-0.5,2.5-0.5c0.7,0,1.4,0.1,2.1,0.3s1.2,0.5,1.7,0.8l-0.4,1c-0.5-0.3-1.1-0.6-1.6-0.8c-0.6-0.2-1.2-0.3-1.7-0.3
				c-1.1,0-1.9,0.2-2.4,0.6c-0.5,0.4-0.8,0.9-0.8,1.6c0,0.5,0.1,0.9,0.4,1.2s0.7,0.5,1.1,0.7c0.4,0.2,1.1,0.3,1.8,0.5
				c0.9,0.2,1.6,0.4,2.2,0.7c0.6,0.2,1,0.5,1.4,1c0.4,0.4,0.6,1,0.6,1.8c0,0.6-0.2,1.2-0.5,1.7c-0.3,0.5-0.8,0.9-1.5,1.2
				c-0.7,0.3-1.5,0.4-2.5,0.4C217.5,99.6,216.7,99.4,215.8,99.1z"/>
			<path class="st1" d="M230.8,87.2h1.3v12.2h-1.3V87.2z"/>
			<path class="st1" d="M249.6,93.3h1.2V98c-0.6,0.5-1.2,0.9-2,1.2c-0.8,0.3-1.6,0.4-2.5,0.4c-1.2,0-2.3-0.3-3.3-0.8
				c-1-0.5-1.7-1.3-2.3-2.2c-0.6-0.9-0.8-2-0.8-3.2c0-1.2,0.3-2.2,0.8-3.2s1.3-1.7,2.3-2.2c1-0.5,2.1-0.8,3.3-0.8
				c0.9,0,1.8,0.1,2.6,0.4c0.8,0.3,1.4,0.7,2,1.3l-0.8,0.8c-1-1-2.2-1.4-3.7-1.4c-1,0-1.9,0.2-2.7,0.7c-0.8,0.4-1.4,1-1.9,1.8
				c-0.5,0.8-0.7,1.6-0.7,2.6s0.2,1.8,0.7,2.6c0.5,0.8,1.1,1.4,1.9,1.8c0.8,0.4,1.7,0.7,2.7,0.7c1.3,0,2.3-0.3,3.2-0.9V93.3z"/>
			<path class="st1" d="M269.7,87.2v12.2h-1.3v-5.6h-7.7v5.6h-1.3V87.2h1.3v5.5h7.7v-5.5H269.7z"/>
			<path class="st1" d="M281,88.3h-4.3v-1.1h9.9v1.1h-4.3v11.1H281V88.3z"/>
		</g>
	</g>
</g>
</svg>
