<?xml version="1.0" encoding="utf-8"?>
<!-- Generator: Adobe Illustrator 25.2.3, SVG Export Plug-In . SVG Version: 6.00 Build 0)  -->
<svg version="1.1" id="Ebene_1" xmlns="http://www.w3.org/2000/svg" xmlns:xlink="http://www.w3.org/1999/xlink" x="0px" y="0px"
	 viewBox="0 0 91.2 162" style="enable-background:new 0 0 91.2 162;" xml:space="preserve">
<style type="text/css">
	.st0{fill:#FFFFFF;}
</style>
<g>
	<rect width="91.2" height="162"/>
	<g id="MAP_00000013153705056448784830000000485835528706069642_">
		<path class="st0" d="M25.3,122.3c0.2,0,0.1,0.1,0.2,0c0.1-0.1-0.1,0,0.1-0.1c0.3-0.1,0.3-0.1,0.5,0c0.3,0.2,0.5,0.4,0.7,0.6
			c0.2,0,0.2,0,0.4,0.1c0.1,0.2,0.6,0.2,0.8,0.2c0.2-0.2-0.5-0.4-0.5-0.6c0.1-0.1,0.7,0.4,0.8,0.4c0-0.2-0.1-0.1,0-0.2
			c0.1-0.1,0.1,0,0.1-0.1c-0.1-0.1,0,0-0.1-0.2c0-0.1,0.1,0,0-0.1c-0.2-0.3-0.4-0.2-0.5-0.5c0-0.1,0.1-0.5,0.1-0.4
			c0.2,0.2,0.3,0.3,0.5,0.4c0.2,0.1,0,0.2,0.2,0.1c0.2-0.1,0.2-0.1,0.2-0.1c0.1,0,0.2-0.3,0.3-0.3c0.1-0.1,0-0.2-0.1-0.3
			c-0.1-0.2-0.1,0-0.4-0.2c-0.2-0.1-0.1-0.1-0.3-0.1c-0.1,0-0.1,0-0.2-0.1c-0.1-0.1,0.1,0-0.1-0.1c-0.2-0.1-0.4-0.2-0.4-0.3
			c0,0,0,0,0.1,0c0.1,0,0.1,0,0.1,0c0.2,0-0.1-0.1,0-0.2c0.1-0.1,0.2,0,0.1-0.1c-0.1-0.1,0-0.1-0.1-0.1c-0.1,0,0.1,0.1-0.2,0
			c-0.5-0.2-0.3-0.3-0.6-0.4c-0.1,0,0,0.1-0.1,0c-0.1-0.1,0.1-0.1-0.1-0.1c-0.3,0-0.3,0-0.5-0.2c-0.1,0-0.1-0.1-0.2-0.1
			c-0.2-0.1-0.1,0-0.2-0.1c-0.1-0.2-0.6-0.1-0.7,0c0,0.1,0.1,0.1,0,0.1c-0.1,0-0.6,0.1-0.6,0c0-0.1,0,0,0-0.1c0-0.1,0-0.1,0-0.1
			c-0.1-0.2-0.1-0.6-0.4-0.4c-0.3,0.1-0.4,0.2-0.4,0.2c-0.1,0-0.4,0.1-0.3,0.2c0,0.1-0.2-0.1,0,0.1c0.1,0.2,0.1,0.3,0.1,0.3
			s-0.1,0.1-0.1,0.1c0,0,0.1,0.1,0,0c-0.3-0.3,0-0.6,0.2-0.8c-0.3-0.2-0.6,0-0.9,0.1c-0.2,0.2-0.4,0.7-0.1,0.8c0.1,0.1,0.3,0,0.4,0
			c0,0.3-0.2,0-0.3,0.2c0,0-0.1-0.1,0,0c0.2,0.3,0.5,0.1,0.8,0.2c0.4,0,0.7,0.1,1,0.2c0.2-0.2,0.4-0.1,0.6-0.1c0,0,0,0.1,0,0
			c0-0.1-0.1-0.1,0-0.1c0.3-0.1,0.5,0.2,0.5,0.3c0.3,0.1,0.1,0.2-0.1,0.2c0.1,0.1,0,0.1,0.1,0.1c0.1,0,0.2,0,0.3,0.1
			c0.2,0.2,0.3,0.1,0.5,0.1c0,0,0-0.1,0,0c0.1,0.1,0.1,0,0.1,0.1c0,0.3-0.4,0.4-0.3,0.4c0,0.1-0.1,0.2,0,0.3c0,0,0.1-0.1,0,0
			c0,0.1,0.1,0.1-0.1,0.1c-0.3,0.1-0.3,0.1-0.4,0.1c-0.1,0,0.2,0-0.1,0c-0.3,0-0.2-0.1-0.3,0C25,122.2,25,122.2,25.3,122.3z"/>
		<path class="st0" d="M24.5,122.5c0-0.1-0.2-0.1-0.2-0.2c0-0.1,0.1,0,0-0.1c-0.1,0-0.1,0.1-0.1,0c0-0.1,0.1-0.1,0-0.1
			c-0.2-0.1-0.2,0-0.3-0.1c-0.1,0,0,0-0.1-0.1c-0.3-0.2-0.2,0.1-0.3-0.2c-0.1-0.1-0.1-0.1,0-0.1c-0.1,0-0.3-0.1-0.2,0
			c-0.1,0-0.1,0.2-0.1,0.3c-0.1,0.1,0,0.1,0,0.2c0.1,0.1-0.3,0.2-0.2,0.3c0.1,0.1,0.4-0.2,0.3,0.1c0,0.3,0.2,0.1,0.3-0.1
			c0.1-0.1,0.1,0,0.1-0.1c0-0.1,0,0,0-0.1c0.1-0.1,0.2,0.1,0.3,0.1C24.3,122.6,24.3,122.7,24.5,122.5z"/>
		<path class="st0" d="M23.7,122.8c-0.2,0.3,0.4,0.2,0.4,0c0-0.1,0.1,0,0,0c0,0,0.1,0-0.1,0C23.8,122.8,23.8,122.8,23.7,122.8z"/>
		<path class="st0" d="M24.5,123.1c0,0.2,0.2,0.1,0.2,0.1c0.1-0.1,0.1,0,0.1-0.1c-0.1-0.1,0.1-0.1-0.1-0.1
			C24.4,123,24.5,123,24.5,123.1z"/>
		<path class="st0" d="M25.5,121.1c0.1,0,0.1,0.1,0.2-0.1c0-0.1,0.1-0.1,0-0.1c0-0.2-0.3-0.2-0.4-0.2c-0.1,0.1-0.2,0.1-0.1,0.3
			c0,0.1-0.1,0.1,0,0.1C25.4,121.2,25.4,121.1,25.5,121.1z"/>
		<path class="st0" d="M24.8,120.6c0.1,0,0.2-0.2,0.1-0.3c-0.1,0-0.1,0.1-0.2,0.2c0,0,0-0.1,0,0C24.6,120.6,24.8,120.6,24.8,120.6z"
			/>
		<path class="st0" d="M19.8,119.2c0.2,0.2,0.3,0.4,0.5,0.3c0-0.1,0-0.2,0.1-0.1c0.1,0.2,0.4-0.1,0.3-0.2c0-0.1,0,0,0-0.1
			c0-0.1,0.1,0,0-0.1c-0.1-0.1-0.1-0.1-0.1-0.1c0-0.1,0.1,0,0-0.1c-0.2,0-0.3-0.1-0.3-0.1c0.1,0,0.1-0.2,0.1-0.1c0.1,0,0,0.2,0.1,0
			c0.1-0.2,0.1-0.2,0.1-0.2s0.2,0.1,0,0c-0.3-0.1-0.1,0-0.3-0.1c-0.1,0,0,0-0.1,0c-0.1,0.2-0.4-0.1-0.5,0.1
			c-0.2,0.2-0.1,0.2,0.1,0.3c0.1,0.1,0.1,0.2,0,0.2c-0.1,0,0,0.1-0.1,0c-0.2-0.1-0.1-0.1-0.2-0.1c-0.1,0-0.1,0-0.1,0.1
			c0,0-0.1-0.1,0,0C19.5,119,19.6,119.1,19.8,119.2z"/>
		<path class="st0" d="M20.8,120.7c0-0.1,0.1,0,0.1-0.1c0-0.1,0.1,0,0-0.1c-0.1-0.2,0-0.2-0.3-0.2c0,0-0.1-0.1-0.1-0.1
			c0,0,0.1,0,0,0c-0.3,0-0.2,0.1-0.4,0.2c-0.1-0.1-0.3,0.1-0.1,0.1c0.1,0,0.1,0,0.1,0C20.3,120.6,20.6,120.7,20.8,120.7z"/>
		<path class="st0" d="M19.8,120.6C19.8,120.6,20,120.5,19.8,120.6c0-0.1,0.1-0.1,0-0.1C19.7,120.5,19.8,120.5,19.8,120.6z"/>
		<path class="st0" d="M18.4,120.5c-0.1,0-0.1,0-0.2,0.1c0,0-0.3,0.1-0.3,0.1c0,0.1,0.1,0.1,0.1,0.1c0.1-0.1,0.1-0.1,0.2-0.1
			c0.1,0,0.2-0.2,0.3-0.1L18.4,120.5z"/>
		<path class="st0" d="M19.1,120.5c0.1,0.1,0.3-0.2,0.4-0.2c0.1-0.1-0.2-0.1-0.1-0.2c0-0.1,0.1,0,0.2,0c0.1,0,0.1-0.1,0.1-0.2
			c-0.1-0.1,0.1,0-0.1-0.1c-0.2-0.1-0.2-0.1-0.3-0.1c-0.1,0-0.5-0.1-0.5-0.3c0,0-0.2-0.4-0.2-0.5c0,0,0,0,0-0.1c0,0-0.1,0.1-0.1-0.1
			c0-0.1,0-0.1,0-0.1c-0.1-0.1,0.1-0.1,0.1-0.1c0.2-0.2-0.2-0.3-0.3-0.2c-0.3-0.1,0.1,0.2,0.1,0.3c-0.1,0.1,0,0.1-0.1,0.1
			c-0.1-0.1-0.1-0.1-0.1-0.1c-0.1,0-0.5-0.1-0.3,0.3c0,0,0-0.1,0.1,0.1c0,0.1,0,0.1,0,0.1c0.2,0.2-0.2,0.3-0.2,0.1c0,0,0,0.1,0-0.1
			c-0.1-0.3,0-0.1-0.1-0.2c-0.1,0,0,0-0.2-0.1c-0.2-0.1-0.2-0.1-0.2,0c0.1,0.1-0.1,0.1-0.1,0.2c0,0,0,0,0,0c0,0,0.1-0.1,0,0
			c-0.2,0-0.2,0-0.2-0.1c-0.1-0.1-0.2-0.1-0.3,0c-0.1,0,0.1,0.1-0.1,0.1c-0.2,0-0.1,0-0.2,0c-0.2,0.1,0.1-0.2,0-0.3
			c-0.2,0-0.5,0.1-0.7,0.2c-0.1,0.1-0.5,0.2-0.2,0.2c0,0.2-0.2,0-0.2,0.2c-0.1,0.1,0.1,0,0.1,0c0,0,0.1,0,0.2,0c0,0,0.1-0.1,0,0
			c-0.1,0.1,0,0-0.1,0.1c0,0,0,0,0.1,0c0.1,0,0.2,0,0.4,0c0.1,0,0.3-0.1,0.1,0c-0.2,0.1-0.3,0.1-0.4,0.1c-0.4,0.2,0.1,0.3,0.2,0.2
			c0.1-0.1,0.4,0,0.5,0c0.1,0,0.3,0,0.4,0c0.4,0.1-0.3,0.2-0.4,0.1c0,0-0.2,0-0.3,0c-0.2,0.1-0.3-0.1-0.3,0.2
			c0.1,0.3,0.5,0.1,0.8,0.3c0.1,0.1,0,0.2,0.2,0.3c0.2,0,0.3,0,0.4-0.1c-0.1,0.1,0.4,0.1,0.4,0c0.2-0.1,0.4-0.1,0.5-0.1
			c0,0-0.1,0,0.1-0.1c0.2-0.1,0.1-0.1,0.1-0.1c0.1-0.1,0.1,0.1,0.1,0.1c0.1,0,0.2,0,0.3,0.1C18.9,120.5,19,120.5,19.1,120.5z"/>
		<path class="st0" d="M16.3,118.5c0-0.1-0.1,0-0.1-0.1c-0.1-0.1-0.1-0.1-0.2-0.1c0,0,0.2,0,0,0c-0.3,0-0.3-0.1-0.4,0c0,0,0,0,0,0
			c-0.2-0.1-0.4-0.1-0.6-0.2c-0.1,0-0.1,0-0.2,0c-0.2,0-0.2,0-0.4,0c-0.2,0,0,0-0.1,0c-0.1,0.1,0.1,0.2,0.1,0.3
			c0,0.1-0.2,0.2-0.1,0.3c0,0-0.1,0-0.1,0.1c0,0,0.1,0,0,0c-0.1,0.1-0.2,0.3-0.3,0.4c0,0.1,0.1,0,0.2,0.1c0.1,0,0,0.1,0.2,0.1
			c0,0,0-0.1,0,0c0.1,0.1,0,0.1,0.1,0.1c0,0,0,0,0,0.1c0.1,0.1,0,0.1,0.1,0.1c0.2,0,0.1-0.1,0.3-0.1c0.2,0,0.3,0,0.4-0.1
			c0,0-0.1,0,0,0c0.1-0.1,0,0,0.1-0.1c0-0.2,0-0.2,0.1-0.2c0.1,0,0.2-0.1,0.3-0.2c0,0-0.1,0,0,0c0.2-0.1,0.2-0.1,0.4-0.2
			C16,118.6,16.5,118.7,16.3,118.5z"/>
		<path class="st0" d="M15.5,116.8c-0.2,0,0,0.2-0.4,0.3c-0.1,0,0-0.1-0.1,0c-0.1,0.1,0.3,0-0.1,0.1c-0.3,0.1-0.3,0.1-0.3,0.1
			s-0.1,0,0,0.1c0.2,0.2,0.3,0,0.5,0c0,0-0.1-0.1,0,0c0.1,0,0.2,0.1,0.3,0.1c0,0,0.1-0.2,0.1-0.2c0,0-0.1,0,0,0c0.1,0,0,0.1,0.1,0
			c0.1-0.2,0.1-0.1,0.2-0.1c0,0.1-0.1,0.1,0,0.1c0.1,0,0,0.1,0.1,0c0.1-0.1,0-0.1,0.1-0.1c0.1,0,0,0,0.1,0c0.1,0,0,0.1,0.1,0
			c0-0.2,0-0.1,0-0.2c0,0,0.2,0,0.2-0.1C15.9,116.4,16.2,116.8,15.5,116.8z"/>
		<path class="st0" d="M15.7,117.6c0,0.1-0.1,0.1-0.1,0.1c-0.1,0,0,0-0.1,0c-0.1,0-0.2,0.1-0.1,0c0.1-0.1,0-0.1,0.1-0.1
			c0.1,0-0.1,0.1,0.1,0c0.2-0.1,0.1-0.1,0.2-0.1c0.1,0,0.2-0.1,0.1,0C15.8,117.5,15.7,117.5,15.7,117.6z"/>
		<path class="st0" d="M17.5,118C17.6,117.9,17.3,118,17.5,118c0.3-0.1,0.4-0.1,0.4-0.1c0.2,0,0.7,0,0.7-0.1
			c0.1-0.2,0.1-0.1,0.1-0.2c0-0.1,0-0.1,0-0.1c0,0,0,0,0,0c-0.1,0,0.1-0.1-0.1-0.1c-0.2,0-0.1,0-0.2,0c-0.2,0-0.3-0.2-0.4-0.3
			c0,0,0.1-0.1,0-0.1c-0.1-0.1-0.5,0.2-0.3,0.2c0.1,0,0.1,0,0.1,0c0,0.1-0.1,0,0,0.1c0,0.1,0.4,0.2,0.2,0.2c-0.2,0,0,0.1-0.2,0.1
			c-0.3,0-0.1-0.1-0.3-0.1c-0.1-0.1-0.3-0.1-0.3-0.2c-0.1,0,0.1,0-0.1,0c-0.2,0-0.2,0-0.3-0.1c-0.1-0.1-0.3,0-0.4,0
			c-0.1,0.1-0.3,0.3-0.3,0.4c0,0-0.1-0.1,0,0c0,0.1-0.1,0.1,0,0.1c0.3,0,0.5,0.1,0.7-0.1c0,0,0.1,0,0.1,0c0,0,0.1,0,0.1,0.1
			s-0.1,0.1-0.1,0.1C16.3,118.2,17.5,118.1,17.5,118z"/>
		<path class="st0" d="M18.8,117.7C18.8,117.8,18.7,117.8,18.8,117.7c0.1,0.1,0.2,0.1,0.2,0.1l0.1-0.1
			C19.2,117.6,18.9,117.7,18.8,117.7z"/>
		<path class="st0" d="M19.9,117.6C19.8,117.6,19.9,117.5,19.9,117.6c-0.1,0.1-0.1,0.1-0.1,0.1c0,0.1-0.3,0,0,0.1
			c0.4,0.1,0.3,0,0.5,0c0.1,0,0,0.1,0.1,0c0.2-0.1,0,0,0.1-0.2c0-0.1,0.1,0,0-0.1c0-0.1-0.1,0,0-0.1c0-0.1,0.1,0,0-0.1
			c-0.1-0.1,0-0.1-0.1-0.1c0-0.1,0.1,0,0-0.1c-0.1-0.1,0,0-0.1-0.1c-0.2-0.1-0.2-0.2-0.2,0c0.1,0.1-0.1-0.1-0.3,0
			c0,0-0.2-0.1-0.2-0.1c0,0.1,0.1,0.1,0,0.1c0,0,0.1,0.1,0,0c-0.1,0-0.1-0.1-0.1,0c-0.1,0,0-0.1-0.1,0c0,0.1,0.1,0.2,0,0.1
			c-0.2,0-0.2-0.1-0.4-0.2c-0.1,0-0.3,0-0.3,0.1c0,0.1,0.1,0.1,0.1,0.1c0,0.1-0.1,0.1,0,0.1c0.1,0.1,0.1,0,0.2,0
			c0.2,0.1-0.1,0.1,0.1,0.1c0.2,0,0.2,0,0.4,0C19.8,117.5,19.8,117.5,19.9,117.6z"/>
		<path class="st0" d="M18.8,116.7C18.8,116.7,18.9,116.7,18.8,116.7c-0.1-0.1-0.2-0.2-0.2-0.2c-0.1,0.1-0.1,0.1,0,0.2
			c0.1,0.1-0.1,0.1,0.1,0.1C18.9,116.8,18.9,116.8,18.8,116.7z"/>
		<path class="st0" d="M19.9,116.4C19.9,116.4,19.8,116.4,19.9,116.4c0.2,0,0.2,0,0.2,0s0,0,0,0c0-0.1,0.1,0,0-0.1
			c-0.1-0.1-0.1-0.1-0.1-0.1c0-0.1-0.2-0.2-0.4-0.2c-0.1-0.1-0.2-0.1-0.2-0.1c0,0,0.1,0.1,0,0c-0.2-0.1-0.1-0.1-0.2-0.1
			c-0.1,0-0.5,0-0.5,0c0,0-0.1,0.2,0.1,0.2c0.1,0,0,0,0.1,0c0.1,0,0.1,0.1,0.2,0.1c0,0-0.3,0-0.2,0.1c0.1,0.1,0.4,0.1,0.5,0.1
			c0,0-0.1,0,0,0.1c0,0.1-0.1,0.1,0,0.1c0.3-0.1,0,0.3,0.2,0.2c0.1,0-0.1,0,0.1,0C19.7,116.6,19.8,116.4,19.9,116.4z"/>
		<path class="st0" d="M17.6,116.2c0,0,0.3,0.1,0.1,0c-0.2-0.2,0.3,0,0-0.1c-0.4-0.2-0.2-0.1-0.4-0.1c0,0,0.1,0.1,0,0.1
			c-0.1,0,0,0.1-0.1,0c-0.1,0,0-0.1-0.1,0c-0.1,0.1-0.2,0-0.2,0.1c0,0-0.2,0,0,0c0.2,0,0.1,0.1,0.3,0
			C17.3,116.2,17.5,116.3,17.6,116.2z"/>
		<path class="st0" d="M17.6,116.6c-0.1,0.1-0.3,0-0.4,0.1c-0.1,0-0.1,0-0.2,0c-0.1-0.1,0-0.2-0.2-0.1c-0.2,0.1-0.2,0.2-0.3,0
			c0-0.1,0-0.1,0-0.1c0.1,0-0.1,0,0.1,0c0.2,0,0.2,0,0.3,0c0.1,0-0.1,0,0.1,0c0.2,0,0,0.1,0.2,0c0.2,0,0-0.2,0.2-0.1
			c0.2,0.1,0.1,0.1,0.2,0.1c0.1,0,0.2-0.2,0.1,0C17.6,116.6,17.6,116.6,17.6,116.6z"/>
		<path class="st0" d="M16.7,117c0.3,0-0.2-0.1-0.2,0C16.2,117,16.8,117.1,16.7,117z"/>
		<path class="st0" d="M20,115.3c-0.1,0-0.1,0-0.1,0c0,0,0-0.1,0,0c0,0.1-0.1,0,0,0.1s0.1,0.1,0.1,0.1c0.1,0,0-0.1,0.1,0
			c0.1,0.1,0,0.1,0.1,0.1c0.1-0.1,0.1,0,0.1-0.1C20.3,115.4,20.1,115.3,20,115.3z"/>
		<path class="st0" d="M20.5,116c0.3,0,0.5,0,0.6,0.1c0,0.1,0,0,0,0.1c0,0.1,0.1,0.1,0.1,0.1s-0.1,0.1,0,0.1c0.2,0,0.1,0,0.3,0
			c0.1,0,0.1-0.1,0.1,0c0,0.2-0.1,0.2-0.3,0.2c-0.1,0,0,0-0.2,0c-0.2,0-0.1,0-0.2-0.1c-0.2-0.1,0.2-0.1,0-0.1
			c-0.3-0.1-0.2,0-0.3-0.2c-0.1,0,0,0-0.1,0c-0.1,0,0,0-0.1,0C20.2,116,20.4,116,20.5,116z"/>
		<path class="st0" d="M21.4,117.9c0,0.3-0.2,0.1-0.3,0.1c0,0,0.1,0.1,0,0c-0.1,0,0,0-0.1,0s0,0-0.1,0c-0.1,0-0.1,0-0.1-0.1
			c0,0,0.1-0.2,0.2-0.2c0.1,0,0,0,0.1,0C21.4,117.4,21.4,117.7,21.4,117.9z"/>
		<path class="st0" d="M21.4,117.3c-0.3-0.1-0.2,0.1-0.5-0.1c0,0,0.1,0,0,0c-0.1,0-0.1,0-0.1-0.1c0-0.1,0.2-0.2,0.3-0.1
			c0.1,0,0.1,0,0.1,0c0.1,0.1,0.1,0,0.2,0C21.5,117,21.6,117,21.4,117.3z"/>
		<path class="st0" d="M24.7,117.8c-0.1,0-0.1,0-0.1,0.1c0,0.1,0.1,0.1,0,0.1c-0.1,0-0.4,0-0.5,0c0,0.1-0.2,0-0.3-0.1
			c0,0.1-0.4,0.2-0.4,0.1c0,0,0.1-0.1,0,0c-0.1,0.1-0.1,0.1-0.1,0.1c-0.1,0-0.6,0.1-0.7-0.1c0-0.1,0.1,0,0-0.1c-0.1,0-0.1-0.1-0.1,0
			c-0.1,0.1-0.2,0.1-0.3,0.1c-0.1,0,0,0-0.1,0c-0.1,0,0.1,0-0.1,0c-0.2,0-0.1,0-0.2,0c-0.1-0.1-0.1-0.1-0.1-0.2c0,0-0.1,0.1,0,0
			c0.1-0.2,0-0.1,0-0.2c0-0.1,0.1,0,0-0.1c-0.1,0-0.1-0.1-0.2-0.2c-0.1-0.2,0.3-0.3,0.5-0.2c0.1,0,0.2,0.1,0.2,0.2
			c0,0.1,0.2,0.2,0.2,0.2c0,0-0.2,0,0.1,0c0,0,0.1,0,0.1,0c0,0,0,0,0,0c0,0-0.1,0,0,0c0.2,0,0.4,0,0.6,0c0.1,0,0.1-0.1,0.1-0.1
			c0.3,0,0.3-0.1,0.5,0c0.3,0,0.1,0,0.3,0C24.5,117.6,24.7,117.6,24.7,117.8z"/>
		<path class="st0" d="M24.1,117.1c0.1,0,0.1,0,0.2,0.1c0,0-0.1,0,0,0c0.1,0.1,0.2,0,0.3,0c0,0,0,0,0.1,0c0,0-0.1,0,0,0
			c0.1-0.1,0,0,0.1-0.1c0-0.1,0.1,0,0.1,0c0,0,0.1-0.1,0.1-0.1c0,0,0,0,0-0.1c0-0.1,0.1,0.1,0-0.1c-0.1-0.1,0-0.1-0.1-0.1
			c-0.1,0-0.1-0.1-0.1,0c0,0.1-0.1,0-0.1,0c0,0-0.2,0.1,0,0c0.2-0.1,0.2-0.1,0.2-0.1s0,0.1,0,0c0.1,0,0-0.2,0-0.2c0,0-0.2,0,0,0
			c0.2,0,0.1,0,0.3,0c0.1,0,0.2-0.1,0.3-0.1c0.1-0.1,0.2-0.3,0.1-0.4c-0.1,0,0,0-0.1,0c0,0-0.1,0,0,0c0.1,0,0.1,0,0.1,0c0,0,0,0,0,0
			c0,0-0.1,0,0,0c0.1-0.1,0-0.1,0.1-0.1c0,0-0.2,0,0,0c0.2,0,0.2,0,0.2,0c0,0,0,0,0.1-0.1c0.1,0,0.1,0,0.1,0
			c0.1-0.1,0.1-0.1,0.2-0.1c0.1,0.1,0.2-0.1,0.2-0.1c0,0-0.1,0,0,0c0.2-0.1,0.1,0,0.2-0.1c0,0-0.1,0,0,0c0.1,0,0.1,0,0.1,0s0,0,0,0
			c0,0,0,0,0,0c0.1-0.1,0.2-0.2,0.3-0.2c0.1,0,0.2-0.1,0.2-0.1c0.1-0.1,0.1,0,0.3-0.1c0.1-0.1,0.2,0,0.3-0.1c0,0,0,0,0,0
			c0,0,0.1,0,0,0c-0.1,0-0.3,0-0.3,0c-0.1,0.1-0.3,0.1-0.2,0c0,0-0.1,0,0,0c0.1,0,0.1,0,0.1,0c0,0-0.1,0,0,0c0.3-0.1,0.3,0,0.5-0.1
			c0.1,0,0.1,0,0.1,0s-0.1,0,0,0c0.1,0,0,0,0.1,0c0.2,0,0.2-0.1,0.4-0.1c0.1-0.1,0-0.2-0.1-0.2c-0.2,0-0.3-0.1-0.4-0.2
			c-0.3-0.2-1,0.2-0.8,0c0,0,0,0,0,0c-0.1,0,0.1-0.1-0.1,0c-0.2,0-0.1,0-0.2,0c-0.1,0-0.1,0-0.1,0s0,0,0,0c-0.1,0,0,0-0.1,0
			c-0.1,0-0.1,0-0.1,0c-0.1,0-0.1,0-0.1,0c0,0,0.1,0,0,0c-0.1,0-0.1,0-0.1,0c-0.1,0-0.2,0-0.2,0c0,0-0.1,0.1-0.1,0c-0.1,0,0,0-0.1,0
			c-0.2,0-0.3,0-0.4,0.1c-0.1,0-0.2-0.1-0.3-0.1c-0.2,0.1-0.3,0-0.4,0.1c0,0-0.1,0.1,0,0.1c0,0.1-0.2-0.1-0.3,0
			c-0.1,0,0,0.1-0.1,0.1c-0.2,0-0.2-0.2-0.4-0.1c0,0-0.1,0-0.2,0.1c-0.1,0-0.2,0-0.2,0c-0.1,0.1,0,0-0.2,0.1c-0.2,0.1,0,0-0.2,0.1
			c-0.1,0.1-0.2,0-0.2,0c-0.1,0-0.1,0-0.1,0c0,0,0,0,0,0s0.1,0,0,0c-0.2,0-0.2,0-0.2,0c0,0,0,0,0,0c-0.1,0.1-0.3,0-0.3,0.1
			c0,0,0.2,0,0,0c-0.3,0-0.4,0-0.6,0.1c0,0,0,0,0,0c-0.1,0,0,0-0.1,0c-0.1,0-0.4,0.1-0.2,0.1c0.1,0,0.2-0.1,0.3-0.1
			c0.1,0-0.1,0.1-0.1,0.1c0,0,0,0,0,0c0.1,0.1,0,0.1,0.1,0.2c0.1,0,0.2,0.1,0.2,0.1c0.1,0,0.1,0,0.1,0c0.2,0.1,0.4,0.1,0.5,0
			c0.2,0,0.2,0,0.3,0.1c0,0.1,0.4,0,0.4,0c0,0,0,0,0.1,0c0,0-0.1,0,0,0c0.2,0.1,0.3,0,0.5,0c0.2-0.1,0.1,0,0.3,0
			c0.3-0.1,0.1-0.1,0.4-0.3c0.3-0.2,0.3,0,0.1,0c-0.3,0.1,0,0.2-0.1,0.2c-0.2,0-0.3,0.2-0.5,0.2c0,0,0.1,0-0.1,0
			c-0.2,0.1-0.3,0.1-0.4,0.1c0,0.1-0.1,0,0,0.1c0.2,0.2-0.2,0.1-0.2,0c0,0,0.1,0-0.1,0c-0.3,0-0.4,0-0.6,0c-0.1,0.1,0.1,0.3,0.2,0.3
			c0.1,0.1,0.1,0.1,0.2,0.2c0.1,0.1,0,0,0,0.1c0.1,0.1-0.1,0.1-0.1,0.1c-0.1,0,0.2,0-0.1,0c-0.2,0-0.2,0-0.3,0
			c-0.2,0.1-0.5,0.4,0,0.3c0.1,0,0.1-0.1,0.1,0c0,0,0,0,0,0c0,0,0,0,0,0c0-0.1,0,0,0.1,0c0.1-0.1,0-0.1,0.1,0c0,0.1-0.1,0.1-0.1,0.1
			c0,0.1,0,0.2-0.1,0.2c-0.1-0.1,0-0.1-0.1-0.1c0,0,0,0,0,0c-0.1,0,0,0-0.1,0c0,0,0.1,0,0,0c-0.2,0-0.1,0-0.2,0c-0.1,0-0.1,0-0.1,0
			c0,0-0.1,0,0,0c0.1,0.1,0.2,0.2,0.1,0.2c-0.1,0.1-0.2,0.1-0.2,0.1c-0.1,0.1-0.2,0.1-0.2,0.2c0,0.2,0.2,0,0.3,0.1
			c0.1,0.1,0.2,0,0.3,0c0.1,0,0.2,0,0.3,0.1c0.2,0,0.2-0.1,0.4-0.1C23.9,117.2,24,117.2,24.1,117.1z"/>
		<path class="st0" d="M21.7,114.6c-0.6-0.1-0.2,0.3-0.5,0.2c-0.1,0-0.1,0-0.1,0c-0.2-0.1,0.2,0.2-0.1,0.2c-0.2,0.1-0.2,0-0.2,0.1
			c0,0,0.2,0,0,0c-0.1,0.1-0.1,0-0.1,0.1c0,0.1,0,0.1,0.1,0.2c0,0.1-0.1,0,0,0.1c0.1,0,0-0.1,0.1,0c0.2,0.3,0.4,0.2,0.7,0.2
			c0.4-0.1,0,0.1-0.1,0.1c-0.1,0-0.2,0.1-0.1,0.1c0.1-0.1,0.2,0,0.2,0.1c0.1,0,0,0,0.1,0c0,0.1,0.1,0,0,0.1c0,0.1-0.1,0,0,0.1
			c0.1,0.2,0.3,0,0.4,0.1c0.2,0,0-0.2,0.3-0.1c0.1,0.1,0,0,0.2,0c0,0-0.1,0,0,0c0.1,0,0.1,0.1,0.1,0c0.1-0.1,0.1-0.2,0.3-0.2
			c0.1-0.2,0-0.1,0.2-0.1c0.5-0.1,0.1-0.3-0.1-0.3c-0.1-0.2-0.2-0.2-0.2-0.2c-0.1-0.1-0.2-0.1-0.3-0.2c0-0.1,0,0,0-0.1c0,0,0,0,0,0
			c0,0-0.4,0-0.4,0c0-0.1-0.1-0.1-0.2-0.2C21.8,114.8,21.8,114.7,21.7,114.6z"/>
		<path class="st0" d="M22.8,115.2c0,0.1,0,0.1-0.1,0.1c0-0.1-0.1-0.1-0.1-0.1C22.6,115.1,22.7,115.2,22.8,115.2
			C22.7,115.2,22.7,115.2,22.8,115.2C22.8,115.2,22.8,115.2,22.8,115.2z"/>
		<path class="st0" d="M22.2,116.7C22.2,116.7,22.4,116.8,22.2,116.7c-0.1,0.1,0,0.1-0.1,0c0,0,0,0,0,0
			C21.9,116.6,22.2,116.6,22.2,116.7z"/>
		<path class="st0" d="M33.2,123.6c0.1-0.1,0-0.2,0.1-0.2c0.1,0,0,0.1,0.1,0c0-0.1,0,0,0-0.1c0-0.2,0,0,0-0.2c0-0.1-0.2-0.1-0.1-0.1
			c0.1,0,0,0.1,0.1,0c0.1-0.1,0-0.1,0.1-0.1c0.1,0,0.3-0.2,0.3-0.3c0-0.3,0.1-0.2,0.1-0.3c0-0.1-0.1,0,0-0.1c0-0.1,0,0,0-0.1
			c0.1,0,0.1-0.1,0.1-0.1c0.1-0.2,0.4-0.2,0.6-0.1c0.1,0,0.2-0.1,0.3-0.2c0.1,0,0.3-0.1,0.4-0.2c0.2-0.2,0.3-0.5,0.5-0.6
			c0.2,0,0.3-0.1,0.5-0.1c0.2-0.1,0.3-0.1,0.4-0.1c0.1,0,0.3,0,0.4-0.1c0.1-0.1,0.3-0.1,0.4-0.2c0.1,0,0.4-0.2,0.3-0.2
			c0.1-0.1,0.2-0.1,0.2-0.2c-0.1-0.1-0.2,0-0.3,0c-0.1-0.1-0.4-0.1-0.4-0.1c0,0-0.1,0-0.2,0c0,0,0,0.1,0,0c0-0.1,0.2-0.1,0.2-0.1
			c0-0.4,0.3-0.2,0.3,0c-0.1,0,0.3,0.1,0.3,0.1c0.1,0,0.1,0,0.2,0c0,0,0,0.1,0.1,0c0.1-0.1,0-0.1,0-0.1c0-0.1,0-0.2,0-0.3
			c-0.1-0.1-0.1-0.3-0.3-0.3c-0.1,0-0.4-0.2-0.4-0.3c0.2,0,0.2,0.2,0.4,0.2c0.1,0,0,0.1,0.1,0c0,0,0,0,0.1,0c0.1-0.2,0,0,0-0.1
			c0.1-0.1,0-0.2-0.1-0.2c-0.1-0.1,0.2-0.1,0.2-0.1c0,0.1,0.1-0.1,0.1-0.1c0,0,0,0,0.1,0c0.1,0,0,0,0.1-0.1c0.1-0.3-0.3,0-0.2-0.2
			c0,0,0.3,0,0.4,0c0.2-0.2,0.5-0.2,0.1-0.2c0,0.1-0.1-0.1-0.1-0.1c0-0.1,0,0,0-0.1c0.1-0.1,0.1-0.1,0.1-0.1c0-0.1,0-0.2,0-0.3
			c0-0.1,0,0-0.1-0.1c0-0.1,0.1,0,0-0.1c-0.2-0.1-0.1-0.1-0.2-0.1c-0.1,0,0,0.1-0.1,0c-0.1-0.1-0.1,0-0.1,0c-0.1,0,0-0.2,0.1-0.2
			c0.2,0,0.4-0.1,0.5,0.2c-0.1,0.1,0,0.2,0.1,0.2c0-0.2,0-0.2,0-0.4c0,0,0,0,0-0.1c0,0,0-0.1,0-0.1c0.1-0.3-0.4-0.1-0.3-0.3
			c0.1-0.1-0.2-0.2-0.3-0.2c-0.1,0-0.1,0-0.2,0c-0.1-0.2,0.1-0.2,0.1-0.3c0-0.1,0.1-0.2,0.2-0.2c0.1,0,0,0.1,0.1,0
			c0.1-0.1,0.1-0.1,0.1-0.1c-0.1,0,0.1-0.1,0.1-0.1c0-0.1-0.1,0,0-0.1c0-0.1,0.1-0.1,0-0.1c-0.1,0,0,0.1-0.1,0
			c-0.1-0.1-0.1-0.1-0.1-0.1s-0.2,0,0.1-0.1c0.4-0.1,0.4,0,0.7-0.1c0.2,0,0.3-0.1,0.1-0.2c0,0-0.2,0,0,0c0.2,0,0.3-0.1,0.4-0.1
			c0.2-0.2,1.1-0.4,0.5-0.6c-0.2,0-0.3,0-0.4-0.1c-0.2-0.1-0.6,0.1-0.7,0.2c-0.1,0.2-0.2,0.1-0.4,0.1c0-0.1-0.1,0.1-0.1,0
			c0,0,0.1,0,0,0c-0.1,0,0.1-0.1-0.1,0c-0.3,0-0.3,0.1-0.5,0.2c0,0-0.2,0.2-0.3,0.2c0,0-0.1,0.1,0,0c0.1-0.1,0.2-0.2,0.4-0.3
			c0.1-0.1,0.1-0.3-0.1-0.3c-0.1,0-0.3,0-0.3,0.1c0,0.1,0.1,0,0,0.1c-0.3,0.1-0.1,0.1-0.2,0.1c-0.2,0.1-0.9,0.1-0.2-0.1
			c0,0-0.1,0.1,0,0c0.1-0.1,0.1,0,0.1-0.1c-0.1-0.2-0.3-0.1-0.4-0.1c0,0,0.1,0,0,0c-0.1,0-0.5,0.1-0.6,0.1c0,0,0.1,0,0,0
			c-0.3,0-0.3,0-0.5,0.1c-0.3,0-0.1-0.1,0-0.1c0.1,0,0.1,0,0.2,0c0.1,0,0.1,0,0.1-0.1c0.1,0,0.2-0.1,0.3-0.1c0.2,0,0.3,0,0.5-0.1
			c0,0,0.2,0,0.3,0c0,0-0.2,0,0,0c0.3,0,0.2,0,0.4,0c0.1-0.1,0.3,0,0.4-0.1c0.1,0,0.2-0.1,0.2-0.1c-0.1-0.1,0.1-0.1-0.1-0.1
			c-0.1,0-0.6,0-0.6-0.1c0,0,0.1,0.1,0,0c-0.1-0.1,0-0.1-0.1-0.1c-0.2,0-0.1,0-0.2-0.1c-0.1,0-0.3,0-0.3,0c-0.2-0.1-0.5-0.2-0.7-0.1
			c-0.1,0-0.2,0-0.3,0c-0.2,0-0.6,0-0.7,0c-0.2,0.1-0.3,0.1-0.4,0c-0.3,0.1-0.6,0.2-0.8,0.1c0,0-0.1-0.1-0.1,0c-0.1,0,0.1,0-0.1,0
			c-0.1,0.1-0.1,0.1-0.1,0.1c-0.3,0-0.5-0.2-0.7,0c0.1,0.2-0.2,0-0.3,0.1c0,0-0.3,0.1-0.3,0.1c0.1,0,0,0,0.1,0
			c0.1,0.1,0.2,0.1,0.3,0.1c0.1,0,0,0,0.1,0c0,0,0.1,0,0,0c-0.1,0-0.1,0.1-0.2,0c-0.1,0,0,0-0.1,0c-0.1,0,0.1,0-0.1,0
			c-0.1-0.1-0.4-0.2-0.3,0c0,0.1,0,0,0.1,0.1c0.1,0,0.2,0.1,0.2,0.1c0-0.1,0.2,0.1,0.1,0.1c0,0,0-0.1,0,0c0,0.1,0.1,0.1,0,0.1
			c-0.1,0,0.1,0.1-0.1,0c-0.2-0.1-0.2,0-0.3-0.2c-0.1,0,0.1,0-0.1,0c-0.2,0-0.2,0-0.2,0c-0.1-0.1-0.3-0.1-0.3-0.2c0,0,0.1-0.1-0.1,0
			c-0.2,0.1-0.4-0.1-0.4,0.1c0.1,0.1,0.3,0.2,0.3,0.2c0,0,0.1,0.1,0,0c-0.1,0,0,0-0.1,0c-0.1,0-0.3,0-0.4-0.2
			c-0.1-0.1-0.1-0.1-0.1-0.1c-0.1,0.1-0.1,0-0.1,0.1c0.1,0.1,0,0.2-0.1,0.2c-0.1-0.1,0-0.1,0-0.1c0,0,0,0.1,0,0
			c0-0.1-0.1-0.1-0.2-0.1c-0.3,0-0.3-0.1-0.6,0c-0.2,0-0.4,0-0.5,0.1c-0.1,0-0.2,0-0.3,0.1c-0.3,0-0.2,0.2-0.2,0.3c0,0,0.1,0,0,0
			c-0.2,0.1-0.3,0-0.4,0.1c-0.1,0.1-0.2,0.1-0.4,0.1c-0.1,0.1-0.3,0.2-0.4,0.2c0,0,0.1,0,0,0c-0.1,0.1-0.2,0.1-0.2,0.1
			c0.1,0.1,0,0.1,0.1,0.1c0.6-0.1,0.5,0.5,0.1,0.6c-0.1,0-0.3,0-0.4,0.1c-0.1,0.1-0.1,0-0.3,0.1c-0.1,0-0.2,0.1-0.3,0.1
			c-0.1,0-0.3-0.1-0.4,0c-0.2,0.1-0.1,0.2,0,0.3c0.1,0.1,0.2,0,0.3,0.1c0.2,0.1,0.3,0.1,0.5,0.1c0.1-0.1,0.3,0,0.3,0
			c0,0,0.2,0,0.2,0c0.1,0,0,0.1,0,0.1c-0.2,0.1-0.3,0-0.5,0.1c-0.2,0.1-0.3,0-0.5,0.1c0,0.1,0.2,0.1,0.2,0.1c0,0.1,0.2,0.1,0.3,0.1
			c-0.1,0.2-0.2,0.1,0.1,0.3c0.1,0,0.4,0.1,0.5,0c0.1-0.1,0.1-0.1,0.1-0.1c0,0,0-0.1,0,0c0.1,0.1,0,0.1,0.1,0c0.2,0,0.4-0.2,0.5-0.1
			c0.1,0,0.1,0,0.3,0.1c0.2,0,0.3,0,0.5,0.1c0.1,0.1,0.3,0.1,0.3,0.2c0,0-0.1,0,0,0c0.2,0.1-0.1,0.1,0,0.1c0.1,0,0,0,0.1,0
			c0.1,0-0.1,0,0.1,0c0.2,0.1,0.1,0,0.2,0.1c0,0.1,0,0.1,0,0.1c0.1,0.1,0,0.1,0,0.2c0.1,0,0.1,0.2,0.2,0.2c0.1,0,0.2,0.2,0.1,0.2
			c0.1,0.1,0,0,0.1,0.1c0,0.1,0.1,0,0,0.1c0,0.1-0.1,0.1-0.1,0.2c0.2,0,0,0.2,0,0.3c0,0.3,0.2,0.2,0.4,0.2c0,0,0.1-0.1,0.1-0.1
			c0.1,0,0-0.1,0.1,0c0.1,0.1,0.1,0,0.1,0.1c0,0.1-0.1,0,0,0.1c0.1,0.1,0.2,0,0.2,0.1c0.1,0,0.1,0.1,0.1,0.2c0,0,0.1,0,0,0
			c-0.1,0,0,0.1-0.1,0c-0.1,0-0.2-0.1-0.2-0.1c-0.1,0-0.1-0.1-0.2-0.1c0,0,0.1,0,0,0c-0.1,0-0.1,0-0.1,0c-0.1,0,0,0-0.1,0
			c-0.1,0-0.1,0-0.1,0c-0.1,0.1,0.1,0.2,0.1,0.1c-0.1,0-0.2,0.1-0.2,0.2c0,0.1-0.1,0.1,0,0.1c0,0,0,0,0,0c0.2,0,0.1,0.1,0.2,0.1
			c0.2,0,0.3,0,0.4-0.1c0-0.1,0.1,0,0-0.1c-0.1-0.1-0.2-0.1-0.3-0.2c0,0-0.1,0,0,0c0-0.1,0-0.1,0-0.1c0,0,0-0.2,0,0
			c0,0.2,0,0.1,0.1,0.1c0.1,0,0.4,0.1,0.4,0.2c-0.1,0.2,0,0.2,0,0.3c-0.1,0.2,0,0-0.2,0c-0.4-0.1-0.2,0.1-0.3,0.2c0,0.1,0,0,0,0.1
			c0,0,0,0,0,0s0-0.1,0,0.1c0,0.1,0,0.1,0,0.1c0,0.1-0.1,0.1,0,0.2c0,0,0.1,0,0,0c0,0.1,0,0,0,0.1c0,0.1-0.1,0.1,0,0.2
			c0.1,0.1,0.3,0.2,0.3,0.4c0,0.1,0.1,0.2,0,0.3c0,0.1,0.2,0,0.1,0.2c0,0.2,0,0.1,0.1,0.2c0,0,0.2,0.1,0.2,0.2
			c0,0.2,0.2,0.2,0.3,0.4c0.1,0.2,0.2,0.2,0.3,0.4c0.1,0,0,0,0.1,0c0.1,0,0.1,0,0.1,0c-0.1,0,0.3,0,0.2,0l0.1,0c0,0-0.1,0,0.1,0.1
			c0.1,0.2,0.4,0.2,0.6,0.2C33.1,123.7,33.1,123.7,33.2,123.6z"/>
		<path class="st0" d="M29.7,127.1c0.1-0.2,0.5-0.8,0.6-0.4c-0.1,0.1-0.3,0.3-0.2,0.4c0.1,0.1,0.2,0,0.3,0c0.1,0,0.3,0.1,0.3,0.1
			c-0.1,0.4,0.1,0.2,0.1,0.5c0.1,0,0.1-0.1,0.1,0c0,0.1,0.1,0.1,0,0.1c-0.1,0.1,0.1,0.1-0.1,0.1c-0.1,0-0.1,0-0.1,0
			c-0.2-0.1,0-0.2-0.1-0.1c-0.2,0.1-0.1,0.1-0.2,0.2c-0.2,0-0.2-0.3-0.3-0.2c-0.2,0.1-0.2,0-0.4,0c-0.1,0-0.2,0.1-0.2,0
			c-0.1-0.1-0.1,0-0.1-0.1c0-0.1-0.1,0.1,0-0.1s0-0.1,0.1-0.2c0.1-0.1,0.2-0.1,0.2-0.2c0,0-0.1,0.1,0,0
			C29.7,127.1,29.7,127.1,29.7,127.1z"/>
		<path class="st0" d="M28.7,127.4C28.8,127.3,28.8,127.3,28.7,127.4C28.8,127.3,28.9,127.5,28.7,127.4c0-0.2,0.2-0.1,0-0.2
			c-0.2,0-0.2-0.2-0.4-0.1c-0.3,0,0,0.1,0,0.2C28.2,127.3,28.8,127.4,28.7,127.4z"/>
		<path class="st0" d="M28.9,128.1c0.1-0.1,0.1-0.1,0.2-0.2c0.1,0,0-0.2,0.1,0c0.1,0.2,0,0.2,0.2,0.3c0,0-0.1,0.1-0.1,0.1
			c0,0.1-0.1,0.1-0.2,0c0,0-0.1,0-0.1-0.1C28.8,128.2,28.9,128.2,28.9,128.1z"/>
		<path class="st0" d="M39,117.9c0.1,0,0-0.1,0-0.1c0,0,0,0.1,0,0c0-0.1,0.1,0,0-0.1c-0.2-0.1-0.2,0.2-0.1,0.2
			C38.8,117.8,39,117.9,39,117.9z"/>
		<path class="st0" d="M39,116.5C39,116.5,39.1,116.5,39,116.5c-0.1,0-0.1,0-0.1,0C38.8,116.6,38.9,116.6,39,116.5
			C39,116.6,39,116.5,39,116.5z"/>
		<path class="st0" d="M38.7,116.4c0,0,0.1-0.1,0.1-0.1c0,0,0.1,0,0.1,0c0-0.1,0-0.1,0.1-0.1c0,0,0-0.1,0.1-0.1c0,0,0,0,0,0
			c0.1,0,0-0.1,0-0.1c0,0,0.1-0.1,0-0.1c-0.2,0-0.1,0.2-0.3,0.1c-0.1,0,0,0.2-0.1,0.2c0,0.1-0.2,0.1-0.1,0.2c0,0,0,0,0,0
			c0,0-0.1,0,0,0C38.6,116.4,38.7,116.4,38.7,116.4z"/>
		<path class="st0" d="M38.8,115.6c0.1,0,0.1,0,0.2,0c0.1,0,0.2-0.1,0.1-0.2c-0.1,0-0.1-0.1-0.2,0C38.7,115.4,38.5,115.4,38.8,115.6
			z"/>
		<path class="st0" d="M38.7,114.3C38.7,114.3,38.8,114.3,38.7,114.3C38.7,114.3,38.8,114.3,38.7,114.3c-0.2-0.1-0.2-0.1-0.2-0.1
			C38.6,114.4,38.7,114.4,38.7,114.3C38.8,114.4,38.9,114.4,38.7,114.3z"/>
		<path class="st0" d="M38.9,114.4c0,0,0.2,0,0.2,0.1C39,114.5,38.9,114.5,38.9,114.4z"/>
		<path class="st0" d="M24.8,125.2C24.8,125.2,24.8,125.2,24.8,125.2c0.1-0.1,0-0.2,0-0.2c0,0,0,0,0,0c-0.1,0,0,0-0.1,0c0,0,0,0,0,0
			c0,0,0,0,0,0c-0.2,0,0,0.1,0,0.1c0,0,0,0.1,0,0.1c-0.1,0-0.1,0-0.1,0.1c0,0,0,0,0,0.1c0,0,0.1,0,0.1,0
			C24.7,125.3,24.8,125.3,24.8,125.2z"/>
		<path class="st0" d="M24.3,126.1c0-0.1-0.1-0.1-0.1,0c-0.1,0-0.1,0.1,0,0.1C24.3,126.2,24.2,126.2,24.3,126.1c0,0.1,0,0.1,0.1,0.1
			C24.4,126.2,24.4,126.1,24.3,126.1z"/>
		<path class="st0" d="M28.1,123.3C28.1,123.3,28.1,123.4,28.1,123.3c-0.1,0-0.2,0-0.1,0C27.9,123.2,28,123.2,28.1,123.3
			C28,123.2,28,123.2,28.1,123.3C28,123.1,28.1,123.3,28.1,123.3z"/>
		<path class="st0" d="M25.2,122.6C25.2,122.6,25.2,122.6,25.2,122.6C25.2,122.6,25.1,122.6,25.2,122.6c0.2,0.1,0.2,0.1,0.2,0
			C25.3,122.5,25.3,122.6,25.2,122.6C25.2,122.5,25.1,122.5,25.2,122.6z"/>
		<path class="st0" d="M25,122.6c-0.3,0,0,0.1,0.1,0.1C25.2,122.6,25.1,122.6,25,122.6z"/>
		<path class="st0" d="M15.5,131.6c0.1,0,0.1,0,0.1,0.1c0.1,0,0.2,0.2,0.3,0.3c0.1,0.2,0.2,0.4,0.3,0.6c0,0,0,0,0.1,0.1
			c0,0.1,0,0.1,0,0.1s0,0,0,0c0.1,0.1,0.1-0.1,0.2,0.2c0.1,0,0.1,0.2,0.1,0.2c-0.3,0.1-0.1,0.3,0.1,0.3c0.1,0,0.1,0,0.2,0.1
			c0,0,0,0,0.1,0c0,0,0.1,0.1,0.1,0.1c0,0.1,0,0.2,0,0.3c0.1,0.1,0.1,0.1,0.2,0.1c0,0.1,0.1,0.1,0.1,0.1c0.1,0.1,0,0,0.1,0.1
			c0,0.1,0,0,0,0.1c0.1,0.1,0.1,0.1,0.1,0.1c0.2,0,0.2-0.1,0.1-0.2c0-0.1-0.1-0.1-0.2-0.1c0-0.1,0-0.2-0.1-0.2
			c0-0.1-0.1-0.1-0.1-0.2c0-0.1,0,0,0-0.1c-0.1-0.1,0-0.1-0.1-0.1c-0.1,0,0-0.1-0.1-0.1c-0.1-0.1,0,0-0.1-0.1c0,0,0.1,0,0,0
			c-0.1-0.1-0.1-0.1-0.1-0.2c0-0.1-0.1-0.2-0.2-0.3c-0.1-0.1-0.2-0.1-0.2-0.2c0,0-0.1-0.3-0.1-0.3c0-0.1,0-0.1,0.1,0
			c0.1,0.1,0.1,0,0.2,0.1c0.1,0.1,0.1,0,0.1,0.2c0,0.1,0,0,0,0.1c0,0.1,0,0,0,0.1c0.1,0.2,0.1,0.2,0.2,0.4c0.1,0.1,0.1,0.1,0.2,0.2
			c0.1,0,0.1,0.1,0.2,0.2c0.1,0.1,0.1,0.1,0.1,0.2c0,0.1-0.1,0,0,0.1c0,0.1,0.2,0.2,0.3,0.2c0.1,0.1,0.2,0.1,0.2,0.2
			c0,0,0.2,0.1,0.2,0.1c0,0.1,0,0,0,0.1c0,0,0,0,0,0c0.1,0.1,0,0.1,0.1,0.2c0,0.1,0,0.1,0,0.1c-0.1,0,0.1,0.2,0,0.2c0,0,0,0.1,0,0.1
			c0,0.2,0.1,0.2,0.2,0.3c0.3,0.1,0.2,0.2,0.4,0.2c0.1,0.1,0.3,0.1,0.4,0.1c0.3,0.3,0.6,0.3,1,0.4c0.5,0.1,0.5-0.4,0.8,0
			c0.1,0.2,0.1,0.2,0.2,0.3c0,0,0,0.2,0.2,0.1c0.1,0,0.3,0.1,0.4,0c0.1,0,0.1-0.1,0.2-0.1c0,0,0,0.1,0,0c0-0.1,0-0.1,0.1-0.2
			c0,0,0.1,0,0,0c0,0,0,0,0,0c-0.1-0.1-0.1-0.1-0.1-0.2c0-0.1,0.1,0.1,0-0.1c0-0.2,0-0.2,0-0.2c0-0.1,0.1-0.2,0.2-0.2
			c0,0,0.1,0.1,0.1,0.1c0-0.1,0.1-0.2,0.1-0.3c0.1-0.1,0.2-0.3,0.2-0.4c-0.1-0.1-0.4-0.1-0.5-0.1c-0.1,0-0.3,0.1-0.4,0.3
			c0,0-0.1,0.1-0.1,0.1c0,0.1,0,0-0.1,0.1c-0.1,0.1-0.1,0.1-0.2,0.1c-0.1,0.1-0.4,0.1-0.6,0.1c-0.1-0.1,0-0.1-0.2-0.1
			c-0.1-0.1-0.3-0.1-0.3-0.3c0.1-0.1-0.3-0.5-0.2-0.6c0-0.1,0-0.2,0-0.3c0,0,0-0.1,0-0.2c0-0.1,0.1-0.1,0.1-0.2c0-0.2,0-0.1,0-0.2
			c-0.1-0.1,0-0.2,0-0.3c0.1-0.2-0.1-0.1,0.1-0.2c0.3-0.1,0.2-0.2,0.5-0.3c0.2-0.1-0.4-0.1,0.2-0.1s0.4,0.1,0.6,0.1
			c0.2,0,0.1,0.1,0.2,0c0.2-0.1,0.2-0.2,0.3-0.3c0.2-0.1,0.7-0.1,0.9,0c0.1,0.1-0.3,0,0.1,0.1c0.4,0.1,0.2-0.1,0.4,0.1
			c0.1,0.1,0.2,0.3,0.2,0.3c0,0.3,0,0.5,0.3,0.6c0.4,0.1,0-0.5,0.1-0.7c0.1-0.2-0.3-0.5-0.2-0.7c0.1-0.1-0.1,0.1,0.1-0.1
			c0.2-0.2,0.1-0.1,0.2-0.2c0.2-0.1,0.4-0.3,0.7-0.4c0.5-0.1,0.4-0.5,0.3-0.9c0-0.1-0.1,0,0-0.1c0.1-0.2,0.4,0,0.3-0.2
			c0-0.2-0.2,0.1,0-0.1c0.3-0.4,0.2-0.5,0.6-0.5c0.1,0-0.2,0.1,0.1,0c0.3-0.1,0.2-0.1,0.3-0.1c0.1-0.1,0.2,0.1,0.1-0.1
			c-0.1-0.2-0.1,0-0.1-0.2s-0.1-0.2,0.1-0.3c0,0-0.1-0.1,0-0.1c0,0,0.1,0,0.1,0c0,0,0,0,0,0c0.1,0,0.1,0,0.1,0
			c0.1-0.1-0.1,0,0.1-0.1c0.1,0,0.1,0,0.1,0c0.3-0.1,0-0.2,0.2-0.2c0.2,0,0.1-0.1,0.3-0.1c0.1,0,0.2-0.1,0.2-0.1
			c0,0.1-0.4,0.3-0.3,0.4c0.1,0.1,0,0.2,0.1,0.2c0.2-0.1,0.1-0.1,0.2-0.1c0.1,0,0.1,0,0.2,0c0.1-0.1,0.5-0.2,0.6-0.2
			c0,0,0.1-0.1,0-0.1c-0.1,0-0.1-0.1-0.1-0.1c-0.1,0.1-0.1,0-0.2,0c-0.1,0-0.1,0-0.2,0c0-0.1-0.2-0.1-0.2-0.2
			c-0.2-0.4-0.1-0.2-0.1-0.4c-0.1,0.1-0.2,0-0.2-0.1c0,0,0,0,0.1,0c0.1,0,0,0,0.1,0c0.1-0.1,0.1,0,0.2-0.1c0.1-0.1,0.1-0.2-0.1-0.2
			c-0.2-0.1-0.7,0.1-0.8,0.2c-0.1,0-0.8,0.7-0.5,0.3c0-0.1,0.1-0.2,0.2-0.2c0.1-0.1,0.2-0.2,0.3-0.3c0.1-0.1,0.2,0,0.2-0.1
			c0.1-0.4,0.7-0.2,1-0.2c0.1,0-0.2,0.1,0.1,0s0.3-0.1,0.3-0.1c0.1,0,0.3,0,0.4,0c0,0,0,0.1,0.1,0c0.1-0.1,0-0.1,0.1-0.2
			c0.2-0.1,0.1,0,0.3,0c0.2-0.1,0.1,0,0.2-0.1c0.1-0.1,0.1,0,0.1-0.1c0,0,0,0,0-0.1c0-0.2,0-0.3-0.1-0.4c-0.2-0.2-0.2,0.1-0.3-0.2
			c-0.1-0.1-0.3,0-0.4,0.1c0,0,0,0.1-0.1,0.1c-0.2,0.1-0.1,0-0.1-0.1c0,0-0.1,0,0.1-0.1c0.2-0.1,0.2-0.1,0.4-0.2c0,0,0,0.1,0,0
			s0.1-0.1,0-0.1c-0.1,0,0,0-0.1-0.1c-0.5-0.1-0.3-0.1-0.6-0.3c0-0.1-0.3-0.3-0.2-0.3c0,0,0.1,0.1,0-0.1c0-0.2-0.1-0.2-0.1-0.2
			c0-0.1,0.1,0,0-0.1c-0.2-0.1-0.2-0.1-0.2-0.2c0,0-0.1,0.1-0.1-0.1c0-0.2,0-0.1,0-0.1c0-0.1-0.1,0-0.2-0.1c0-0.1,0-0.1-0.1-0.2
			c0,0,0,0,0-0.1c0,0,0,0,0,0c-0.1-0.2-0.1,0.1-0.2,0.2c-0.1,0.1-0.1,0.2-0.2,0.3c0,0,0,0.2-0.1,0.1c0,0,0-0.1,0,0c-0.1,0,0,0-0.1,0
			c-0.1,0-0.2,0.1-0.3,0c0,0,0.1,0,0,0c-0.1,0,0,0-0.1,0c0-0.1,0.1-0.1,0-0.1c-0.2,0-0.2,0-0.3-0.1c0,0,0,0.1,0,0c0-0.2,0-0.1,0-0.2
			c0.1-0.1,0-0.1,0-0.1c0-0.1,0-0.4-0.2-0.4c-0.1,0-0.2,0-0.3-0.1c0,0,0.1,0-0.1-0.1c-0.1,0-0.2-0.1-0.2-0.2c0,0,0.1,0-0.1,0
			c-0.2,0-0.2,0-0.2,0c0,0,0,0-0.1,0c-0.2,0.1-0.3,0-0.5-0.1c-0.2,0-0.4,0.1-0.3,0.2c0,0,0.1-0.1,0,0c-0.1,0.1,0,0.1,0,0.1
			c0.1,0.1,0,0.1,0,0.2c0,0,0.1,0-0.1,0c-0.2,0.1-0.2,0-0.2,0.1c0,0.1,0.3-0.1,0.3,0.1c0,0.2,0.1,0.2,0,0.3
			c-0.1,0.1-0.1,0.2-0.2,0.3c0.1,0.2,0.5,0.3,0.5,0.4c0,0.1,0.1,0.2,0,0.3c-0.1,0.1,0,0.2-0.1,0.3c-0.1,0.1-0.4,0.3-0.6,0.3
			c0,0.2,0.1,0.3,0.1,0.4c0.1,0.1,0,0.2,0.1,0.3c0.1,0,0,0.1,0,0.2c0,0.1-0.2,0.2-0.3,0.2c-0.1-0.2,0-0.1-0.1-0.2c0,0,0,0,0,0
			c-0.1,0-0.1-0.1-0.2-0.1c0,0-0.2-0.1-0.1-0.2c0-0.1,0.1,0,0-0.1c-0.1-0.1,0-0.2-0.1-0.3c0-0.1,0,0,0-0.1c0-0.4,0.1-0.2-0.2-0.3
			c-0.2-0.1-0.4,0.1-0.6-0.1c0-0.1-0.3,0-0.4-0.1c-0.1-0.1-0.2-0.2-0.3-0.3c-0.1,0-0.1-0.1-0.2-0.1c-0.1,0-0.4,0-0.4-0.1
			c-0.1,0-0.3,0.1-0.4,0c0-0.2,0,0,0-0.2c-0.1-0.1,0.1-0.2-0.1-0.3c-0.2-0.2-0.4,0-0.4-0.4c0-0.1,0-0.1,0-0.2c0-0.1,0.2-0.4,0.2-0.4
			c0.1-0.1,0.2-0.3,0.3-0.4c0,0,0,0.1,0,0c0-0.2,0-0.1,0.1-0.1c0.1,0,0,0.1,0.1,0c0.1-0.1,0.1-0.3,0.3-0.3c0.1,0,0.3-0.2,0.4-0.1
			c0.1,0,0,0.1,0.1,0c0.1-0.1,0,0,0.1-0.1c0.2-0.1,0.3-0.3,0.1-0.4c0-0.1,0.1,0,0.2-0.1c0-0.1,0.1-0.1,0.1-0.1
			c0-0.1-0.1-0.1-0.1-0.2c0-0.1,0.3,0,0.3,0.1c0.1,0,0.1-0.1,0.1,0c0,0.1-0.1,0,0,0.1c0.1,0.1,0.4,0.3,0.3,0.1
			c-0.1-0.1-0.1-0.1-0.1-0.1s0,0,0-0.1c0.1,0,0,0.1,0.1,0c0.1-0.1,0.1-0.1,0.2-0.2c0,0-0.1,0,0,0c0.1,0,0.1,0,0.1,0
			c0.1-0.1,0.3-0.2,0.1-0.3c-0.1,0-0.2-0.2-0.2-0.3c-0.3,0,0.2-0.1,0.3-0.2c0,0-0.1,0-0.1-0.1c0,0-0.1,0,0,0c0-0.1,0.1,0,0-0.1
			c0.1-0.1-0.4,0-0.3-0.1c0-0.1,0-0.1,0-0.1c-0.1,0-0.1-0.1-0.2-0.1c-0.1,0.1-0.6-0.2-0.4,0.1c0,0.2,0.2,0,0.2,0.2
			c0,0.1-0.2,0.1-0.2,0.1c0,0,0,0.1,0,0.1c-0.1,0.1,0,0.1-0.1,0.1c-0.1,0,0.1-0.1-0.1,0c-0.1,0-0.1-0.1-0.1,0c0,0.2,0.1,0.1,0.1,0.2
			c0,0.1-0.1,0.1-0.2,0.1c-0.1,0.1-0.1-0.1-0.2-0.2c0,0,0,0.1,0,0c0-0.1,0-0.1,0-0.1s0,0,0.1,0c0,0,0,0.1,0,0c0-0.1,0.1,0,0-0.1
			c0-0.2-0.3-0.3-0.4-0.2c0,0.1-0.1,0.1-0.1,0.2c0,0,0,0.1,0,0c-0.1,0-0.1,0.1-0.1,0c0.1-0.2-0.1-0.1-0.1-0.3c0.1-0.3-0.1,0-0.2-0.1
			c-0.1-0.1-0.2,0-0.2-0.1c0-0.1,0.3-0.1,0.1-0.2c-0.1,0-0.1,0-0.1,0c0-0.1,0.1,0,0-0.1c-0.1,0-0.1-0.1-0.1-0.1c0,0-0.1,0-0.1-0.1
			c0-0.1,0.1,0,0-0.1c-0.1-0.1-0.1-0.1-0.3-0.1c-0.1-0.1-0.1,0-0.1-0.1c0-0.1,0,0,0-0.1c0,0,0.1-0.1,0.1-0.1c0,0,0,0.1,0,0
			c0.1-0.1,0.1-0.1,0.1-0.1c0-0.1-0.1,0,0-0.1c0.1,0,0.3,0,0.4-0.1c0,0,0,0.1,0,0c0.1-0.1,0.1-0.1,0.1-0.2c0.4-0.4,0.2-0.3-0.2-0.3
			c-0.3-0.2-0.8-0.1-0.9,0.3c0,0.2,0.3,0.6,0.1,0.7c-0.3,0.1,0.1,0.1,0,0.2c-0.1,0,0,0.1-0.1,0c-0.1,0,0.1-0.1-0.1,0
			c-0.2,0.1-0.1,0-0.1,0.2c0,0.1,0,0.1,0,0.1c0.1,0.1-0.1,0.2,0,0.2c0.1,0.2,0.2,0.1,0.3,0.2c0.2,0.1,0.3,0.2,0.2,0.3
			c-0.1,0.1,0.3,0.1,0.1,0.2c-0.1,0.2-0.5,0.1-0.3,0.4c0,0.1-0.3,0-0.2-0.1c0.1-0.1,0.1,0,0.1-0.1c0-0.1,0.1-0.1,0-0.1
			c-0.1,0.1-0.4-0.2-0.4-0.2c-0.1,0,0,0.2,0.1,0.2c0,0,0.1,0,0,0c0,0.1,0,0.1-0.1,0.1c-0.2,0-0.1-0.1-0.3-0.1c-0.3,0.1-0.2,0-0.3,0
			c0,0,0.1,0-0.1,0c-0.1,0-0.3,0-0.3,0c-0.1-0.1,0-0.1-0.1-0.1c-0.3,0-0.2,0-0.3-0.1c-0.1,0-0.2,0-0.2-0.1c0.1-0.1-0.3,0-0.3,0.1
			c-0.1,0.1-0.1,0.1-0.2,0.1c-0.2,0.2,0.1,0.2-0.1,0.3c-0.1,0-0.2,0-0.3-0.1c-0.1-0.2-0.1,0-0.2-0.1c-0.1,0,0.1-0.1-0.1,0
			c-0.2,0.1-0.2,0.1-0.2,0.1c-0.1,0-0.2,0-0.2,0c-0.2,0-0.1,0-0.2,0c-0.1,0-0.7-0.1-0.4-0.2c0.1,0,0.2,0,0.2-0.1
			c-0.1-0.1-0.1-0.2-0.2-0.2c-0.4,0.1-0.6,0-1-0.2c-0.1,0-0.3-0.1-0.4-0.2c-0.2,0-0.4-0.1-0.5,0c-0.4,0.4-0.1-0.6-0.6,0
			c0.1,0.4-0.3-0.1-0.3-0.1c0-0.1-0.2-0.3-0.2-0.1c0.1,0,0,0.1-0.1,0.1c0,0,0,0,0,0c0,0.1,0.1,0,0,0.1c-0.1,0.1-0.1,0.1-0.1,0.1
			c0-0.1-0.2,0-0.2,0c-0.2,0.1-0.4,0.2-0.6,0.3c-0.1,0,0,0-0.1,0c-0.2,0,0-0.1,0.1-0.1c0,0,0,0,0,0c0-0.1-0.1,0,0-0.1
			c0.1-0.1,0.1,0,0.1-0.1s-0.1,0,0,0c0.1-0.1,0.2-0.1,0.4-0.1c0.3-0.1-0.2-0.1-0.2-0.1c-0.1,0.1-0.4,0.2-0.5,0.2c0,0,0.1,0,0,0
			c-0.1,0-0.1,0-0.1,0c0-0.1-0.3,0-0.3,0c0,0,0,0,0,0c-0.1,0-0.1,0-0.1,0c0,0.1,0,0.1,0,0.1c-0.1,0.1,0.1,0-0.1,0.1
			c-0.1,0,0,0.1-0.1,0c-0.1,0-0.1,0-0.2,0c-0.1,0,0,0.1-0.1,0c-0.1-0.1-0.2-0.2-0.3-0.3c-0.1-0.1-0.3,0-0.4,0
			c-0.1-0.1,0-0.1-0.2-0.1c-0.2,0-0.1,0-0.2,0c-0.1-0.1,0-0.1-0.1-0.1c-0.1,0-0.4,0-0.5,0c-0.3,0-0.2-0.2-0.6-0.1
			c-0.1-0.1-0.3-0.1-0.4-0.2c-0.3,0.1-0.5,0.1-0.7,0c0,0,0,0,0,0c0-0.1,0.1-0.1,0-0.1c-0.2,0-0.1,0-0.2,0c-0.5,0-0.1-0.2-0.4-0.1
			c-0.2,0.1,0-0.1-0.3-0.2c-0.1,0.2-0.5,0.3-0.6,0.2c-0.2,0-0.3,0.2-0.4,0.2c-0.1,0-0.1,0-0.2,0c-0.2,0.1-0.2,0.2-0.3,0.4
			c0,0,0.1-0.1,0,0c-0.2,0.2-0.3,0.2-0.6,0.2c-0.2,0.2,0.1,0.4,0.2,0.4c0.1,0,0.1,0,0.2,0.1c0.1,0.1,0,0.2,0.2,0.2
			c0,0.1,0.3,0,0.4,0c-0.2,0.2,0.4,0.2-0.1,0.4c0,0,0,0-0.1,0c-0.1,0,0,0-0.1,0c0,0,0,0,0,0c-0.1,0-0.1-0.1-0.1-0.1
			c0-0.1,0.1,0,0-0.1c-0.1-0.1,0.1-0.1-0.1-0.1c-0.2,0.1-0.1,0.1-0.3,0.1c-0.2,0.1-0.2,0-0.4,0.1c-0.1,0,0.1-0.1-0.1,0
			c-0.1,0.1-0.1,0.1-0.1,0.1c0,0-0.1,0,0,0c0,0.1,0.3,0,0.3,0.1c-0.1,0.4,0.4,0.3,0.6,0.3c0.1,0,0.1,0,0.2,0c0.1,0,0,0.1,0.1,0
			c0-0.1,0.2-0.2,0.3-0.1c0,0.1,0,0.1,0.1,0.2c0,0,0-0.1,0,0c0,0.2,0.1,0.1-0.1,0.2c-0.2,0.1-0.2,0-0.4,0.1c0,0.2-0.1,0-0.2,0
			c-0.3,0-0.2,0.1-0.3,0.3c-0.2,0.2-0.4,0.3-0.1,0.5c0.1,0.1,0,0.1,0,0.2c0,0.1-0.1,0,0,0.1c0.1,0,0.2,0.2,0.2,0.2
			c0.3,0.1,0.4-0.2,0.6,0c0.2,0-0.1,0.3,0,0.4c-0.1,0.2,0.5-0.2,0.5,0c0.1,0.1,0,0,0.1,0.1c0.1,0.1,0,0,0.1,0.1
			c0.1,0.1,0.1,0.1,0.1,0.1s0,0,0-0.1c0-0.1-0.1-0.1,0-0.1c0.1,0,0.3,0,0.3,0c0.1,0-0.1,0.3-0.1,0.3c-0.1,0.2-0.4,0.3-0.5,0.4
			c-0.2,0-0.1,0.2-0.2,0.2c-0.1,0-0.3,0-0.4,0.1c0,0,0,0,0,0c-0.1,0.1,0.1,0-0.1,0.1c-0.2,0.1-0.1,0-0.2,0.1
			c-0.3,0.1-0.2,0.3,0.1,0.1c0.2,0,0.4-0.2,0.4-0.2c0.3,0,0.4-0.2,0.7-0.3c0.1,0,0.1-0.1,0.2-0.1c0.2,0,0.2-0.1,0.3-0.2
			c0.2-0.1,0.2-0.1,0.4-0.2c0.2-0.1,0.2-0.1,0.3-0.3c0-0.1,0.2-0.1,0-0.1c-0.1,0-0.1,0-0.1,0c0-0.1-0.1,0,0-0.1
			c0.2-0.2,0-0.1,0.2-0.2c0.1,0-0.1,0.1,0.1,0c0.3-0.3,0.1-0.4,0.6-0.5c0.5-0.1,0,0.1-0.1,0.2c-0.2,0.2-0.1,0.2-0.2,0.3
			c-0.1,0.2,0,0.3,0.1,0.2c0.2-0.1,0.1-0.1,0.3-0.1c0,0-0.2,0.1,0,0c0.3-0.1,0.4,0,0.4-0.3c0,0,0,0.1,0,0c0-0.1-0.1,0,0-0.1
			c-0.1-0.1,0.1,0,0.1,0c0.1,0,0,0,0.1,0c0.2,0.1,0.1,0,0.2,0.1c0.1,0.1,0.1,0.1,0.1,0.1c0.1,0,0.3,0.1,0.4,0.1c0,0-0.1,0,0.1,0
			c0.2,0.1,0.2,0,0.4,0.1c0.2,0,0.3,0.1,0.4,0.1c0.2-0.1,0.6,0.3,0.8,0.4c0.1,0,0.5-0.1,0.5,0c-0.1,0.1-0.2-0.1-0.3,0
			c-0.1,0.1,0,0.2,0.1,0.3c0.1,0,0.3,0.5,0.3,0.2c0,0,0.1,0,0.1,0c-0.1,0.1,0.1,0.2,0.1,0.3c0,0.2,0.2,0.3,0.4,0.3
			c0.2-0.2,0.3,0.3,0.4,0.4c0.2,0.2,0.4,0.3,0.5,0.5c0,0,0,0.1,0,0.2c0,0.1-0.1,0.1,0,0.1c0.1,0.1,0.3,0.1,0.4,0c0,0-0.1-0.1,0,0
			c0.3,0.1,0.5,0.2,0.6,0.4c0.1,0,0.3,0.2,0.2,0.3c-0.1,0,0,0.1-0.1,0c-0.2,0-0.3-0.1-0.4,0c0,0.1-0.1,0.1,0,0.2
			c0.1,0.1,0.2,0,0.2,0.2c0,0.2,0,0.5,0,0.7c-0.1,0.1-0.1,0.3-0.1,0.4c0,0.1,0,0,0,0.2c0,0.1-0.1,0.2,0,0.2c0.1,0.1,0.1-0.1,0.1,0.1
			c0,0.3-0.2,0,0,0.4c0,0.3,0.3,0.4,0.4,0.7C14.7,131.1,15.2,131.4,15.5,131.6z"/>
		<path class="st0" d="M24.7,134.4C24.8,134.4,24.8,134.4,24.7,134.4c0.2-0.1,0.4,0.1,0.5,0.2c0.2,0,0.3,0.2,0.5,0.2
			c0.1,0,0.1-0.1,0.1,0s0,0-0.1,0.1c-0.1,0.1,0.1,0-0.1,0.1c-0.2,0-0.1,0-0.3,0c-0.4,0,0-0.1-0.4-0.2c-0.2-0.1-0.4-0.2-0.5-0.2
			c0,0,0.1,0,0,0c-0.1,0,0-0.1-0.1,0c-0.1,0-0.1-0.1-0.3-0.1c0,0-0.2-0.1-0.2-0.1c-0.2,0.2-0.1,0.2-0.2,0.2c-0.1,0-0.1-0.1-0.1-0.1
			c-0.2-0.1,0.1-0.1,0.1-0.1c0.1-0.1,0,0,0.1-0.1c0.1,0,0,0,0.1,0c0.2-0.1,0.3,0,0.5,0C24.5,134.3,24.6,134.3,24.7,134.4z"/>
		<path class="st0" d="M25,138c0-0.2-0.3-0.4-0.4-0.3c0,0.1-0.2,0.1-0.1,0.2c0,0,0,0,0,0s0,0,0,0c0,0-0.1,0.1-0.1,0
			c-0.2-0.1,0-0.2-0.2-0.2c0,0,0,0,0,0c0,0,0.1,0,0,0c-0.2,0-0.2,0.1-0.3,0c0,0-0.1-0.1-0.1-0.1c0,0,0.1,0,0,0c-0.1,0-0.1,0-0.1-0.1
			c0,0,0-0.1,0-0.1c0,0-0.2,0-0.2,0c-0.1-0.1,0.1-0.1-0.1-0.1c-0.2,0.1-0.1,0-0.1-0.1c0-0.1,0.1-0.1,0.1-0.2c0-0.1,0,0,0-0.1
			c0-0.1,0,0,0-0.1c0-0.1,0,0,0-0.1c-0.1,0-0.1,0-0.2-0.1c-0.2,0-0.1,0-0.1-0.1c-0.1,0,0-0.1-0.1-0.1c0-0.1-0.1-0.1-0.1-0.2
			c0,0.1-0.1-0.1-0.1-0.1c0,0,0,0,0,0c0-0.1,0,0-0.1-0.1c0,0,0.1,0,0,0c-0.1,0-0.1-0.2,0-0.1c0,0.1,0.1-0.1,0.1-0.1
			c0,0.1,0,0.1,0,0.1c0.1,0,0-0.1,0.1-0.1c0,0,0,0.1,0,0c0-0.1,0-0.1,0.1-0.1c0.1,0,0.2,0,0.4,0c0.4,0,0.7,0.1,0.6,0.5
			c0,0.2-0.1,0.4-0.1,0.5c0,0.1,0.1,0.1,0,0.2c0,0.1,0.2,0.2,0.3,0.3c0.2,0.3,0.4,0.2,0.6,0c0.2-0.1,0.3,0.1,0.5,0.2
			C25.3,137.8,25.2,138.1,25,138z"/>
		<path class="st0" d="M26.5,136.8c-0.3,0.1-0.2,0.3-0.6,0.3c0,0.2-0.1,0-0.3,0.2c0-0.1-0.1,0-0.1,0.1c0,0.1,0,0,0,0.1
			c0,0.1,0.1,0,0,0.1c-0.1,0-0.1,0-0.1,0s0.1-0.1,0,0c-0.3,0.2-0.1,0.1-0.2,0.4c-0.2-0.1,0,0.2-0.2,0.1c-0.1,0.3,0.2,0,0,0.6
			c0.2,0.2-0.1,0.4-0.2,0.6c-0.1,0.1-0.1,0.2-0.2,0.3c-0.1,0-0.2,0.1-0.2,0.2c0,0,0,0,0,0c0.1,0.1-0.2,0.1-0.2,0.2
			c0,0.1,0,0.2,0.1,0.2c0.1,0.1,0.1,0.1,0.1,0.1s0,0.1,0,0c0-0.2,0.2,0,0.1,0.1c-0.1,0.2-0.3,0.2-0.4,0.4c0.1,0.1,0.1,0,0.1,0.1
			c0,0.1,0,0,0,0.1c0,0.1,0.1,0,0,0.1c-0.1,0,0,0.1,0,0.1c0,0,0,0,0.1,0c0.1,0.1,0.1,0.1,0.2,0.3c0.1,0.1,0.1,0.2,0.2,0.3
			c0,0,0.1,0.1,0.1,0.1c0,0-0.1-0.1,0,0c0.1,0.1,0,0,0.1,0.1c0,0.2,0.1,0.1,0.1,0.3c0.1,0.2,0.2,0.3,0.3,0.5
			c-0.1,0.1,0.1,0.1,0.1,0.2c-0.1,0.1,0.1,0.2,0.1,0.3c0.1,0.1,0.1,0.2,0.2,0.3c0.1,0.1,0.1,0.1,0.2,0.1c0.1,0,0.1,0,0.2,0.1
			c0,0.1,0.2,0.1,0.3,0.2c0.1,0.1,0.2,0.2,0.3,0.2c0.1,0.1,0.1,0.2,0.1,0.3c0,0.1,0.1,0.1,0.1,0.2c-0.1,0.1,0.1,0.2,0,0.4
			c0,0.1,0,0.3,0,0.3c0,0.1,0,0,0,0.1c0,0.1,0,0.1,0,0.2c0,0.1,0,0.3,0,0.4c-0.1,0.2-0.1,0.4-0.1,0.6c0,0.1-0.1,0.3-0.1,0.4
			c0,0,0-0.1,0,0c0,0.1,0.1,0,0,0.1c-0.1,0.1,0,0-0.1,0.1c-0.1,0.1,0,0.3,0,0.4c0,0.2-0.1,0.4-0.1,0.5c0,0.1,0,0.2-0.1,0.3
			c0,0.2-0.1,0.2-0.2,0.3c-0.1,0.1-0.1,0.2-0.1,0.4c-0.1-0.1-0.1,0.1-0.1,0.1c0,0.1,0.1,0.1,0.1,0.2c0,0-0.1,0,0,0
			c0.1,0.2,0.1,0,0,0.2c0,0.1,0,0,0,0.1c0,0.1,0,0.1,0,0.1c0,0,0,0,0,0c0,0.1-0.1,0.1-0.1,0.2c0,0.1,0,0.2,0,0.3c0,0,0-0.1,0,0
			c0,0.1,0,0,0,0.1c0,0.1,0,0,0,0.1s-0.1,0,0,0.1c0,0.1,0.1,0.1,0.1,0.1c0,0,0,0,0,0c0,0,0.1-0.2,0.1-0.2c0,0,0-0.1,0-0.1
			c0,0,0-0.2,0-0.2c0,0,0,0,0,0c0,0,0,0,0,0c0.1,0,0.1,0.1,0.1,0.1c0,0.2,0,0.3-0.1,0.5c0,0.1,0.1,0.2,0,0.2c-0.1,0,0,0-0.1-0.1
			c0,0,0-0.1,0,0c-0.1,0.1-0.1,0.1-0.1,0.2c0.1,0.1-0.1,0.1-0.1,0.2c0,0.1-0.1,0.2-0.2,0.2c0,0.1,0.1,0.1,0.2,0.1c0,0,0.1-0.3,0,0
			c-0.2,0.4-0.1,0.1,0,0.3c0,0.1-0.1,0,0,0.1c0,0.1,0.1,0,0.1,0.1c0,0,0,0,0,0c0,0.1,0,0,0,0.1c0,0.1,0,0.1,0,0.1s0.1,0,0,0.1
			c0,0.2-0.1,0-0.1,0.3c0,0.1-0.1,0.2,0.1,0.3c0.1,0.1,0,0,0.1,0.1c0.1,0.2,0,0.3,0.1,0.4c0.5,0.4,0.7,0.8,1.4,0.8
			c0.1,0,0.2,0,0.3,0c0,0,0,0.1,0,0c0.1-0.1,0-0.1,0.1-0.1c0.1,0,0.3,0,0.3-0.2c-0.3-0.1-0.2,0-0.4-0.1c0.1-0.1-0.1-0.1-0.2-0.2
			c0,0-0.2-0.1-0.2-0.2c0,0,0,0,0,0s0,0,0-0.1c0-0.1,0-0.1,0-0.2c0-0.1-0.1-0.3-0.1-0.4c0.1-0.2,0.3-0.2,0.4-0.3c0,0-0.1,0.2,0,0
			c0.1-0.3,0-0.2,0.1-0.3c0.1-0.1,0.2-0.1,0.3-0.2c0-0.1,0.2-0.1,0.1-0.2c0-0.1-0.2-0.2-0.2-0.2c-0.2,0-0.3-0.2-0.2-0.4
			c0.2-0.1,0.3-0.2,0.4-0.3c0.1-0.1,0.1-0.3,0.2-0.4c0-0.2-0.1-0.1-0.1-0.3c-0.1,0,0-0.3,0-0.3c0,0-0.1,0,0,0c0.1-0.1,0.1,0,0.2,0
			c0.2,0,0.3-0.1,0.4-0.2c0-0.6,0.1-0.3,0.4-0.4c0.1,0,0.1,0,0.1,0c0.1,0,0.1-0.1,0.1-0.1c0.2,0,0.4-0.1,0.5-0.3
			c0.3-0.6-0.1-0.3,0-0.5c0.1-0.1,0-0.2-0.1-0.3c0,0-0.1,0-0.2-0.1c0,0,0,0,0,0c0.2-0.1,0.3,0.2,0.5,0.2c0.2,0,0.5,0.1,0.6-0.2
			c0.1-0.1,0.2-0.2,0.3-0.3c0.1-0.1,0-0.1,0.1-0.2c0.1,0,0,0,0.1-0.1c0.1-0.1,0.2-0.2,0.3-0.3c-0.1,0,0.2-0.2,0.1-0.3
			c0.2-0.3,0.3-0.2,0.3-0.6c0,0,0,0.1,0,0c0.1-0.1,0-0.2,0-0.2c0,0,0-0.1,0-0.1c0.1-0.2,0.4-0.4,0.7-0.5c0.5-0.3,0.6,0.1,1.1-0.4
			c0-0.1-0.1,0,0-0.1s0,0,0.1-0.1c0.1-0.1,0.1-0.1,0.2-0.2c0-0.1,0-0.1,0-0.1c0-0.1,0-0.2,0-0.3c0-0.1,0.1-0.1,0.1-0.2
			c0-0.1,0,0.1,0-0.1c0-0.1,0.1-0.2,0.1-0.2c0-0.1-0.1-0.3,0-0.4c0-0.1,0-0.2,0-0.3c0-0.1,0.1-0.1,0.2-0.2c0-0.1,0.2-0.1,0.2-0.2
			c0.2-0.2,0.3-0.3,0.5-0.5c0,0,0.1-0.1,0.1-0.1c0,0-0.1,0,0-0.1c0.1-0.1,0.1,0,0.1-0.1c0-0.2,0-0.3-0.1-0.5c0-0.1,0-0.1-0.1-0.2
			c-0.1-0.1-0.2,0-0.3-0.1c-0.3-0.1-0.4-0.4-0.7-0.5c-0.1,0-0.3,0-0.4,0c-0.1-0.1-0.3-0.1-0.4-0.1c-0.1,0-0.1,0.1-0.2,0.1
			c-0.2-0.1,0-0.2-0.3-0.3c-0.2-0.1-0.5-0.3-0.7-0.1c-0.1,0.1-0.1,0.1-0.2,0.1c-0.3,0.1-0.3,0-0.4-0.2c-0.1-0.1,0-0.1,0.1-0.2
			c0.5-0.4,0-0.4-0.1-0.8c-0.1-0.2-0.2-0.3-0.3-0.4c-0.1,0-0.2-0.2-0.3-0.1c-0.2-0.1-0.5,0-0.7-0.1c-0.4-0.1-0.6-0.8-1-0.6
			c0,0,0,0,0,0c0,0,0,0,0,0c0,0,0,0,0,0c0-0.2-0.2-0.2-0.3-0.3c-0.1,0-0.1,0-0.2-0.1c0,0,0.1,0,0,0c-0.2,0-0.1,0-0.2,0
			c0,0,0,0-0.1,0.1c0,0,0.1,0-0.1,0c-0.1,0-0.1,0-0.1,0c-0.3,0-0.2-0.2-0.5-0.1c-0.3,0.1,0-0.4-0.8-0.1c-0.2,0.1-0.1,0.2,0,0.2
			c0,0.2-0.2,0.3-0.2,0.1c0-0.2,0.2-0.3,0-0.4c0,0-0.1,0,0,0C26.5,137,26.7,136.9,26.5,136.8z"/>
		<path class="st0" d="M29.6,153c0.2-0.1,0.2-0.2-0.1-0.2c-0.1,0.1-0.2,0.1-0.3,0.2c-0.2,0.1-0.1-0.1,0-0.1c0-0.1-0.2-0.1-0.2,0
			c0,0,0,0.1-0.1,0.1c-0.1,0-0.2,0-0.1,0.1c0.1,0,0.1,0,0.1,0c0,0,0.3,0,0.3,0C29.4,153.2,29.5,153.1,29.6,153z"/>
		<path class="st0" d="M28.3,150.3c0.1-0.1,0-0.2-0.1-0.2C28.2,150.2,28.3,150.2,28.3,150.3C28.2,150.3,28.3,150.3,28.3,150.3z"/>
		<path class="st0" d="M31.6,139.7c0.1,0,0.2,0,0.3,0.1c-0.1,0.2-0.3,0.3-0.4,0.2C31.3,139.8,31.5,139.9,31.6,139.7z"/>
		<path class="st0" d="M25.9,135.4c0.1,0,0.4,0,0.5,0c0,0,0.1,0.1,0.1,0.1c0,0-0.1,0,0,0c0.1,0,0.1,0,0.1,0c0.1,0,0.1-0.1,0.2-0.1
			c0.1,0,0.6,0,0.5-0.1c-0.1-0.1,0-0.1-0.2-0.1c-0.2,0-0.3,0-0.3,0c0-0.1-0.2-0.1-0.2-0.1c-0.1,0-0.1,0-0.2,0
			c-0.1,0.1-0.2,0-0.1,0.1c0.1,0,0,0.1,0,0.1c0,0,0.1,0,0,0C26,135.4,25.9,135.2,25.9,135.4z"/>
		<path class="st0" d="M25.2,135.5c0-0.1-0.1,0-0.2,0c-0.1,0-0.2-0.1-0.2,0C25,135.6,25.5,135.7,25.2,135.5z"/>
		<path class="st0" d="M39.2,122.4c0.1-0.1,0.2-0.2,0.3-0.1c0.2-0.2,0.5-0.3,0.2-0.6c-0.2-0.3-0.2-0.3-0.6-0.3
			c-0.1,0.1-0.3,0.2-0.4,0.1c0,0-0.3-0.1-0.3-0.1c-0.2,0.2-0.2,0.2-0.2,0.2c-0.1,0.1-0.4-0.2-0.4-0.2c-0.3-0.2-0.7,0.2-0.3,0.3
			c0.4,0,0,0.2-0.1,0.3c0.2,0.1,0.4,0.2,0.2,0.4c0.4-0.1,0.7,0.2,1,0.1c0.1,0,0,0.2,0.2,0C39.2,122.4,39.2,122.4,39.2,122.4z"/>
		<path class="st0" d="M41.6,126.4c-0.2,0-0.7,0.3-0.9,0c0,0,0.2-0.1,0.2-0.2c-0.1-0.3-0.3-0.2-0.1-0.5c0,0,0.2-0.1,0.2-0.1
			c0.1,0,0,0.1,0.1,0c0.1-0.1,0.2-0.3,0.2-0.3s0.1-0.1,0.2,0c0.1,0.1,0.2-0.1,0.2,0.1c0,0.4,0.1,0.2-0.1,0.3
			C41.8,126.2,41.7,126.1,41.6,126.4z"/>
		<path class="st0" d="M43.4,126.7c0.2-0.3-0.1-0.2,0-0.3c0.1,0,0.1-0.3,0-0.3c0,0-0.2,0.1-0.3,0c0-0.2-0.1-0.4-0.2-0.6
			c-0.3-0.2-0.1-0.1-0.3-0.3c-0.3-0.3,0.3-0.5,0-0.7c-0.1,0-0.3,0-0.4,0l0-0.2c0.2,0,0.2-0.1,0-0.1c-0.1,0-0.3-0.1-0.4,0.1
			c0,0-0.1,0.2-0.1,0.2c-0.1,0-0.1,0.1-0.1,0c0-0.1,0.1-0.1,0.1-0.2c0,0,0-0.1,0,0c-0.1,0-0.2,0.1-0.2,0.1c-0.2,0.2,0.2,0.3,0.3,0.4
			c0.1,0.1-0.5,0.6,0.1,0.4c0.3,0.1-0.1,0.2,0,0.3c0,0,0.2,0.1,0.3,0.1c0.2-0.1,0,0,0.2,0.2c0.1,0.4-0.2,0.3-0.3,0.4
			c-0.1,0.1,0.1,0,0,0.2c-0.4,0.3,0.1,0.1,0.3,0.3c0.1,0.1-0.2,0.1-0.2,0.1c0,0.1-0.2,0.3-0.3,0.3c0.2,0.2,0.2-0.1,0.5-0.1
			c0,0,0.1-0.1,0.2-0.1c0.1,0.1,0.4-0.1,0.5-0.1C43.2,126.8,43.3,126.8,43.4,126.7z"/>
		<path class="st0" d="M42.6,124.1c-0.1-0.1-0.3-0.1-0.2,0.1c-0.1,0.1,0,0.1,0.1,0.1C42.5,124.2,42.5,124.1,42.6,124.1z"/>
		<path class="st0" d="M42.8,123.9c0-0.2,0.1-0.2,0.2-0.3c0-0.1-0.2,0.1-0.3,0.1C42.6,123.7,42.8,123.9,42.8,123.9z"/>
		<path class="st0" d="M41.6,123.2c0-0.1,0.1-0.1,0.1-0.1c0-0.1-0.3-0.1-0.3,0c0.1,0.1,0.1,0,0.1,0.2c0,0,0.1,0.2,0.1,0.1
			C41.6,123.3,41.6,123.2,41.6,123.2z"/>
		<path class="st0" d="M42.6,131.2c-0.5,0.1-0.7-0.3-0.9,0c0.1,0.1-0.2,0.3-0.3,0.3c-0.6,0.2-0.4,0.7-0.6,1
			c-0.1,0.1-0.3,0.3-0.4,0.4c0,0-0.2-0.1-0.2,0c-0.1,0.1-0.3,0.2-0.2,0.4c-0.2,0.1-0.3,0.5-0.5,0.7c-0.1,0.1-0.4,0.3-0.3,0.6
			c-0.1,0.4,0.3,0.4,0.1,1.1c0,0.1,0,0.2-0.1,0.4c-0.1,0.2-0.1,0.1-0.1,0.2c0,0.1,0-0.1,0,0.1c0.1,0.5,0.2,0.7,0.4,1
			c0.1,0,0.3,0.2,0.4,0.3c0.1,0.3,0.4,0.4,0.5,0.5c0.2,0.2,0.4,0.6,0.7,0.6c0.1,0.1-0.1,0.1,0.1,0.1c0.2,0,0.4,0,0.4,0
			c0.4-0.3,0.1-0.2,0.4-0.2c0.3,0,0.6,0.1,0.8,0.1c0.2-0.1,0.1,0,0.3-0.1c0.3-0.2,0.3-0.1,0.6-0.1c0.2-0.1,0.3-0.1,0.3-0.1
			c0.6-0.1,0.3,0.5,0.7,0.5c0.4,0,0.7-0.1,0.8,0.2c-0.1,0.2-0.1,0.4-0.2,0.7c0,0.1,0.1,0,0,0.1c-0.1,0.1-0.2,0.2,0,0.3
			c0.1,0,0.3,0.3,0.3,0.4c0.3,0.2,0.4,0.4,0.4,0.8c0.1,0.3,0.3,0.6,0.3,0.9c0.1,0,0.1,0.5,0.1,0.5c0.1,0.2-0.2,0.4-0.2,0.3
			c-0.1,0.2-0.1,0.5-0.3,0.8c0,0.5,0.2,0.7,0.5,1c0.2,0.2,0.1,0.4,0.1,0.6c-0.1,0.2,0.1,0.2,0.1,0.4c-0.1,0.6,0.1,0.5,0.3,0.9
			c0.1,0.1,0.2,0.3,0.3,0.5c0.1,0.1,0.2,0.4,0.2,0.5c0,0,0.1,0,0,0.1c-0.1,0.1-0.1,0.1-0.1,0.1c-0.1,0.5,0.4,0.4,0.7,0.4
			c0.2,0,0.3-0.2,0.4-0.2c0.4,0,0.3,0.1,0.6,0.1c0.2-0.1,0,0.1,0.3-0.1c0.5-0.4,0.5-0.2,0.8-0.8c0.4-0.6,0.5-0.5,0.5-1.1
			c0.1-0.3,0.3-0.3,0.5-0.4c0.2-0.2,0.3-0.4,0.1-0.5c-0.1-0.1,0-0.2-0.1-0.3c-0.1-0.2-0.1-0.3,0-0.4c0.2-0.2,0.4-0.4,0.6-0.5
			c0.4-0.2,0.8-0.2,0.7-0.7c0-0.2,0-0.4,0-0.5c0.1-0.1-0.1-0.2,0-0.3c0.1-0.2-0.2-0.2-0.2-0.4c-0.1-0.2-0.1-0.4-0.1-0.6
			c-0.3-0.4,0.1-0.5,0.2-0.8c0.1-0.1,0.2-0.3,0.3-0.4c0.1-0.2,0.3-0.4,0.4-0.5c0.2-0.3,0.6-0.4,0.8-0.6c0.2-0.2,0.2-0.3,0.4-0.6
			c0.1-0.1,0.2-0.2,0.2-0.4c0.1-0.1,0.1-0.1,0.1-0.2c0.1-0.1,0.3-0.3,0.3-0.6c0,0,0,0.1,0,0c0.1-0.2,0-0.1,0-0.3
			c0-0.2-0.2-0.1-0.2-0.1c0,0,0.1,0,0,0c-0.1,0,0,0-0.1,0c-0.1,0-0.1,0-0.3,0.1c-0.2,0-0.2,0-0.4,0c-0.2,0.1-0.2,0.1-0.3,0.1
			c-0.2,0.1-0.4,0.1-0.5-0.1c-0.1-0.2-0.1-0.4-0.3-0.5c-0.1-0.2-0.2-0.2-0.3-0.3c0,0,0,0,0,0c-0.1-0.1-0.2-0.1-0.2-0.1
			c-0.1,0-0.2-0.2-0.2-0.4c0-0.1-0.1-0.1-0.1-0.2c0-0.1,0-0.1,0-0.2c-0.1-0.1-0.2-0.1-0.3-0.2c-0.1-0.1,0-0.3,0-0.4
			c0-0.1-0.1-0.2-0.1-0.4c-0.1-0.1-0.2-0.2-0.3-0.2c-0.1-0.1,0-0.2-0.1-0.3c0,0-0.2-0.2-0.2-0.3c-0.1-0.2-0.2-0.4-0.3-0.6
			c0-0.1-0.2-0.2-0.2-0.2c-0.1,0-0.1-0.3,0.1-0.2c0,0,0.1,0.2,0.1,0.2c0,0.1,0,0.2,0.1,0.2c0.2,0,0.1-0.3,0.2-0.4
			c0-0.5-0.2-0.3-0.5-0.3c-0.1-0.2-0.6-0.1-0.7,0c-0.2,0.1-0.4-0.1-0.5-0.1c-0.2-0.1-0.4,0.1-0.6-0.1c-0.1-0.1-0.2,0-0.3-0.1
			c0,0,0,0,0,0c-0.2,0-0.1,0-0.1-0.1c-0.1-0.1,0-0.1-0.1-0.1c-0.2,0-0.5,0-0.6,0.3c0.1,0.3-0.1,0.4-0.4,0.4c-0.2-0.3-0.6,0-0.7-0.3
			c0-0.1-0.2-0.2-0.2-0.2c-0.1-0.1-0.1-0.1-0.2-0.1c-0.1,0-0.2,0-0.2,0c-0.2-0.1-0.2-0.1-0.4-0.2c-0.1-0.1-0.2,0-0.2-0.1
			c0.1-0.2,0.2-0.2,0.2-0.3c0-0.2-0.1-0.1-0.2-0.2c0,0,0-0.2,0.1-0.2c0.1-0.1-0.2-0.1-0.2-0.2c0,0-0.1,0-0.1,0
			c-0.1,0.1-0.4,0-0.6,0.1c-0.1,0-0.1,0-0.2,0c-0.1,0.1,0.1,0-0.1,0.1c-0.2,0-0.2,0-0.3,0c-0.1,0-0.1,0-0.2,0.1
			c-0.2,0-0.4,0-0.6,0.1c-0.1,0.1-0.3,0.1-0.4,0.2C42.7,131.2,42.7,131.3,42.6,131.2z"/>
		<path class="st0" d="M45.3,130.1c0-0.1,0.1-0.1,0-0.1c0-0.1,0-0.4-0.1-0.4c-0.1,0-0.1,0-0.1,0.1c0,0-0.1,0-0.1,0c0,0,0,0,0,0
			c0.1,0.1,0.1,0.1,0.1,0.2c-0.1,0.1,0,0.1,0,0.2c0,0,0,0,0,0C45.1,130.2,45.2,130.3,45.3,130.1C45.3,130.2,45.3,130.2,45.3,130.1z"
			/>
		<path class="st0" d="M43.9,130c-0.2,0-0.2,0.1-0.1,0.2c0,0,0.1,0,0.1-0.1C43.9,130,43.9,130,43.9,130z"/>
		<path class="st0" d="M48.6,131.2c0.1,0,0.4,0.1,0.5,0c0,0,0.1,0,0,0c-0.1-0.1-0.2,0-0.4-0.1C48.6,131.2,48.5,131.1,48.6,131.2z"/>
		<path class="st0" d="M54.1,145.7c0-0.1,0-0.3,0.1-0.4c0-0.3,0.2-0.5,0.3-0.8c-0.1-0.1,0.1-0.4,0.1-0.5c0-0.1,0-0.4,0-0.6
			c0-0.1,0.1-0.2,0.1-0.1c0.3,0,0-0.3,0-0.4c0-0.1,0,0,0-0.1s0.1,0,0-0.1c-0.2-0.1-0.1-0.1-0.2-0.2c-0.2,0.1-0.1,0.2-0.2,0.4
			c-0.3,0.2-0.2,0.2-0.4,0.4c-0.2,0.1-0.4,0.1-0.5,0.3c0,0.1,0.1,0,0,0.1c-0.1,0.1-0.1,0.1-0.1,0.1c0,0,0,0.1,0,0.2
			c0,0.2,0.1,0.3,0,0.5c-0.4,0.3-0.2,0.7,0,1.1C53.5,145.9,53.9,145.7,54.1,145.7z"/>
		<path class="st0" d="M56,144.7c0.1,0.1-0.1,0.1-0.1,0C56,144.7,56,144.7,56,144.7z"/>
		<path class="st0" d="M76.2,125.7c0,0.1,0.1,0.3,0.1,0.3c0,0.1,0.1,0,0,0.1c0,0.1,0,0.2,0,0.2c0,0-0.1,0,0,0.1c0,0,0,0.1,0,0.1
			c0.1,0.2,0.1,0.2,0.1,0.3c0.1,0.2-0.1,0.1,0.1,0.3c0.2,0.4-0.1,0.1-0.2,0.3c0,0-0.1,0.2-0.1,0.3c0,0-0.1,0,0,0
			c0,0.1,0.1,0.1,0.1,0.2c0,0,0.1,0,0,0c-0.1,0-0.1,0-0.1,0c-0.1,0.1-0.2,0.4-0.2,0.2c-0.1-0.2-0.1-0.1,0-0.3c0,0,0-0.1,0-0.1
			c0-0.1,0,0,0-0.1c0-0.1,0,0,0-0.1c0,0,0-0.1,0-0.1c0-0.1,0-0.1,0-0.1c0,0-0.1,0,0,0c0.1-0.2,0,0,0.1-0.1c0-0.1,0-0.4,0-0.5
			c0.1-0.3-0.1-0.2-0.1-0.4c0,0,0,0.1,0,0c0-0.1,0,0,0-0.1c0,0,0,0,0,0c-0.1-0.2,0.1-0.1,0.2-0.2c0-0.2,0-0.1,0-0.1
			C76.1,125.8,76,125.7,76.2,125.7z"/>
		<path class="st0" d="M77.2,117.8C77.2,117.8,77.2,117.9,77.2,117.8c0.1,0.1,0.1,0,0.2,0c0,0-0.1,0,0,0c0.1,0.1,0.1,0.1,0.2,0.1
			c0.2,0,0.4-0.1,0.5-0.1c-0.1,0,0.1-0.1,0-0.1c0-0.1,0,0,0-0.1c-0.1,0-0.4,0-0.4-0.1c-0.1-0.1,0-0.1-0.1-0.1c-0.2,0-0.2,0-0.4,0
			C76.8,117.7,77,117.8,77.2,117.8z"/>
		<path class="st0" d="M76.5,117.5c-0.1-0.1-0.1,0-0.2,0c-0.1,0-0.1,0-0.1,0c0,0,0.1,0.1,0,0c-0.1-0.1,0.1-0.1-0.1-0.1
			c-0.2,0-0.2,0-0.2,0c-0.2,0,0.1,0.2-0.1,0.1c-0.2-0.1-0.1,0-0.2-0.1c-0.1-0.1-0.1-0.1-0.2-0.1c-0.1,0.1-0.4,0.2-0.4,0.3
			c0.1,0.1,0,0.3,0.3,0.3c0.2,0,0.2,0.1,0.3,0c0.1-0.1,0.1-0.1,0.2,0c0.1,0,0,0.1,0.1,0c0.1-0.1,0.1,0,0.2,0c0.1-0.1,0.3,0,0.4,0
			c0.2-0.2,0.2,0,0.3-0.2c0.1,0,0-0.1,0-0.1C76.7,117.6,76.7,117.7,76.5,117.5C76.5,117.5,76.5,117.5,76.5,117.5z"/>
		<path class="st0" d="M76.3,118.4c-0.1,0.1-0.2-0.1-0.3-0.1c-0.1,0-0.2,0-0.2,0.1c-0.1,0.2,0.2,0.1,0.2,0.1c0.1,0,0.3,0.1,0.3,0
			c0-0.1,0.1,0.1,0-0.1S76.3,118.4,76.3,118.4z"/>
		<path class="st0" d="M75.8,118.3c0.2-0.2-0.3-0.1-0.2,0C75.6,118.4,75.7,118.3,75.8,118.3z"/>
		<path class="st0" d="M74.5,117.5c0,0,0.1,0.3,0.2,0.1c0,0,0.1,0,0,0C74.7,117.5,74.5,117.5,74.5,117.5z"/>
		<path class="st0" d="M65.4,114.7c0-0.1-0.2,0-0.2,0c0,0-0.1,0.1-0.2,0.1c-0.1,0-0.2,0.1-0.3,0.1c0,0,0-0.1,0,0
			c-0.1,0.1,0.1-0.1-0.1,0.1c-0.2,0.1-0.2,0.1-0.2,0.2c0,0-0.1,0,0,0c0.1,0.1,0,0,0.1,0.1c0.1,0,0.1,0,0.1,0c-0.1,0.1-0.2,0-0.3,0
			c-0.1,0-0.1,0-0.1,0s0,0,0,0.1c0,0.1,0.2,0.1,0.2,0.1c0.2,0.2,0.4-0.1,0.5-0.1c0,0.4,0.3,0.5,0.7,0.5c0.2,0,0.5,0.1,0.6,0
			c0,0,0,0,0,0s0.1,0,0,0c0-0.1,0-0.1,0-0.1c-0.1,0,0-0.1,0-0.1c0.2-0.2-0.1-0.4-0.3-0.3c0,0-0.1,0-0.1,0c0-0.1,0,0-0.1-0.1
			c-0.1-0.1-0.1,0-0.1-0.1c0,0,0.1,0.1,0,0c-0.1-0.1-0.1-0.2,0-0.2c0,0,0.1,0,0,0c-0.1-0.1,0-0.1-0.1-0.1
			C65.5,114.9,65.5,114.8,65.4,114.7z"/>
		<path class="st0" d="M66.3,116.4c0.2,0,0.3-0.1,0.5-0.1c0.3,0,0.3,0,0.5,0c0.1-0.1,0.1,0,0.1,0c0.1,0,0.1,0,0.1,0
			c0-0.1,0.1-0.1-0.1-0.2c-0.1-0.1-0.3-0.2-0.4-0.1c-0.1,0-0.1,0.1-0.1,0c0,0-0.1,0,0,0c0-0.1,0-0.1,0-0.1s0.1,0.1,0,0
			c-0.1-0.1-0.1-0.1-0.1-0.1c-0.2-0.1-0.3,0.2-0.3,0.3c-0.1,0-0.2,0.2-0.3,0.2C66.1,116.4,66.1,116.4,66.3,116.4z"/>
		<path class="st0" d="M64.1,114.8c0,0,0.3,0,0.2,0c0-0.1,0.1,0,0-0.1c-0.1,0-0.1-0.1-0.1-0.1C64.2,114.7,64,114.7,64.1,114.8
			C64.1,114.8,64.1,114.8,64.1,114.8z"/>
		<path class="st0" d="M61.6,114.9c0,0,0.2,0,0.1-0.1C61.7,114.9,61.8,114.9,61.6,114.9C61.4,114.8,61.4,114.9,61.6,114.9z"/>
		<path class="st0" d="M57.8,115c0,0,0.1,0,0.1,0c0.1,0-0.2,0,0.1,0c0.2,0,0.2,0,0.2,0c0,0.1,0.1,0,0.1-0.1c0-0.1,0.1,0,0-0.1
			c-0.1-0.1,0-0.1-0.1-0.1c-0.1,0,0-0.1-0.1,0c-0.1,0-0.1,0.1-0.2,0.1C57.8,114.8,57.5,114.9,57.8,115z"/>
		<path class="st0" d="M57.2,115.1c0.2,0,0.3-0.1,0.3-0.2c0,0,0.1,0,0,0c-0.1,0,0.1-0.1-0.1,0c-0.2,0-0.1,0-0.2,0
			C56.6,115,56.9,115.2,57.2,115.1z"/>
		<path class="st0" d="M56.3,115.4c0.1,0,0.3-0.1,0.4-0.1c0-0.1,0.1-0.1,0-0.1c-0.2,0-0.4,0.1-0.5,0.1c-0.1,0-0.1-0.1-0.1,0
			C56,115.4,56.2,115.4,56.3,115.4z"/>
		<path class="st0" d="M54.6,115.2C54.6,115.2,54.5,115.2,54.6,115.2c0.1,0,0.1,0,0.1,0c0.1,0,0,0,0.1,0s0.1,0.1,0.2,0
			c0.1-0.1,0.1,0,0.1-0.1c0-0.1,0.1,0,0-0.1c-0.1,0-0.1-0.1-0.1-0.1c-0.2,0-0.2,0.1-0.4,0.1c-0.1,0-0.1,0.1-0.1,0c0-0.1,0.1,0,0-0.1
			s-0.1,0.1-0.2,0c-0.1-0.1,0.1-0.1-0.1-0.1c-0.1,0-0.1,0-0.2,0.1c-0.1,0-0.3,0-0.4,0.1c-0.1,0-0.1,0-0.1,0.1c0.1,0,0.1,0,0.2,0
			s0.1,0.1,0.1,0c0-0.1,0.3,0,0.2,0c-0.5,0,0.2,0.2,0.2,0.2c0,0-0.1,0,0,0C54.5,115.5,54.5,115.3,54.6,115.2z"/>
		<path class="st0" d="M56,114.7C56.1,114.7,56,114.8,56,114.7c0-0.1,0.3-0.2,0.3-0.2c0.2-0.1,0.3,0.2,0.4,0.2c0,0,0-0.1,0,0
			c0,0.1,0,0.2,0,0.2c-0.1,0,0.1,0-0.1,0c-0.2,0.1-0.4,0.1-0.7,0.1c-0.1,0-0.2,0.2-0.3,0.2c-0.1,0-0.1,0.1-0.1,0
			c-0.1-0.1,0.1-0.2,0.1-0.3C55.6,114.7,56,114.8,56,114.7z"/>
		<path class="st0" d="M48.6,115.8c0.1,0,0.2-0.1,0.3-0.1c0.1,0,0.1,0,0.1,0s0,0.1,0.1,0c0.1-0.1,0.1-0.1,0.1-0.1
			c0.1,0.2,0.4-0.3,0.3-0.3c-0.1-0.1-0.5-0.1-0.6-0.1c-0.1,0-0.5,0.2-0.5,0.1c0.1-0.1-0.1-0.1-0.2-0.1c-0.1,0.1-0.2,0-0.2,0
			c-0.1-0.2-0.2,0-0.2,0.1c-0.1,0.1-0.5,0.1-0.3,0.2c0.2,0.2,0.3,0.1,0.5,0.1c0.1,0,0.1-0.1,0.1-0.1c0,0.1-0.1,0.1,0,0.2
			C48.2,115.7,48.4,115.7,48.6,115.8z"/>
		<path class="st0" d="M47.1,115.5c0-0.1-0.2,0-0.2,0c-0.1-0.1-0.2,0.1-0.2,0.1c0.1,0.2,0.1,0.4-0.1,0.1c-0.1-0.1,0-0.2-0.1-0.2
			c-0.1,0.2-0.5,0.1-0.3,0c0,0-0.1,0-0.2,0c-0.2,0-0.3,0-0.4,0.1c-0.1,0-0.1,0-0.1,0.1c0,0.1-0.1,0,0,0.1c0.3,0.2,0,0.4,0.6,0.5h0.1
			c-0.2,0.2-0.1,0.3,0,0.5c0.1,0.1,0.2,0,0.2,0.1c0.1,0.1,0.2,0.1,0.3,0.2c0.1,0.1,0,0.1,0.1,0.1c0.2,0,0.2-0.3,0.2-0.4
			c0,0,0.1-0.1,0.2-0.1c0-0.1,0.2-0.2,0.1-0.2c0,0,0-0.1,0-0.1c0.1-0.1,0-0.1,0.1-0.1c0.1-0.1,0-0.1,0.1-0.1c0.1,0,0.1,0,0.1,0
			c0.1,0,0-0.1,0.1,0c0.1,0.1,0.1,0.2,0.1,0.2c0.1,0.2-0.1,0.2,0,0.2c0.1,0.2,0.3,0,0.4,0.2c0,0.1-0.1,0.1,0,0.1
			c0.1,0,0.2-0.1,0.2-0.1c0.1-0.1,0.3-0.1,0.3-0.2c-0.1-0.2-0.2-0.1-0.3-0.1c-0.1-0.1,0-0.2-0.1-0.2c-0.1,0.1-0.4-0.3-0.4-0.3
			c-0.1,0-0.4-0.2-0.5-0.2C47.4,115.7,47.2,115.7,47.1,115.5z"/>
		<path class="st0" d="M59,116.9c-0.1,0-0.5-0.1-0.6,0c0,0.1,0.1,0,0,0.1c-0.1,0.1,0.2,0.1-0.1,0.1c-0.6,0.1-0.9,0-1.3,0.2
			c-0.3,0.1-0.8,0.4-1,0.6c-0.3,0.3-0.4,0.6-0.6,1c0,0.2-0.3,0.2-0.3,0.2c0,0.2,0.3,0.2,0.4,0.2c0.6,0.2-0.4,0.4,0.9,0.3
			c0.1,0.1,0.2-0.1,0.1-0.2c-0.1-0.1,0,0-0.1-0.1c-0.1-0.1,0,0.1-0.1-0.1c-0.1-0.1-0.2,0.1-0.1-0.1c0-0.3,0.3-0.5,0.5-0.7
			c0.1,0,0.3-0.4,0.4-0.5c0.1-0.1-0.1-0.1,0.1-0.1c0.2-0.1,0.2-0.1,0.2-0.1c0.2,0,0.5-0.3,0.7-0.3c0.2-0.1,0.4-0.1,0.6-0.2
			c0.1,0-0.1,0.1,0.1,0c0.2-0.1,0.2-0.1,0.2-0.1s0.1,0.2,0.1-0.1S59,116.9,59,116.9z"/>
		<path class="st0" d="M54.5,120.5l0.2-0.1c-0.1-0.1,0-0.1-0.1-0.1c-0.1,0-0.2-0.1-0.2,0C54.2,120.4,54.4,120.5,54.5,120.5z"/>
		<path class="st0" d="M51.3,127C51.3,127,51.3,127,51.3,127C51.3,127,51.3,127,51.3,127z"/>
		<path class="st0" d="M84.7,123.1C84.7,123.1,84.7,123.1,84.7,123.1L84.7,123.1z"/>
		<path class="st0" d="M49.9,123.3C49.9,123.3,49.9,123.3,49.9,123.3C49.9,123.3,49.9,123.3,49.9,123.3z"/>
		<path class="st0" d="M51.3,121.5C51.3,121.5,51.3,121.5,51.3,121.5L51.3,121.5z"/>
		<path class="st0" d="M84.7,123C84.7,123,84.7,123,84.7,123C84.7,123,84.7,123,84.7,123z"/>
		<path class="st0" d="M84.2,122.1C84.2,122.1,84.2,122.1,84.2,122.1C84.2,122.1,84.2,122.1,84.2,122.1z"/>
		<path class="st0" d="M84.7,123C84.7,123,84.7,123,84.7,123C84.7,123,84.7,123,84.7,123z"/>
		<path class="st0" d="M79.4,123.4C79.3,123.5,79.3,123.5,79.4,123.4L79.4,123.4z"/>
		<path class="st0" d="M63.2,118C63.2,118,63.2,118,63.2,118L63.2,118z"/>
		<path class="st0" d="M63.2,118.1C63.2,118.1,63.2,118.1,63.2,118.1C63.2,118.1,63.2,118.1,63.2,118.1z"/>
		<path class="st0" d="M63.2,118C63.2,118,63.2,118,63.2,118C63.2,118,63.2,118,63.2,118z"/>
		<path class="st0" d="M63.2,118.1C63.2,118.1,63.2,118,63.2,118.1C63.2,118.1,63.2,118.1,63.2,118.1z"/>
		<path class="st0" d="M63.2,118.1C63.2,118.1,63.2,118.1,63.2,118.1C63.2,118.1,63.2,118.1,63.2,118.1z"/>
		<path class="st0" d="M54.7,133.1C54.7,133.1,54.7,133.1,54.7,133.1C54.7,133.1,54.7,133.1,54.7,133.1z"/>
		<path class="st0" d="M73.5,128.6C73.5,128.6,73.5,128.6,73.5,128.6L73.5,128.6z"/>
		<path class="st0" d="M73.5,128.6C73.5,128.6,73.5,128.6,73.5,128.6C73.5,128.6,73.5,128.6,73.5,128.6z"/>
		<path class="st0" d="M73.5,128.6C73.5,128.6,73.5,128.6,73.5,128.6C73.5,128.6,73.5,128.6,73.5,128.6z"/>
		<path class="st0" d="M66.8,136.7C66.8,136.7,66.8,136.7,66.8,136.7C66.8,136.7,66.8,136.7,66.8,136.7z"/>
		<path class="st0" d="M54.7,133.1C54.7,133.1,54.7,133.1,54.7,133.1C54.7,133.1,54.7,133.1,54.7,133.1z"/>
		<path class="st0" d="M55.9,135.6C55.9,135.6,55.9,135.6,55.9,135.6C55.9,135.6,55.9,135.6,55.9,135.6z"/>
		<path class="st0" d="M55.9,135.6C55.9,135.6,55.9,135.6,55.9,135.6C55.9,135.6,55.9,135.6,55.9,135.6z"/>
		<path class="st0" d="M55.9,135.6C55.9,135.6,55.9,135.6,55.9,135.6C55.9,135.6,55.9,135.6,55.9,135.6z"/>
		<path class="st0" d="M55.9,135.5C55.9,135.5,55.9,135.6,55.9,135.5C55.9,135.6,55.9,135.5,55.9,135.5z"/>
		<path class="st0" d="M54.7,133.1C54.8,133.1,54.8,133.1,54.7,133.1C54.8,133.1,54.8,133.1,54.7,133.1z"/>
		<path class="st0" d="M55.9,135.6C55.9,135.6,55.9,135.6,55.9,135.6L55.9,135.6z"/>
		<path class="st0" d="M54.8,133.1C54.8,133.2,54.8,133.2,54.8,133.1L54.8,133.1z"/>
		<path class="st0" d="M55.9,135.5C55.9,135.5,55.9,135.5,55.9,135.5C55.9,135.5,55.9,135.5,55.9,135.5z"/>
		<path class="st0" d="M55.9,135.5C55.9,135.5,55.9,135.5,55.9,135.5C55.9,135.5,55.9,135.5,55.9,135.5z"/>
		<path class="st0" d="M76.4,128.8c-0.1-0.2-0.4-0.6-0.4-0.1c0,0.1,0,0,0,0.1c-0.2,0.2,0,0.2-0.1,0.2c-0.1,0-0.1,0-0.1,0
			c-0.1,0,0,0.1-0.1,0.1c-0.1,0.1-0.1,0.1-0.1,0.1c0,0.2,0.1,0,0.1,0.1c0,0.1,0,0.2,0,0.2c0.1,0.1,0,0.2,0,0.3c0.1,0.1,0,0.2,0,0.4
			c-0.1,0.1,0,0.1,0,0.1c-0.1,0.1-0.1,0.2-0.2,0.3c-0.1,0.1-0.3,0.2-0.3,0.2c0.1-0.3-0.3,0.1-0.3,0.2c0,0,0,0,0,0c0,0,0.1,0,0,0
			c-0.1,0.1,0,0.1-0.1,0.1c-0.1,0-0.1-0.1-0.2-0.1c-0.2,0.1-0.5,0-0.7,0.3c-0.2,0.1-0.3,0.2-0.4,0.3c0,0,0.1,0.1,0.1,0.2
			c0.1,0-0.1,0.1-0.1,0.2c0,0.1,0,0.2,0.1,0.2c0.1,0,0.1,0,0.2-0.1c0,0-0.1,0.1,0,0c0.1-0.1,0.1-0.2,0.2-0.3c0-0.1-0.2-0.2,0-0.2
			c0,0,0.1,0.1,0.1,0.1c0,0.1,0,0,0,0.1c0,0,0.1,0.1,0.1,0.1c0.1,0,0.1,0,0.1-0.1c0.2,0,0-0.1,0.2-0.1c0.1,0,0.1-0.1,0.2-0.1
			c0.1,0.1,0.2,0.1,0.3,0c0,0,0,0.1,0,0c0.1-0.1,0-0.1,0.1-0.1c0.1-0.1,0-0.1,0.2-0.1c0.2,0,0.2,0.1,0.3-0.1
			c0.1,0.2,0.5-0.2,0.4-0.3c0-0.1,0-0.1,0.1-0.2c0,0,0,0,0-0.1c0-0.1,0,0,0-0.1c0-0.1,0-0.1,0-0.1c0,0,0,0,0-0.1
			c0-0.2,0.3-0.3,0.3-0.5c-0.1-0.3-0.2-0.2-0.2-0.3c0-0.2-0.3-0.1-0.2-0.2c0,0,0.1,0,0.1,0c0-0.1-0.3-0.2-0.1-0.2c0,0,0,0,0,0
			c0,0.1,0.1,0,0.2,0c0,0,0,0,0,0c0.1-0.1,0.3,0.3,0.4,0.2c0.1-0.3,0.2-0.2,0.4-0.3c0.1,0,0-0.1,0-0.2
			C76.8,128.8,76.4,128.8,76.4,128.8z"/>
		<path class="st0" d="M71.2,133.8c-0.1,0.1-0.1,0.1-0.1,0.2c-0.1,0.1,0,0-0.1,0.1c-0.1,0.2-0.1,0,0,0.2c0,0.1,0,0.1,0,0.1
			c0,0.1,0.1,0.1,0.1,0.1c0,0,0,0,0-0.1c0.1-0.1,0,0,0.1-0.1c0.1-0.1,0-0.1,0.1-0.2c0-0.1,0,0,0-0.1c0-0.1,0,0.1,0-0.1
			C71.4,133.7,71.3,133.8,71.2,133.8z"/>
		<path class="st0" d="M68.5,135c-0.1,0.1-0.2,0.1-0.2,0.3c0,0.1-0.1,0.1,0,0.1c0.1,0,0,0,0.1,0s0,0.1,0.1,0c0.1,0,0.3-0.2,0.3-0.3
			C68.9,135.1,68.6,135,68.5,135z"/>
		<path class="st0" d="M71.1,135.5c0,0.2,0,0,0,0.2c-0.1,0,0,0.2,0,0.2c-0.1,0,0,0.1-0.1,0.2c0,0.1-0.1,0,0,0.1
			c0.1,0.1,0.1,0.1,0.1,0.1c0.1,0.1,0.2,0,0.1,0.1c-0.1,0.1-0.1,0.1-0.1,0.1c0,0.2,0,0.1,0.1,0.3c0.1,0.1,0.1,0.1,0.1,0.1
			c0.1,0,0.1-0.1,0.1-0.1c0-0.1-0.1-0.1,0-0.1c0.1,0,0-0.1,0.1,0c0.3,0.2,0.1,0.1,0,0.3c-0.1,0.2-0.1,0.1-0.1,0.2
			c0.1,0.1,0.3,0.2,0.2,0.4c0.1,0.1,0.3,0.2,0.2,0.3c-0.1,0.1,0,0-0.1,0.1c-0.1,0-0.2,0.1-0.2,0.2c0,0.1-0.1,0,0,0.1
			c0.1,0.1,0.2,0,0.2-0.1c0.4-0.2,0.2,0.1,0.4,0.3c0.1-0.1,0.2,0.3,0.2,0.1c0.1-0.3-0.1-0.3,0.1-0.3c0.1,0.2,0.1-0.4,0.1-0.4
			c0-0.1-0.2-0.3-0.2-0.3c-0.3-0.4,0.1-0.2-0.1-0.5c-0.1-0.1,0.1,0-0.1-0.1c-0.1-0.1-0.1-0.1-0.2-0.2c-0.2-0.2,0-0.1-0.2-0.2
			c-0.3-0.1-0.3-0.1-0.3-0.1c0,0,0,0.1,0,0c0-0.1,0,0,0-0.1c0-0.1,0-0.1,0.1-0.2c0-0.1,0,0.2,0-0.1c0.1-0.2,0-0.2,0-0.2
			c0,0,0.1,0,0-0.1c-0.1-0.1-0.1,0-0.1-0.1c0-0.1,0-0.1,0-0.1s0.1-0.1-0.1,0C71.1,135.4,71.1,135.4,71.1,135.5z"/>
		<path class="st0" d="M70.7,138.4C70.7,138.4,70.7,138.4,70.7,138.4c0,0-0.2-0.2-0.2-0.1c0,0,0,0.2-0.1,0c-0.1-0.2,0-0.2-0.1-0.2
			c-0.1,0,0.1-0.1-0.1,0c-0.3,0.1-0.3,0.3-0.3,0.4c0,0,0-0.1-0.1,0c-0.1,0.1-0.1,0-0.1,0.1c-0.1,0,0-0.1-0.1,0
			c-0.1,0.1-0.1,0.2-0.2,0.3c-0.1,0-0.2,0-0.3,0.1c-0.1,0.1,0-0.1-0.1,0.1c-0.1,0.2,0.1,0.2-0.1,0.3c-0.1,0.1-0.1,0-0.2,0
			c-0.1,0,0-0.1-0.1,0c-0.1,0,0.1-0.1-0.1,0c-0.1,0.1-0.1,0-0.1,0.1c0,0.1-0.1,0,0,0.1c0.2,0.4,0.1,0.5,0.3,0.8
			c0,0.1,0.3,0.1,0.4,0.1c0.1,0-0.1-0.1,0.1,0c0.3,0.2,0.6,0,0.7,0.2c0,0.1,0,0.1,0.1,0.1c0.1,0,0,0.1,0.1,0c0.1-0.1,0,0,0.1-0.1
			c0.2-0.3-0.2,0,0.2-0.4c0.1-0.3,0.2,0,0.2-0.2c0-0.3,0-0.2,0-0.3c0-0.1-0.1,0,0-0.1c0.2-0.1,0.2-0.1,0.2-0.1s0.1,0.1,0.1-0.1
			c-0.1-0.1,0,0-0.1-0.1c-0.1-0.1,0,0.1-0.1-0.1c0-0.3-0.2-0.2,0-0.4c0.2-0.2,0.1-0.1,0.1-0.2C70.6,138.6,70.7,138.5,70.7,138.4z"/>
		<path class="st0" d="M65.2,138.4c-0.1,0.3,0.2,0.3,0.4,0.4c0.1,0,0.2,0.2,0.2,0.3c0,0.1,0.2,0.1,0.2,0.2c0.1,0.1,0.1,0.2,0.1,0.4
			c0,0.1,0,0,0,0.1c0.1,0.1,0,0,0.1,0.1c0.1,0,0-0.1,0.1,0c0.1,0.1,0.1,0.1,0.1,0.1c0.1,0.3,0.5,0.7,0.8,1c0.2,0,0.6,0.1,0.5,0.3
			c0,0.1-0.1,0,0,0.1s0.2,0.1,0.2,0.1c0,0,0.2,0,0.2,0c0.1,0,0.2,0,0.3,0.1c0,0-0.2-0.1,0.1,0c0.3,0.1,0.4,0.1,0.4,0.1
			c0,0-0.1-0.1,0.1,0c0.2,0.2,0.3,0.1,0.5,0.1c0.1,0,0.3,0.1,0.4,0c0.1-0.2,0-0.1-0.1-0.2c0,0,0.1,0,0,0c-0.1,0,0,0-0.1,0
			c-0.3,0-0.1-0.1-0.3-0.2c-0.3-0.1-0.2-0.2-0.4-0.1c-0.1,0.1-0.2,0-0.3,0c-0.1,0,0,0.1-0.1,0s0-0.1-0.1-0.1c-0.1,0-0.1,0-0.2,0
			s0,0.1-0.1,0s0,0-0.1-0.1c-0.1-0.1-0.1,0-0.1-0.1c0-0.1-0.1-0.3,0-0.3c0.1-0.1-0.1,0,0.1-0.1c0.2,0,0.2,0.1,0.2,0
			c0-0.2,0.1-0.1,0-0.2c-0.1-0.1,0.1,0.1-0.1-0.1c-0.1-0.1-0.2-0.2-0.3-0.2c-0.1,0,0.1,0.2-0.1,0c-0.3-0.2-0.1-0.1-0.3-0.2
			c-0.1-0.1-0.1,0-0.1-0.1s0.1,0.1,0-0.1c-0.1-0.1-0.1-0.1-0.1-0.1c-0.1,0-0.3-0.3-0.3-0.3c-0.1,0-0.2-0.2-0.3-0.2
			c-0.1,0-0.3-0.2-0.3-0.2c-0.2-0.1-0.4-0.4-0.5-0.5C65.4,138.5,65.3,138.4,65.2,138.4z"/>
		<path class="st0" d="M72.1,139.5c-0.1,0.2-0.4,0.1-0.7,0.1c-0.1,0-0.3,0.1-0.4,0.1c0,0,0,0.1,0.1,0.3c0.1,0.1,0,0,0.1,0
			c0.1,0,0.1-0.1,0.2-0.1c0.1-0.1,0.1,0.1,0.1,0.1c0.1,0.1,0,0-0.1,0.1c-0.2,0.2-0.3,0-0.1,0.3c0.1,0.2,0.1,0.1,0.1,0.1
			c0,0.1,0,0.1,0.2,0.2c0.2,0.1,0,0,0,0.1c0,0.1,0,0.1,0,0.2c0,0.1,0,0-0.2-0.1s-0.1,0-0.1,0c-0.1,0,0.1-0.1,0.1-0.1
			c-0.1-0.2-0.3,0-0.2-0.3c0.1-0.2,0-0.1-0.1-0.1c-0.1,0,0,0-0.1,0.1s0,0,0,0.2c0,0.2,0,0,0,0.1s0,0,0,0.2c0,0.2,0,0-0.1,0.1
			c-0.1,0.1-0.1,0.1-0.1,0.1c0-0.7-0.1-0.3-0.2-0.8c-0.1-0.2,0,0,0.1-0.1c0.1-0.1,0-0.1,0-0.1c0.1-0.1,0-0.3,0.1-0.5
			c0.2-0.3,0.3-0.2,0.6-0.1c0.3,0,0.1,0,0.4,0c0.2,0,0,0,0.1,0C72.1,139.3,72.1,139.3,72.1,139.5z"/>
		<path class="st0" d="M72.1,142C72.2,141.9,72,142,72.1,142c0.4-0.1,0.3-0.1,0.5-0.2c0-0.1,0.2-0.1,0-0.1c-0.5-0.1-0.3,0.2-0.6,0.1
			c-0.1,0,0.1-0.1-0.1,0c-0.2,0.1-0.2,0.1-0.3,0.2c0,0.1-0.2,0.1,0,0.1c0.2,0,0,0.1,0.2,0c0.2,0,0,0.1,0.2,0S72.1,142,72.1,142z"/>
		<path class="st0" d="M76.7,140.7c-0.2-0.2-0.2-0.2-0.4-0.2c-0.1-0.1-0.3-0.1-0.4-0.1c-0.1,0-0.2-0.2-0.3-0.2c-0.1,0,0,0.1-0.1,0
			c-0.1,0,0.1,0-0.1,0c-0.3-0.1-0.4-0.1-0.6,0.1c-0.1,0.1,0.1,0-0.1,0.1s0,0.1-0.2,0.1s-0.1,0-0.1-0.1c0-0.1,0.1,0.1,0-0.1
			c-0.1-0.2-0.1-0.2-0.2-0.3c0-0.1,0.1,0,0-0.1s-0.1-0.1-0.2-0.1s0-0.1-0.1,0c-0.5,0.6,0.3,0.2,0.2,0.5c0,0-0.1,0.1-0.1,0.1
			c0.1,0.2,0,0.3,0.1,0.3c0.2-0.1,0.2-0.2,0.4,0c0.4,0.2,0.7,0.2,0.8,0.5c0.1,0.1,0.1,0,0.1,0.1c0,0.1,0.2,0,0,0.1
			c-0.2,0.2-0.2,0-0.2,0.2s-0.2,0.1,0,0.1c0.2,0,0,0.1,0.2,0c0.2-0.1,0-0.2,0.2-0.1c0.3,0.2,0,0.1,0.3,0.3c0.4,0.1,0.5,0,0.7-0.3
			c0.2-0.2,0.6,0.3,0.7,0.3c0.1,0.2,0.7,0.2,0.9,0.2c-0.3-0.3-0.7-0.6-0.9-0.8c0,0,0.2,0.1,0.1,0c-0.1-0.1,0-0.1-0.1-0.1
			c-0.1-0.1,0.1,0-0.1-0.1C77,141.1,76.8,140.7,76.7,140.7z"/>
		<path class="st0" d="M77.9,141.2c0.2,0,0.4-0.1,0.4-0.1c0.1-0.1,0.1-0.2,0.1-0.3c0-0.1,0.1-0.1,0-0.1c-0.1,0-0.1-0.1-0.1,0
			c-0.1,0.1,0,0-0.1,0.1c-0.1,0.1,0.1,0-0.1,0.1c-0.1,0.1-0.5,0.1-0.5,0.1c0,0-0.1,0.1-0.1,0.1c0,0.1-0.2,0.1,0.1,0.1
			C77.9,141.2,77.9,141.2,77.9,141.2z"/>
		<path class="st0" d="M81.3,144.7C81.3,144.8,81.3,144.8,81.3,144.7C81.3,144.7,81.3,144.7,81.3,144.7c0.1,0.1-0.1,0,0.1,0.1
			c0.2,0.1,0,0,0.2,0.1c0.2,0.1,0.1,0.3,0.2,0.1c0.1-0.2,0.2-0.1,0-0.3c-0.1-0.1,0.1-0.1-0.1-0.1c-0.2,0,0.2,0.2-0.2,0
			c-0.4-0.3-0.2-0.2-0.4-0.4C81.2,144.1,80.7,144.4,81.3,144.7z"/>
		<path class="st0" d="M76.3,142.3c0,0,0,0.1,0,0.1c0,0.1-0.1,0.1,0,0.2c0.1,0.1,0.1,0,0.1,0.2c0.1,0.3,0,0.3,0.2,0.3
			c0.2-0.1,0.1-0.1,0.2,0c0.1,0.1,0,0.1,0.1,0.2c0.1,0.1,0,0.1,0,0.3c0,0.1,0.1,0.3,0.1,0.3c0,0.1,0,0,0,0.1c0.1,0.1-0.1,0,0.1,0.1
			c0.1,0.1,0,0,0.1,0.1c0.2,0.1,0.1,0.1,0.3,0.2c0.2,0.1,0.2,0,0.3,0.2c0.1,0.2,0.1,0.1,0.2,0.3c0.1,0.2,0,0.1,0.1,0.2
			c0.2,0.1,0.2,0.2,0.3,0.3c0.1,0.1,0-0.1,0.1,0.1c0.1,0.2,0.1,0.1,0.2,0.3c0.1,0.3,0.2,0.2,0.2,0.5c-0.1,0.3,0.1,0.2,0,0.4
			c0,0.5,0,0.8-0.4,1.1c-0.2,0.2-0.2,0.4-0.2,0.5c-0.2,0.1-0.2,0.4-0.2,0.6c0,0.1,0.1,0.1,0,0.1c-0.3,0-0.3,0-0.5,0.2
			c-0.3,0.3-0.3,0.1-0.5,0c0,0,0.1-0.2-0.1-0.1s-0.2,0.1-0.2,0.1s0,0.1,0,0.1c-0.1,0,0,0-0.1,0c-0.3-0.1,0.1,0.1-0.1,0
			c-0.1-0.1-0.3-0.1-0.3-0.1c0,0,0-0.1-0.1-0.1s0,0.1-0.1,0c-0.1-0.1,0,0-0.1-0.1c-0.1-0.1,0,0-0.1-0.1c-0.1-0.1,0-0.1-0.1-0.1
			c0-0.1,0,0,0-0.1s0,0,0-0.1c-0.1-0.2,0-0.1-0.1-0.2c-0.1,0,0-0.1-0.1,0c-0.2,0.1,0.1,0.1-0.2,0.1c-0.3,0-0.3,0-0.3,0
			c-0.1-0.1,0.1-0.1,0.2-0.2c0.1,0,0.1,0.2,0.1,0c0-0.3,0.1-0.1-0.1-0.3c-0.1-0.1,0.1-0.1-0.1-0.1s0-0.1-0.2,0
			c-0.1,0.1-0.1,0-0.1,0.1c0,0.1,0.1,0.1,0,0.1c-0.1,0,0,0.1-0.1,0c-0.1,0-0.1-0.2-0.1-0.3c0,0,0.1,0.1,0,0
			c-0.1-0.1-0.2-0.2-0.3-0.3c-0.8-0.4-0.7-0.3-1.4-0.1c0,0,0.2,0-0.1,0.1c-0.3,0-0.2,0-0.3,0c-0.1,0,0,0-0.1,0
			c-0.1,0.1-0.3,0.2-0.4,0.3c-0.2,0-0.3,0-0.5,0c-0.4,0.1-0.1,0-0.3,0.1c-0.1,0,0.1-0.1-0.1,0s0.2,0.1-0.2,0.1c-0.4,0.1-0.2,0-0.5,0
			c-0.1,0,0.2,0.1-0.1,0c-0.5-0.2-0.3-0.1-0.2-0.4c0.2-0.2-0.2-0.3-0.1-0.6c0-0.1-0.1-0.3-0.1-0.4c0-0.1,0,0,0-0.1
			c-0.1-0.2-0.1-0.3-0.2-0.5c0-0.1-0.1,0,0-0.1c0-0.1,0-0.1,0-0.1c0.1-0.3-0.4-0.2,0-0.6c0.1-0.1,0,0,0.1-0.1c0.1-0.1,0,0.1,0.1-0.1
			c0-0.2,0-0.1,0-0.2c0-0.1-0.2,0.1,0-0.1c0.2-0.2,0.2-0.1,0.4-0.2c0.1,0,0.4-0.2,0.5-0.2c0.1,0,0,0,0.1,0c0.1,0-0.2,0.1,0.1,0
			c0.3-0.1,0.2-0.1,0.3-0.1c0.3-0.1,0.4-0.2,0.5-0.3c0-0.1-0.1-0.3,0-0.5c0.1-0.1,0-0.2,0.1-0.1c0.2,0.1,0.1,0.3,0.3,0.2
			c0.3-0.3,0.3-0.5,0.5-0.6c0.2-0.2,0.2,0,0.3,0.1c0.2,0,0.3,0.2,0.5,0.1c0.2-0.2-0.2-0.4,0.5-0.6c0.1,0,0.1,0,0.2-0.1
			c0.1-0.1,0-0.1,0.1-0.1c0.2,0.1,0.4,0.1,0.6,0.1c0.9,0.2-0.4,0.4,0.2,0.9c0.4,0.1,0.6,0.4,0.9,0.4c0.2,0,0.2-0.1,0.3-0.3
			c0,0-0.1,0.2,0,0c0.1-0.2,0.1-0.2,0.1-0.2s0,0.1,0-0.1c0-0.2,0-0.1,0-0.2C76,142.8,76,142,76.3,142.3z"/>
		<path class="st0" d="M77.2,149.8c0.4-0.1,0.3,0.2,0.1,0.4c0,0.1,0.1,0,0,0.1c-0.1,0.1-0.1,0.3-0.2,0.3c-0.1,0,0.1,0.1-0.1,0
			c-0.1-0.1-0.2,0-0.2-0.1c0-0.2-0.1-0.2-0.2-0.4c0-0.1,0-0.2,0-0.3C76.4,149.5,77.2,149.9,77.2,149.8z"/>
		<path class="st0" d="M83,149.9c0,0.1-0.1,0.2-0.1,0.2c0,0-0.1,0-0.1,0c0.1,0.2,0,0.2-0.1,0.3c0,0.1-0.2,0.1-0.2,0.1
			c0,0.1,0.1,0,0,0.1s0,0.1-0.1,0.1c-0.2,0.1-0.3,0.1-0.5,0.3c-0.2,0.1-0.2,0.3-0.2,0.5c0.2,0,0.3,0,0.5,0c0.1,0,0,0.1,0.1,0
			c0.1-0.1,0,0,0.1-0.1c0.1-0.1,0.1,0,0.2,0c0.1-0.1,0,0,0.1-0.1c0.1-0.1,0,0,0.1-0.1c0.1-0.1,0,0,0.1-0.1c0.1-0.1,0.1-0.1,0.1-0.2
			s0-0.1,0-0.1c0-0.1,0.1,0,0.2-0.1c0.1-0.1,0,0.1,0.1-0.1s0-0.1,0.1-0.2c0.1-0.1,0.3-0.3,0.3-0.5c0-0.1,0.1,0,0-0.1
			c-0.1,0,0-0.1-0.1,0c-0.1,0-0.1,0.1-0.1,0c0,0,0,0,0,0c-0.1-0.1,0.1-0.1-0.1-0.1C83.1,149.7,83,149.9,83,149.9z"/>
		<path class="st0" d="M83.9,149.8c0.1,0,0.1-0.1,0.1-0.2c0-0.1,0-0.1,0-0.2c0.1-0.1,0,0,0.1-0.1c0,0-0.1,0,0,0c0.1,0,0.1,0,0.1,0
			s0,0,0,0c0.1-0.2,0,0,0-0.2c0.1-0.3-0.3-0.1-0.5-0.3c0-0.3-0.2,0-0.3-0.3c0-0.2-0.1-0.3-0.2-0.4c0,0.1-0.3-0.2-0.3-0.1
			c0,0,0,0.2,0,0.2c0.1,0,0.1,0.2,0.2,0.3c0.1,0,0,0.1,0.1,0.2c0.1,0,0,0,0.1,0c0.1,0.1,0.1-0.1,0.1,0.1c0,0.1,0,0.1,0,0.1
			c0.1,0,0,0.2,0,0.2c0,0.1,0.1,0,0,0.1c-0.1,0.1-0.1,0.1-0.2,0.2c0.1,0.2,0.4,0.1,0.3,0.2c-0.1,0.2-0.1,0,0,0.2c0,0.1,0,0.1,0,0.1
			c0.1,0.1,0,0.1,0.1,0.1s0,0.1,0.1,0S83.9,149.8,83.9,149.8z"/>
		<g>
			<path class="st0" d="M49.6,119.6C49.6,119.6,49.6,119.6,49.6,119.6C49.6,119.6,49.6,119.6,49.6,119.6z"/>
			<path class="st0" d="M48.6,119.9C48.6,119.9,48.6,119.9,48.6,119.9C48.6,119.9,48.6,119.9,48.6,119.9z"/>
			<path class="st0" d="M48.6,119.9C48.6,119.9,48.6,119.9,48.6,119.9L48.6,119.9z"/>
			<path class="st0" d="M46.2,121.5C46.2,121.5,46.2,121.5,46.2,121.5L46.2,121.5z"/>
			<path class="st0" d="M46.2,121.5C46.2,121.5,46.2,121.5,46.2,121.5C46.2,121.5,46.2,121.5,46.2,121.5z"/>
			<path class="st0" d="M46.2,121.5C46.2,121.5,46.2,121.5,46.2,121.5C46.2,121.5,46.2,121.5,46.2,121.5z"/>
			<path class="st0" d="M48.6,119.9C48.6,119.9,48.6,119.9,48.6,119.9C48.6,119.9,48.6,119.9,48.6,119.9z"/>
			<path class="st0" d="M49.6,119.6C49.6,119.6,49.6,119.6,49.6,119.6L49.6,119.6z"/>
			<path class="st0" d="M49.6,119.6C49.6,119.6,49.6,119.6,49.6,119.6C49.6,119.6,49.6,119.6,49.6,119.6z"/>
			<path class="st0" d="M49.6,119.6C49.6,119.6,49.6,119.6,49.6,119.6C49.6,119.6,49.6,119.6,49.6,119.6z"/>
			<path class="st0" d="M49.6,119.6C49.6,119.6,49.6,119.6,49.6,119.6C49.6,119.6,49.6,119.6,49.6,119.6z"/>
			<path class="st0" d="M49.6,119.6C49.6,119.6,49.6,119.6,49.6,119.6C49.6,119.6,49.6,119.6,49.6,119.6z"/>
			<path class="st0" d="M48.7,130.5C48.7,130.5,48.7,130.5,48.7,130.5C48.7,130.5,48.7,130.5,48.7,130.5z"/>
			<path class="st0" d="M46,125.7C46,125.7,46,125.7,46,125.7C46,125.7,46,125.7,46,125.7z"/>
			<path class="st0" d="M46,125.7C46,125.7,46,125.7,46,125.7C45.9,125.7,46,125.7,46,125.7z"/>
			<path class="st0" d="M87,121.7c0.3-0.1,0,0,0-0.2c0.2,0-0.3-0.2-0.3-0.2c0,0,0,0,0,0c-0.1,0,0,0-0.1,0c-0.1,0-0.2,0.1-0.2,0
				c0,0,0.2,0,0,0c-0.2,0-0.2,0-0.2,0c0,0.1,0,0.2-0.1,0.1c0,0-0.1-0.2-0.1-0.2c0,0,0.1-0.1,0-0.1c-0.1,0,0,0.1-0.1,0
				c-0.1-0.1-0.1-0.1-0.2-0.1c-0.2-0.1,0,0-0.2-0.1c-0.1-0.1-0.1,0.1-0.3,0c-0.1-0.2-0.3-0.2-0.5-0.3c0,0,0,0.1-0.1,0
				c-0.1-0.1,0.1,0-0.1-0.1c-0.2-0.1-0.3-0.1-0.5-0.1c-0.1-0.1-0.2-0.2-0.4-0.1c-0.1,0-0.2,0-0.2,0c-0.1,0-0.2,0.1-0.2,0.1
				c-0.1-0.1,0.1-0.1-0.1-0.1c-0.2,0-0.2,0-0.2,0c0,0,0.1,0.1,0,0c-0.1-0.1,0-0.1-0.1-0.1c-0.1,0,0,0-0.1,0
				c-0.3-0.1-0.2,0.2-0.2,0.2c0,0,0.1,0.1,0.1,0.1l0,0.1c0,0.1-0.1,0.1-0.2,0c-0.1,0,0,0.1-0.1,0c-0.1-0.1-0.1-0.1-0.1-0.1
				c-0.1,0.1-0.1-0.1-0.1-0.1c0.1-0.4-0.4,0-0.5,0c-0.1,0-0.3,0.1-0.5,0c-0.1,0-0.2-0.1-0.4-0.1c-0.3,0-0.3,0.2-0.5,0.1
				c-0.1-0.1,0.1,0-0.1-0.1c-0.1,0-0.2,0-0.2-0.1c-0.1-0.5-0.7-0.4-1-0.5c-0.1,0,0.1-0.1-0.1,0c-0.2,0.1-0.3,0.1-0.4,0.1
				c-0.4,0-0.3-0.3-0.9-0.4c-0.1,0,0-0.1,0-0.1c-0.1-0.2-0.1-0.2-0.3-0.2c-0.1,0-0.1,0-0.2,0c0,0,0.1,0,0,0c-0.2,0-0.1,0.1-0.3-0.1
				c-0.2,0,0.1,0-0.2-0.1c-0.2,0-0.2,0-0.3-0.1c0,0-0.3,0-0.4,0c-0.1,0-0.3-0.2-0.4,0c-0.1,0.1,0.1,0.1-0.1,0.1
				c-0.2,0.1-0.3,0-0.4,0.2c0,0,0.2,0.1,0.2,0.1c0,0,0.2,0.2,0,0.2c-0.1,0.1,0,0.1-0.1,0.1c0,0-0.2,0-0.2,0c0.1,0.1-0.3,0-0.2,0
				c0,0,0.1,0-0.1,0s-0.2,0-0.3,0s0,0,0,0c-0.1,0,0.1-0.1-0.1,0c-0.2,0.1-0.2,0.1-0.2,0.1s-0.1,0-0.1,0c0,0,0,0.1,0,0
				c-0.2-0.2-0.2-0.2-0.4-0.1c0.1,0-0.1,0.2-0.1,0.2c0,0-0.1,0.1-0.1,0.1c-0.1,0-0.3-0.2-0.3-0.2c0-0.1,0-0.2,0-0.4c0,0,0.2,0.1,0,0
				c-0.2-0.1-0.3-0.1-0.2-0.2c0-0.1,0,0,0-0.1c0-0.1,0,0,0-0.1c0-0.1,0-0.1,0-0.1c0.1-0.1-0.2-0.1-0.2-0.1c-0.1,0,0-0.1-0.1,0
				c-0.2,0.1-0.1,0.1-0.3,0.1c-0.1,0-0.1-0.1-0.2-0.1c-0.1,0-0.1-0.1-0.2-0.1c-0.1,0-0.1-0.1-0.2,0c-0.1,0.1,0,0.2-0.1,0.3
				c-0.3,0.1-0.8,0.1-1,0c-0.2-0.4-0.1-0.2-0.5-0.2c0,0.1-0.2-0.1-0.2-0.1c-0.1,0-0.6,0.3-0.5-0.1c0.1,0-0.4,0-0.3,0
				c0,0-0.3-0.1-0.3-0.1c0,0,0,0,0,0s0.1,0-0.1,0.1c-0.3,0.1-0.6,0.2-0.8,0.3c-0.2,0.1-0.4,0-0.1-0.2c0.1,0,0,0,0.1,0
				c0.1,0,0,0.1,0.1,0c0.2-0.2,0.5-0.2,0.7-0.4c0.3-0.2,0.9-0.3,0.9-0.6c0,0,0-0.1,0-0.1c0,0-0.1-0.1-0.1-0.1
				c-0.1-0.1-0.2-0.2-0.3-0.3c-0.1,0-0.1,0-0.3,0c-0.2,0,0-0.1-0.2,0c-0.3,0.1-0.3-0.2-0.5,0c0,0,0.1,0-0.1,0.1
				c-0.4,0.1,0.1-0.2-0.3-0.2c-0.2-0.1-0.2-0.1-0.1-0.2c-0.1-0.2-0.3-0.1-0.4-0.1c-0.1,0-0.1,0-0.2,0c0,0-0.4,0.2-0.4,0.2
				c-0.1,0.1,0,0,0,0.1c0,0,0.1-0.1,0,0c-0.1,0.1-0.2,0.2-0.2,0.2c-0.1,0,0,0-0.1,0c-0.1,0,0.1-0.1-0.1,0c-0.2,0.1-0.3,0-0.3,0.1
				c-0.1,0.1-0.2,0.1-0.4,0c-0.2,0-0.3,0.1-0.5,0.1c-0.2-0.1-0.2,0.1-0.3,0.1c-0.2,0-0.2,0-0.3,0.1c-0.4,0.1-0.5,0.1-0.6,0.2
				c0,0.1-0.1,0-0.2,0.1c-0.1,0-0.2,0.1-0.2,0.2c-0.1,0.2,0.2,0.3-0.2,0.3c-0.2,0-0.1,0.1-0.3,0.1c-0.3,0.1-0.5,0-0.8,0.1
				c-0.3,0-0.3,0.4-0.2,0.5c0.1,0,0.3,0.1,0.4,0.2c0.3,0.2-0.2,0.2-0.2,0.2c-0.1-0.1-0.6-0.4-0.7-0.3c-0.2,0.3-0.3,0.1-0.6,0.2
				c-0.1,0.2,0.4,0.1,0.4,0.2c0.1,0.2-0.2,0.2-0.3,0.1c0,0,0.2,0,0,0c-0.3,0-0.2,0-0.3,0c-0.1,0,0,0,0-0.1c0,0,0,0,0-0.1
				c0-0.1,0,0,0-0.1c0-0.1,0,0.1,0-0.1c0-0.2,0-0.1,0.1-0.2c0-0.1-0.1-0.2-0.1-0.2c0,0-0.1,0.2-0.1,0.3c-0.1,0.1,0.1,0-0.1,0.1
				c-0.1,0.1-0.2,0.1-0.2,0.1l-0.1,0.1c0.1,0.1,0.2,0.4,0.2,0.5c-0.3,0.3,0,0.5,0.2,0.5c0.2,0,0.5-0.1,0.6,0.1
				c0.1,0.1,0.2,0.2,0.1,0.3c-0.1,0.1,0,0.1-0.1,0.1c-0.1,0,0,0.1-0.1,0c-0.1-0.1,0-0.1,0-0.2c0-0.1-0.1-0.1-0.1-0.2
				c-0.1-0.2-0.7,0-0.4,0.2c0,0.1-0.2,0.3-0.3,0.4c0,0.1-0.2,0.3-0.3,0.3c-0.2,0.2-0.2,0-0.4,0c-0.2,0-0.2,0-0.2,0s0,0,0-0.1
				s-0.1,0,0-0.1c0.1-0.2,0.1,0,0.3,0c0.1,0,0,0.1,0.1,0c0.1-0.1,0-0.1,0.1-0.2c0.2-0.2,0.4-0.5,0.3-0.6c-0.1-0.2-0.1,0-0.1-0.2
				c0-0.2,0-0.4,0-0.5c0-0.1,0-0.3-0.1-0.4c0-0.1,0.1-0.4,0.2-0.6c-0.1-0.2-0.4-0.1-0.5-0.1c-0.4-0.1-0.3,0.6-0.7,0.6
				c-0.1,0.1-0.1,0.1-0.1,0.1s-0.1,0.1-0.1,0.1c0,0.1,0.2,0,0.2,0.1c-0.2,0.3,0,0.4,0.1,0.5c0.1,0.2,0.1,0.1,0.2,0.2
				c0.1,0.4-0.3,0.1-0.5,0c-0.2-0.1-1.5-0.7-1.4-0.2c0,0,0-0.1,0,0s0.1,0,0,0.1c-0.1,0.1,0,0.1-0.1,0.1c-0.1,0-0.1,0-0.1,0
				c0,0.1-0.2,0.1-0.2,0.1c0,0,0-0.2-0.1-0.2c-0.2,0.1-0.4,0.1-0.5,0.1c0,0-0.1,0-0.1,0c-0.1,0,0-0.1-0.1,0c-0.1,0-0.4,0.3-0.4,0.2
				c-0.1-0.4-0.2-0.3-0.4-0.1c0,0,0,0-0.1,0c-0.1,0-0.1,0-0.1,0s0,0-0.1,0c0,0,0.1,0,0,0c-0.1,0.1,0.1,0-0.1,0.1
				c-0.2,0.1-0.2,0.1-0.2,0.1c-0.1,0-0.2,0.1-0.2,0.1c-0.1,0,0-0.1-0.1,0c-0.1,0.2-0.4,0.3-0.6,0.2c0,0,0,0-0.1-0.1s0,0-0.1,0
				c0-0.1-0.1,0,0-0.1c0-0.1,0.1-0.1,0.1-0.2c0.1-0.1,0-0.1,0.1-0.1c0.2,0,0.2,0,0.1-0.2c-0.2-0.3-0.3,0-0.6-0.1
				c-0.2,0.1,0.1,0.1,0,0.2c0,0.1,0,0-0.1,0.1c0,0.1-0.1,0.1,0,0.1c0.1,0.1,0.1,0,0.1,0.1c0,0.1,0,0.2,0,0.2c-0.1,0.1,0,0.1-0.1,0.1
				c-0.1,0-0.2-0.1-0.2-0.1c-0.1,0-0.3,0.2-0.4,0.2c-0.1,0.1,0-0.1-0.1,0.1c-0.1,0.2-0.1,0.1-0.2,0.2c-0.1,0.2,0.2,0.2,0.1,0.3
				c-0.1,0,0.1,0-0.1,0c-0.4,0.1-0.2,0-0.4-0.1c-0.2,0-0.2-0.1-0.4,0c0,0.2,0.2,0.2,0.3,0.3c0.1,0,0,0.2,0,0.2c-0.1,0,0.1,0-0.1,0
				c-0.2,0-0.2,0-0.3-0.1c0,0,0.1,0,0,0c-0.3-0.1-0.2-0.1-0.4-0.3c0.1-0.7,0-0.2-0.3-0.5c-0.2-0.2-0.1-0.1,0.1-0.2
				c0.1,0,0.2,0.2,0.3,0.2c0.3,0,0.5,0.1,0.8,0.1c0.1,0-0.1,0,0.1,0c0.2,0,0.2,0,0.2,0s0,0,0.1,0c0.3-0.1,0.5-0.3,0.3-0.5
				c0,0-0.1-0.2-0.1-0.2c0,0,0.1,0,0-0.1c-0.1-0.1,0,0-0.1-0.1c-0.2,0-0.6-0.2-0.7-0.3c-0.1-0.1-0.1-0.2-0.3-0.2
				c-0.3-0.1-0.6,0-0.8-0.2c-0.3-0.1-0.3,0.1-0.5-0.2c0.2-0.1,0.7,0,0-0.3c-0.1-0.1-0.1,0.1-0.2,0c0,0,0,0,0,0
				c0.1-0.1-0.1,0-0.2-0.1c-0.1,0-0.1,0.2-0.2,0.1c-0.1,0,0.1-0.1,0-0.1c-0.1,0.1-0.2,0.2-0.3,0.3c-0.1,0,0,0,0,0c0,0,0,0,0-0.1
				c0-0.1,0,0,0-0.1c0.1-0.1,0-0.1-0.1-0.1c-0.1,0,0,0-0.1,0.1c-0.1,0.1,0,0,0,0c-0.1,0.1-0.1,0.1-0.2,0.3c-0.1,0.1,0,0-0.1,0
				c-0.1,0-0.2,0-0.3,0.1c-0.1,0,0,0-0.1,0c-0.1,0-0.1,0-0.1,0.1c-0.1,0.1,0,0-0.1,0c-0.1,0,0.1-0.1-0.1-0.2c-0.2,0,0,0.2-0.2,0.3
				c-0.1,0.1-0.1,0-0.2,0c-0.1,0,0,0-0.1,0c-0.1,0,0,0-0.1,0c-0.1,0,0,0-0.1,0.1c-0.1,0.1,0,0.1,0,0.1s0,0,0,0.1c0,0.1,0,0,0,0
				c-0.2,0.2-0.4,0.3-0.5,0.6c0,0.1,0,0-0.1,0c-0.2,0-0.2,0.2-0.4,0.3c0,0.3,0,0.1-0.1,0.2c-0.1,0.1,0,0,0,0.1c0,0.1,0,0.1,0,0.2
				c-0.1,0.1-0.6,0.5-0.5,0.5c0,0.1,0,0,0,0.1c0,0.1,0,0-0.1,0c-0.1,0-0.1,0.1-0.2,0.1c-0.1,0,0,0-0.1,0c-0.1,0-0.1,0.1-0.1,0.1
				c-0.1,0.1-0.1,0.2-0.2,0.2c-0.1,0,0,0-0.2,0.1c-0.1,0.1,0,0.1,0,0.1c0,0-0.2,0.2-0.2,0.1c-0.1,0,0,0-0.1,0.1c0,0.1,0,0.2-0.1,0.2
				c0,0.1,0,0,0,0.1c0,0.1,0,0,0.1,0.1c0.1,0.1,0,0,0,0c0,0.1,0.2,0.2,0.1,0.2c-0.1,0.1,0,0,0,0.2c0,0.1,0,0-0.1,0.1
				c-0.1,0.1,0,0-0.1,0.1c0,0.2,0.2,0.2,0.3,0.3c0.2,0.1,0.5,0,0.6-0.2c0.1,0,0.4-0.4,0.4-0.1c0.1,0.1,0.1,0.3,0.2,0.4
				c0,0.1,0,0,0,0.1c0,0.1,0,0,0,0.1c0,0.1,0.1,0,0.1,0.1c0.1,0.1,0,0,0,0.1c0,0.1,0.2,0.2,0.1,0.2c-0.1,0.2-0.2,0.4,0.1,0.2
				c0.4,0.1,0.1-0.1,0.7-0.3c0.2-0.1,0.1,0,0.1-0.1c0.1-0.1,0,0,0,0c0,0,0,0-0.1-0.1c-0.1-0.1,0.1-0.2,0-0.3c0-0.1,0.1-0.1,0.1-0.2
				c0.2-0.1,0.3-0.3,0.4-0.5c0-0.1-0.2-0.4-0.3-0.3c-0.1,0,0-0.3,0-0.4c0.1-0.4,0.6-0.5,0.9-0.8c0.3-0.1-0.1-0.3,0.2-0.4
				c0.1-0.2,0.2-0.1,0.5-0.2c0.3,0,0,0,0.1,0c0.1,0,0,0,0.1,0c0.1,0,0.3,0,0.2,0.2c0,0.1-0.1,0.1-0.2,0.2c-0.1,0.1-0.3,0.2-0.4,0.4
				c-0.1,0.1-0.4,0.2-0.3,0.4c0,0,0,0.2,0,0.2c0.1,0.3-0.3,0.3,0.3,0.6c0.3,0,0.3,0.1,0.6,0c0.1,0,0,0,0,0c0,0,0,0,0.1-0.1
				c0.1-0.1,0.1,0,0.1,0c0.1,0.1,0.2,0.1,0.3-0.1c0,0.2,0.3,0.2,0.4,0.2c0.1,0.2-0.1,0.1-0.2,0.1c0,0,0,0,0,0
				c0.1,0.1-0.2,0.1-0.2,0.1c-0.1,0.1,0,0.1,0,0.2c-0.1,0.1-0.1,0.2-0.1,0.3c0.2,0.3-0.2-0.2-0.1-0.2c0.1,0,0.1-0.1,0.1-0.1
				c-0.2-0.2-1.6,0.1-1.1,0.4c0.1,0,0.2-0.1,0.3,0c0,0.1,0,0.4-0.1,0.3c-0.1-0.1-0.2-0.2-0.4-0.1c-0.2,0.1-0.3,0.2-0.3,0.4
				c0,0.4,0,0.5-0.4,0.7c-0.3-0.1,0-0.2-0.2-0.2c-0.3,0.1-0.2,0.1-0.4,0.2c-0.2,0.1-0.4,0.1-0.6,0.1c-0.1,0-0.2-0.2-0.3-0.1
				c-0.2,0-0.5,0.3-0.5,0.1c0-0.1,0.1-0.1,0-0.1c-0.1,0,0,0-0.1,0c-0.2,0-0.2-0.1-0.1-0.3c0-0.1,0,0.1,0-0.1s0-0.1,0-0.1
				c0.2-0.2,0.2-0.2,0.1-0.4c0.1-0.4-0.4,0.1-0.5,0.1c-0.3,0,0,0.5-0.1,0.6c0,0.1,0,0.1,0.1,0.2c0,0.1,0.1-0.1,0,0.1
				c0,0.2-0.1,0.1-0.2,0.2c-0.7,0-0.6,0.2-0.9,0.6c-0.2,0.1-0.2,0.2-0.4,0.2c-0.2,0.2,0,0.2-0.4,0.4c0,0-0.2,0.1-0.2,0.1
				c-0.1,0,0,0-0.1,0c-0.1,0,0,0-0.1,0c-0.1,0,0-0.1-0.1,0c-0.1,0.1,0,0.2,0,0.2c0,0,0.2-0.1,0,0c-0.2,0.2-0.1,0.1-0.2,0.1
				c0-0.1-0.3,0-0.3,0c-0.3,0.1,0.1,0.2,0.1,0.2c0,0,0-0.1,0.1,0c0.1,0.1,0.2,0.1,0.2,0.2c0.2,0.3,0.3,0.3,0.3,0.5
				c0,0,0.1,0.1,0,0.1c-0.2,0.4,0.1,0.4-0.6,0.4c-0.1,0-0.1,0.1-0.1,0c0-0.1,0.1-0.1,0-0.1c-0.2,0-0.2,0-0.3,0
				c-0.4-0.1-0.5-0.1-0.8,0.1c0.2,0.2,0,0.1,0,0.2c0.1,0.1,0.1,0.2,0.1,0.3c0,0.1-0.1,0.3-0.1,0.4c0,0.1-0.1,0.2,0,0.3
				c0.2,0.1,0,0.3,0.1,0.5c0.1,0,0.3,0,0.4,0c0,0,0,0.1,0.1,0c0.1,0,0-0.1,0.1,0c0.2,0.1,0.1,0.2,0.2,0.3c0.2,0.1,0.1,0,0.2-0.1
				c0.2-0.2,0.4-0.1,0.6-0.1c0,0,0.2-0.2,0.2-0.1c0.1-0.1,0.2-0.1,0.3-0.2c0-0.1-0.1,0,0-0.1c0.1-0.1,0,0,0.1-0.1c0,0,0.1,0.1,0,0
				c0-0.1,0,0,0-0.1c-0.1-0.1-0.1,0-0.1-0.1c0-0.1,0.1-0.3,0.2-0.3c0.1-0.1,0.5-0.2,0.6-0.3c0.2-0.1-0.1-0.3,0.1-0.5
				c0.1-0.1,0.3,0,0.4,0c0.2,0.2,0.4-0.1,0.4-0.1c0.5-0.5,0.8,0.4,1.2,0.6c0.1,0.1,0.4,0.2,0.5,0.3c0.3,0.2,0.7,0.5,0,0.7
				c-0.1,0-0.3,0-0.4,0c0,0,0,0.1,0,0.1l0.1,0.1c0.1,0.1,0.3,0.1,0.3,0.1c0.2,0,0.2,0,0.2-0.2c0.2-0.1,0.2-0.2,0.4-0.4
				c0.1-0.1-0.1-0.2-0.1-0.3c0.1-0.2,0.3,0.1,0.4,0c0-0.1,0-0.1-0.1-0.1c-0.2-0.1-0.2-0.1-0.4-0.1c-0.1,0-0.1,0-0.1,0
				c0-0.1-0.1-0.2-0.1-0.2c-0.1,0-0.3-0.1-0.4-0.2c-0.1-0.1,0,0-0.1-0.1c0-0.1,0,0,0-0.1s0,0-0.1-0.1c-0.1,0,0,0.1-0.1,0
				c-0.1-0.1-0.1-0.1-0.1-0.1c-0.1-0.3,0.1-0.4,0.3-0.3c0.1,0.1,0.5,0.3,0.5,0.4c0.2,0.1,0.2,0.2,0.4,0.4c0.2,0,0.5,0.2,0.5,0.4
				c0,0.2,0,0.2,0.1,0.4c0,0.1,0.1,0.3,0.3,0.3c0,0,0,0.2,0,0.2c0.1,0.1,0,0.1,0.1,0.2c0.1,0.1-0.1,0.1,0.1,0.1
				c0.4,0,0.3,0.1,0.3,0.1c0.1-0.1,0.1,0,0.1-0.1c0-0.1-0.2-0.1-0.1-0.3c0,0-0.2-0.1,0-0.1c0.2,0,0.2,0,0.2,0c0-0.1,0.1,0,0-0.1
				c-0.1-0.1,0,0-0.1-0.1c-0.1,0-0.1-0.1-0.2-0.1c0-0.1,0.1,0,0-0.1c-0.2-0.2-0.2-0.2,0-0.2c0.1,0,0.4-0.1,0.3-0.1c0,0,0,0,0.1,0
				c0.1,0-0.1-0.1,0.1,0c0.1,0,0.2,0,0.2,0c0.1,0.2,0,0.6,0.3,0.7c0.2,0,0.1-0.1,0.2,0.1c0.1,0.1,0.1,0,0.2,0.1c0.1,0,0,0.1,0.1,0
				c0.1-0.1,0-0.1,0.1-0.1c0-0.1,0.3,0.1,0.3,0.1c0.3,0.1,0.3,0.1,0.6,0c0.1-0.1,0.1,0,0.2,0c0.1,0,0.3-0.1,0.3,0
				c0,0.1-0.1,0.3,0,0.4c0,0.1-0.1,0.2-0.1,0.4c0,0.1-0.1,0.2-0.1,0.2c0.1,0.1,0,0.2-0.1,0.3c-0.1,0,0,0.5,0,0.5
				c-0.1,0,0.1,0.3,0.1,0.3c-0.1,0.1,0.1,0.2,0.1,0.3c0.1,0.2,0.1,0.3,0.2,0.4c0,0.1,0.1,0.3,0.1,0.3c0.2,0.3,0.4,0.3,0.5,0.7
				c0,0.3,0,0.2,0,0.4c0.2,0.2,0.4,0.3,0.6,0.6c0,0.1-0.1-0.1,0,0.1c0,0.2,0.2,0.4,0.3,0.6c0,0,0,0.2,0,0.3c0,0.1,0,0,0,0.1
				c0,0.1,0,0,0,0.1c0,0.1-0.1,0.1,0,0.2c0.2,0.1,0,0.2,0.2,0.1c0.2,0,0,0.1,0.2,0c0.3-0.1,0.1,0,0.3-0.1c0.1-0.1-0.1,0,0.1-0.1
				c0.3-0.1,0.1,0,0.4-0.1c0.4-0.3,0.4-0.1,0.7-0.2C55,136,54.9,136,55,136c0.1-0.1,0.1,0,0.1-0.1s-0.1,0,0-0.1
				c0.2-0.1,0.2-0.2,0.4-0.2c0.1,0,0,0.1,0.1,0c0.2-0.1,0.1-0.1,0.2-0.2c0.1-0.1-0.1,0,0.1-0.1c0.3,0,0.2-0.1,0.3-0.2
				c0.2,0,0.1-0.2,0.2-0.3c0,0-0.1,0.1,0,0c0.3-0.2,0.3-0.3,0.4-0.5c0-0.1-0.2-0.1-0.2-0.2c0,0,0,0,0-0.1c0-0.1,0.1,0,0-0.1
				c-0.2-0.1-0.2-0.1-0.4-0.2c-0.1-0.1,0,0.1-0.1-0.1c-0.1-0.2-0.1-0.2-0.1-0.2s0-0.1,0-0.1c0-0.1,0.1,0,0-0.1c-0.1-0.1-0.2,0-0.2,0
				c-0.1,0.3-0.6,0.5-0.9,0.3c-0.1-0.1,0.1-0.4-0.1-0.4c-0.1,0-0.1,0-0.1,0s0.1,0.3,0,0.1s-0.1-0.3-0.1-0.3
				c-0.2-0.2-0.4-0.4-0.5-0.7c0-0.1-0.1,0,0-0.1c0.1-0.1-0.1-0.1,0.1-0.1c0.2,0,0.4,0,0.5,0.1c0.1,0.1,0.2,0.3,0.3,0.4
				c0.1,0.1-0.1-0.1,0.1,0.1c0.2,0.1,0.2,0.1,0.3,0.1c0.1,0.2,0.5,0.2,0.6,0.1c0.1-0.1-0.1,0,0.1-0.1c0.2,0,0.1-0.1,0.2,0
				c0.1,0,0-0.1,0.1,0c0,0.1,0,0.1,0.1,0.2c0,0.1-0.2-0.1,0,0.1c0.2,0.1,0,0.1,0.3,0.2c0.6,0.2,1.2-0.1,1.8,0
				c0.2,0.2,0.5,0.5,0.7,0.6c0.4,0.1-0.2,0.1,0,0.3c0.1,0.1,0.1,0.1,0.2,0.2c0.1,0.1,0,0.1,0.1,0.1c0.1,0,0.1,0.1,0.2,0
				c0.1-0.1,0,0.1,0.1-0.1c0.1-0.2,0-0.3,0.1-0.3c0.1,0.1,0.2,0.2,0.2,0.2c0,0.3-0.1,0.7,0.1,0.9c-0.1,0.2,0.1,0.2,0.1,0.3
				c0,0.2,0.1,0.4,0.2,0.5c0,0.1,0.1,0.1,0.1,0.1c0,0.1,0,0.2,0,0.3c0.1,0.2,0.3,0.4,0.3,0.6c0,0.1,0.2,0.6,0.3,0.5
				c0,0,0.2-0.1,0.1-0.1c0-0.1,0.1-0.2,0.2-0.2c0-0.1,0.1-0.1,0.1-0.2c0-0.1,0.1,0,0.1-0.1c0,0,0,0.1,0,0c0-0.1,0-0.1,0-0.1
				c-0.1-0.1,0-0.1,0-0.2c0-0.1,0.1-0.3,0.1-0.3c-0.1-0.1-0.1-0.3-0.1-0.4c-0.1-0.1,0-0.3,0.1-0.3c0.2,0,0.1-0.1,0.3-0.1
				c0.2,0,0.1-0.1,0.2-0.1c0.2-0.2,0.4-0.3,0.5-0.5c0,0,0,0,0,0c0-0.1,0-0.1,0-0.1s-0.1,0,0,0c0.1,0,0.1-0.1,0.2-0.1
				c0.3-0.1,0.3-0.1,0.3-0.3c0-0.2,0.3-0.1,0.4-0.1c0.2-0.1,0.4,0,0.5-0.2c0.1-0.1,0.2-0.1,0.2,0.1c0,0,0-0.1,0,0
				c0,0.1,0.1,0.2,0.1,0.3c0.2,0.3,0.5,0.3,0.5,0.7c0,0.1,0,0.2,0,0.3c0,0.1,0,0.3,0.2,0.3c0.2-0.1,0.3-0.3,0.4-0.3
				c0.1-0.1,0.1,0.4,0.2,0.5c0,0.1,0,0,0,0.1c0,0.1,0,0.1,0,0.1c0,0.1,0.2,0.4,0.2,0.5c0,0.1,0,0.3,0,0.5c-0.1,0.1-0.1,0.2-0.1,0.4
				c-0.1,0.4,0.3,0.5,0.5,0.7c0.1,0.1,0,0.4,0,0.5c0.1,0,0.1,0.2,0.2,0.2c0.1,0.1,0.2,0.2,0.4,0.3c0.1,0.1,0.2,0.2,0.3,0.1
				c0,0,0.1,0.2,0,0c-0.1-0.3,0-0.1-0.1-0.3c-0.1-0.2,0,0-0.1-0.2c0-0.2,0-0.2,0-0.3c-0.1-0.2-0.4-0.5-0.5-0.5c-0.1,0,0,0.1-0.1,0
				c-0.1-0.2,0-0.2-0.1-0.3c-0.1,0-0.1-0.2-0.1-0.2c-0.1,0,0,0.1-0.1,0c-0.2-0.1,0-0.1,0-0.3c0-0.2,0.1-0.3,0.2-0.4
				c0-0.1,0.1-0.2,0.1-0.2c0.1,0.1,0,0.1,0.1,0.1s-0.1,0,0,0c0.2,0.1,0.2,0,0.3,0.1c0.2,0.2,0.1,0.3,0.4,0.4
				c0.3,0.2,0.1,0.3,0.2,0.5c0.2-0.1,0.4-0.3,0.5-0.4c0.1,0,0.3-0.1,0.3-0.2c0.3-0.2,0.2-0.3,0.2-0.6c-0.1-0.1,0-0.2-0.1-0.3
				c0-0.1-0.1-0.2-0.1-0.3c-0.2-0.3-0.4-0.3-0.5-0.6c0-0.1-0.2-0.4,0-0.4c0.1-0.1,0.4-0.4,0.5-0.4c0.3-0.1,0.3,0,0.3,0.3
				c0,0,0.2,0.1,0.2,0.1c0-0.1,0,0,0-0.1c0-0.1-0.1,0,0-0.1c0.1-0.1,0.2-0.1,0.3-0.2c0.2-0.1,0.5-0.1,0.7-0.3c0,0,0.1,0.1,0.2,0
				c0.1-0.1-0.1,0,0.1-0.1c0.3-0.1,0.2-0.1,0.4-0.2c0.1-0.1,0.2-0.2,0.3-0.3c0.2-0.1,0.4-0.4,0.4-0.7c0.1-0.1,0.2-0.3,0.3-0.4
				c0,0-0.1,0,0-0.1c0.1-0.1,0.1-0.1,0.1-0.1c0.1-0.3,0.1-0.3-0.2-0.3c-0.2,0,0.1-0.1,0.1-0.2c0,0,0,0.1,0-0.1c0-0.3,0,0,0-0.2
				c0-0.2-0.2-0.2-0.2-0.4c0-0.3-0.3-0.3-0.3-0.4c0.1-0.2,0.3-0.4,0.4-0.4c0.2-0.1,0.3-0.1,0.3-0.2c0.2-0.1-0.6-0.3-0.6-0.1
				c0,0,0,0-0.1,0c-0.1,0,0,0.1-0.1,0s0-0.1,0-0.1c0,0,0,0,0,0c0-0.1,0,0,0-0.1c-0.1-0.1-0.1,0-0.1-0.1c0,0,0,0.1,0,0
				c-0.1-0.1-0.1,0-0.1-0.1c0-0.1,0-0.1,0-0.1s-0.1,0,0,0c0.3,0,0.2,0,0.3-0.1c0.1-0.1,0.2-0.2,0.2-0.2c0.1-0.1,0.1-0.1,0.2-0.2
				c0.3-0.1,0.2,0.2,0.1,0.2c-0.2,0.2,0,0.3,0.1,0.2c0.3-0.1,0.3-0.2,0.6-0.1c0.2,0,0.2,0.3,0.1,0.3c-0.1,0,0,0.2,0.1,0.2
				c0.3-0.1,0.3,0.2,0.2,0.4c0.1,0,0.1,0.1,0.1,0.2c-0.1,0.1,0,0.1-0.1,0.2c0,0.1-0.1,0,0,0.1c0,0.2,0.5,0,0.6-0.1
				c0.1,0,0.1-0.1,0.1-0.1c0,0,0,0.1,0,0c0-0.2-0.1-0.1,0-0.3c0.1-0.2,0.1-0.1,0-0.3c-0.1-0.1-0.1-0.2-0.2-0.3
				c-0.1-0.1,0-0.1-0.1-0.1c-0.1-0.1-0.2-0.1-0.2-0.2c0-0.1-0.2,0,0-0.1c0.2-0.1,0.1-0.1,0.2-0.1c0.1,0,0,0.1,0.1,0
				c0.1-0.1,0-0.1,0.1-0.1c0.3-0.1,0-0.4,0.3-0.5c0.1-0.1,0-0.2,0.1-0.3c0.1-0.1,0-0.1,0.1-0.1c0.1-0.1-0.1-0.2,0-0.4
				c0.1-0.3,0.5-0.1,0.6-0.3c0-0.1,0-0.2,0-0.2c0.1,0,0.2-0.1,0.2,0c0,0.4-0.3,0.3-0.2,0.7c0,0.2-0.4,0.1-0.5,0.2
				c-0.4,0.2,0.1,0.4-0.2,0.6c-0.1,0.1,0,0.1,0.1,0.1c0.1-0.1,0-0.1,0.1-0.1c0.2,0.1,0.3,0.2,0.5,0c0.3-0.3,0.4-0.3,0.7-0.6
				c0.1-0.1,0.2-0.3,0.3-0.4c0.2-0.2,0.4-0.5,0.5-0.7c0-0.1-0.1-0.3,0-0.4c0-0.2,0-0.3,0.2-0.5c0.1-0.1,0-0.1,0.1-0.1
				c0-0.1,0.1,0.1,0-0.1c-0.1-0.3,0-0.3,0-0.4c0,0-0.2-0.1-0.2-0.1c0,0,0.1,0-0.1-0.1c-0.2-0.1-0.2-0.1-0.2-0.1
				c-0.4,0.3,0.1,0.3-0.5,0.1c0-0.2-0.1-0.3-0.3-0.3c-0.1,0,0.2-0.2,0.2-0.2c0.2-0.1,0.3-0.2,0.4-0.3c0.2-0.2,0.3-0.2,0.5-0.4
				c0.2-0.2,0-0.1,0.1-0.2c0.1-0.1,0.2-0.1,0.2-0.2c0.2-0.3,0.7-0.2,1.1-0.1c0.1-0.1,0.2,0,0.3,0c0.1-0.1,0.1,0,0.2,0
				c0,0,0,0,0.1-0.1c0.1-0.1-0.1,0,0.1-0.1c0.2-0.1,0.2,0.1,0.3,0.1c0-0.1,0.3-0.1,0.3,0c0,0.1-0.2,0.1-0.1,0.2c0.1,0,0.2,0,0.3-0.1
				c0.1,0,0.2,0,0.2,0c0,0,0.2,0,0.2,0c0.1,0,0.1,0,0.1-0.1c0,0-0.2-0.1-0.2-0.1c0.1-0.2,0.2-0.2,0.3-0.3c0.1-0.2,0.2-0.2,0.2-0.3
				c0,0,0,0,0,0c0.1,0,0,0,0.1,0c0.1,0,0.5-0.1,0.7,0c0,0.1-0.1,0,0,0.1c0.1,0.1,0,0.1,0,0.1c0.1,0-0.1,0.1,0.1,0
				c0.3,0,0.2-0.1,0.4-0.2c0.3-0.1,0.2-0.1,0.2-0.4c0,0-0.1,0,0,0c0.2,0,0.1,0,0.2,0c0.1,0,0.1-0.1,0.1,0c-0.3,0.3,0,0.2-0.2,0.5
				c0,0,0.1-0.1,0,0c-0.1,0.2-0.3,0.1-0.4,0.2c-0.2,0.2-0.4,0.4-0.6,0.5c0,0.1-0.1,0.2-0.1,0.2c-0.6,0.2-0.4,0.2-0.7,0.6
				c-0.1,0.6,0.1,1.1,0.2,1.7c0.1,0,0.3-0.1,0.4-0.3c0,0,0,0,0-0.1c0-0.2,0-0.1,0-0.2c0.1,0,0.1,0,0.2,0c0.1,0,0,0.1,0.1,0
				c0.1-0.1,0-0.2,0-0.2c0.1-0.1-0.1,0,0.1-0.1c0.2-0.2,0.1,0,0.3-0.1c0.3-0.2-0.1-0.3,0.1-0.5c0-0.1,0.3,0.1,0.3-0.1
				c0-0.4-0.2-0.2,0-0.4c0.1-0.1,0-0.1-0.1-0.1c-0.1,0,0,0-0.1,0c-0.2-0.1,0-0.2,0-0.2c0.1-0.1,0.1-0.4,0.3-0.4c0.1,0,0.2,0.1,0.3,0
				c0.1,0,0.2-0.1,0.3-0.1c0,0,0,0,0,0c0,0.1-0.1,0,0,0.1s-0.1,0.1,0,0.1s0.1,0,0.1-0.1c0.1-0.2,0.5-0.2,0.7,0c0,0,0,0,0,0
				c0,0.1,0,0,0,0.1s0,0.1,0.1,0s0,0,0.1-0.1c0,0-0.1,0.1,0,0c0.2-0.1,0.2-0.2,0.4-0.3c0.2-0.2,0.4-0.3,0.6-0.3
				c0.3-0.2,0.4-0.2,0.7-0.2c0.2,0,0.2,0,0.3,0.1c0.1-0.1,0.1-0.2,0-0.2c-0.1-0.1,0,0-0.1-0.1c0-0.1,0,0,0-0.1
				c-0.1-0.2-0.1,0-0.1-0.2c0-0.1,0-0.1,0-0.1c0,0,0.1,0,0,0c-0.1-0.1-0.1-0.1-0.3-0.1c-0.2-0.2,0.2,0,0.2,0c0.1,0,0,0,0.1,0
				c0.1,0-0.1,0,0.1,0c0.1,0,0.1,0,0.1,0c0.1-0.1,0.2-0.1,0.1-0.2c0,0,0,0,0-0.1c0-0.1-0.1,0,0-0.1c0.1-0.2,0-0.1,0.1-0.1
				c0.1,0,0,0,0.1,0c0.1,0,0-0.1,0.1,0c0.1,0.2,0.3,0.3,0.5,0.3c0.1-0.1,0.2,0.1,0.2,0.1c0.1,0.1,0.2,0.1,0.3,0.1
				c0,0,0.2,0.1,0.2,0.1c0.2,0,0.3-0.2,0.3-0.3c0,0,0,0,0-0.1c0-0.1-0.1,0,0-0.1c0.1,0,0,0,0.1,0C86.8,121.9,86.9,121.8,87,121.7z
				 M52.6,121.6C52.6,121.6,52.6,121.6,52.6,121.6C52.6,121.6,52.6,121.6,52.6,121.6z M49.7,123.5C49.7,123.5,49.7,123.5,49.7,123.5
				C49.7,123.5,49.7,123.5,49.7,123.5z M49.8,129.3c-0.1,0.1-0.4,0-0.4,0.1c0.1-0.1,0.3-0.2,0.2-0.2
				C49.7,129.2,49.8,129.2,49.8,129.3z M52.6,129c-0.1,0.2-0.3,0.1-0.5,0.2c0,0-0.2,0-0.2,0c0,0,0,0,0,0c-0.1,0,0,0.1-0.1,0
				c-0.2-0.1-0.3-0.1-0.5-0.1c0-0.1-0.1-0.1-0.2-0.1c0,0-0.1-0.1-0.2,0c-0.1,0.1-0.4,0-0.5,0.1c-0.2,0.1-0.5,0.2-0.7,0.1
				c-0.3-0.1-0.1-0.1,0-0.2c0-0.1,0.1-0.3,0.2-0.3c0.2-0.5,0.6-0.4,1-0.4c-0.1,0.1-0.2,0.1-0.2,0.2c0,0.1,0.1,0.1,0.2,0.2
				c0,0,0,0.1,0,0.1c0.1,0.2,0.2,0,0.3,0c0.1-0.1,0.4,0,0.4-0.1c0,0-0.1-0.1-0.1-0.1c-0.1,0.1-0.2-0.1-0.2-0.1c0,0,0.1-0.1,0.1-0.1
				c0.2-0.1,0.3-0.1,0.5-0.2c0.1,0,0.2-0.1,0.3-0.1c0.1,0,0.1,0.1,0,0.1c-0.1,0-0.1,0-0.1,0c-0.1,0-0.1,0-0.1,0.1c0,0,0,0-0.1,0
				c0,0,0,0,0,0c-0.1,0.1,0.2,0,0.1,0.2c-0.1,0.1-0.2,0.1-0.3,0.2c0.1,0.1,0.2,0.3,0.3,0.3c0.1,0,0,0,0.1,0c0.1,0.1,0.1,0.1,0.2,0.1
				c0.1,0,0,0,0.1,0c0.1,0.1,0.2,0.1,0.2,0.1C52.4,129,52.7,128.9,52.6,129z M54.2,129c0,0.1-0.1,0.1-0.2,0.1c0-0.1,0-0.1,0-0.2
				c-0.2-0.2-0.1-0.3,0-0.4c0,0.1,0,0.2,0,0.2C54,128.8,54.2,128.9,54.2,129z M54.3,127.7c-0.1,0,0,0.1-0.1,0
				c-0.1-0.1-0.2,0-0.3-0.1c0-0.1-0.1-0.1-0.1-0.1c0.1-0.1,0-0.3,0.1-0.4c0,0.1,0.3,0,0.4,0.1C54.3,127.4,54.4,127.6,54.3,127.7z
				 M61.6,136C61.6,136,61.6,136.1,61.6,136L61.6,136z M67.8,137.2C67.8,137.2,67.8,137.2,67.8,137.2
				C67.8,137.2,67.8,137.2,67.8,137.2z M73.4,128.7C73.4,128.7,73.4,128.7,73.4,128.7L73.4,128.7z"/>
		</g>
	</g>
</g>
</svg>
