<?xml version="1.0" encoding="utf-8"?>
<!-- Generator: Adobe Illustrator 25.2.3, SVG Export Plug-In . SVG Version: 6.00 Build 0)  -->
<svg version="1.1" id="Ebene_1" xmlns="http://www.w3.org/2000/svg" xmlns:xlink="http://www.w3.org/1999/xlink" x="0px" y="0px"
	 viewBox="0 0 236.8 160.7" style="enable-background:new 0 0 236.8 160.7;" xml:space="preserve">
<style type="text/css">
	.st0{fill:#FFFFFF;}
	.st1{font-family:'Bebas-Regular';}
	.st2{font-size:43.5361px;}
</style>
<g>
	<g>
		<g>
			<g>
				<circle class="st0" cx="20.7" cy="120.8" r="8.2"/>
				<circle class="st0" cx="11.5" cy="103.4" r="7.5"/>
				<ellipse transform="matrix(0.9566 -0.2913 0.2913 0.9566 -23.9376 5.5672)" class="st0" cx="6.7" cy="83.2" rx="6.7" ry="6.7"/>
				<circle class="st0" cx="8.6" cy="62.8" r="6.1"/>
				
					<ellipse transform="matrix(0.4546 -0.8907 0.8907 0.4546 -30.6467 37.4156)" class="st0" cx="15.2" cy="43.7" rx="5.4" ry="5.4"/>
				<path class="st0" d="M31.3,28.7c-0.8,2.6-3.5,4.1-6.1,3.4c-2.6-0.8-4.1-3.5-3.4-6.1s3.5-4.1,6.1-3.4
					C30.6,23.3,32.1,26.1,31.3,28.7z"/>
				<ellipse transform="matrix(0.8748 -0.4846 0.4846 0.8748 -1.5675 21.9482)" class="st0" cx="41.7" cy="14" rx="4" ry="4"/>
				<path class="st0" d="M57.3,8.1c-0.5,1.8-2.5,2.9-4.3,2.4c-1.8-0.5-2.9-2.5-2.4-4.3c0.5-1.8,2.5-2.9,4.3-2.4
					C56.8,4.3,57.8,6.2,57.3,8.1z"/>
				<circle class="st0" cx="65.9" cy="2.7" r="2.7"/>
				<g>
					
						<ellipse transform="matrix(0.9899 -0.1415 0.1415 0.9899 -18.9262 6.0225)" class="st0" cx="32.9" cy="136.1" rx="7.5" ry="7.5"/>
					
						<ellipse transform="matrix(0.9989 -4.737050e-02 4.737050e-02 0.9989 -6.9619 2.527)" class="st0" cx="49.8" cy="148.1" rx="6.7" ry="6.7"/>
					
						<ellipse transform="matrix(0.8346 -0.5509 0.5509 0.8346 -73.4619 63.7041)" class="st0" cx="69.3" cy="154.2" rx="6.1" ry="6.1"/>
					
						<ellipse transform="matrix(0.9981 -6.138832e-02 6.138832e-02 0.9981 -9.3625 5.7897)" class="st0" cx="89.5" cy="155.3" rx="5.4" ry="5.4"/>
					<ellipse transform="matrix(0.7796 -0.6263 0.6263 0.7796 -70.5293 101.5843)" class="st0" cx="109.1" cy="151" rx="5" ry="5"/>
					
						<ellipse transform="matrix(0.8159 -0.5782 0.5782 0.8159 -58.7603 99.6444)" class="st0" cx="127.1" cy="142.1" rx="4" ry="4"/>
					<circle class="st0" cx="138.1" cy="133.3" r="3.5"/>
					
						<ellipse transform="matrix(0.1394 -0.9902 0.9902 0.1394 3.5084 252.0067)" class="st0" cx="146.7" cy="124" rx="2.7" ry="2.7"/>
				</g>
			</g>
			<g>
				<ellipse transform="matrix(0.1002 -0.995 0.995 0.1002 -34.6823 76.8762)" class="st0" cx="25.2" cy="57.6" rx="6.7" ry="6.7"/>
				<circle class="st0" cx="20.8" cy="73.9" r="6.2"/>
				<ellipse transform="matrix(0.8666 -0.499 0.499 0.8666 -41.8184 23.0555)" class="st0" cx="22.2" cy="89.7" rx="5.5" ry="5.5"/>
				<ellipse transform="matrix(0.5442 -0.839 0.839 0.5442 -76.0664 71.7028)" class="st0" cx="28" cy="105.9" rx="4.8" ry="4.8"/>
				
					<ellipse transform="matrix(0.7225 -0.6913 0.6913 0.7225 -72.5202 58.7192)" class="st0" cx="36.9" cy="119.7" rx="4.4" ry="4.4"/>
				<path class="st0" d="M53.1,132.1c-0.6,2.1-2.7,3.3-4.8,2.7c-2.1-0.6-3.3-2.7-2.7-4.8c0.6-2.1,2.7-3.3,4.8-2.7
					S53.6,130,53.1,132.1z"/>
				
					<ellipse transform="matrix(0.3568 -0.9342 0.9342 0.3568 -88.3788 148.7159)" class="st0" cx="63.8" cy="138.5" rx="3.4" ry="3.4"/>
				<g>
					
						<ellipse transform="matrix(0.5028 -0.8644 0.8644 0.5028 -20.1725 48.8355)" class="st0" cx="32.4" cy="42" rx="6.2" ry="6.2"/>
					
						<ellipse transform="matrix(0.4427 -0.8967 0.8967 0.4427 -3.1282 55.7462)" class="st0" cx="43.3" cy="30.4" rx="5.5" ry="5.5"/>
					
						<ellipse transform="matrix(0.4921 -0.8706 0.8706 0.4921 10.7934 61.1323)" class="st0" cx="57.8" cy="21.3" rx="4.8" ry="4.8"/>
					<ellipse transform="matrix(0.9029 -0.4299 0.4299 0.9029 0.2495 33.1074)" class="st0" cx="73.4" cy="16" rx="4.4" ry="4.4"/>
					
						<ellipse transform="matrix(0.3132 -0.9497 0.9497 0.3132 47.8821 95.8047)" class="st0" cx="90.2" cy="14.8" rx="3.9" ry="3.9"/>
					
						<ellipse transform="matrix(8.747096e-02 -0.9962 0.9962 8.747096e-02 79.0298 122.1422)" class="st0" cx="106.2" cy="17.9" rx="3.4" ry="3.4"/>
				</g>
			</g>
			<g>
				<circle class="st0" cx="53.3" cy="41.2" r="4.7"/>
				<g>
					<path class="st0" d="M48.2,50.5c0.3,2.3-1.4,4.4-3.7,4.7c-2.3,0.3-4.4-1.4-4.7-3.7c-0.3-2.3,1.4-4.4,3.7-4.7
						C45.8,46.5,47.9,48.1,48.2,50.5z"/>
					<circle class="st0" cx="37.9" cy="63.1" r="3.7"/>
					<path class="st0" d="M38.2,75c0.2,1.8-1,3.4-2.8,3.6c-1.8,0.2-3.4-1-3.6-2.8c-0.2-1.8,1-3.4,2.8-3.6C36.3,72,37.9,73.2,38.2,75
						z"/>
					<circle class="st0" cx="35.4" cy="89.2" r="2.8"/>
					<path class="st0" d="M42.1,101.5c0.2,1.3-0.8,2.5-2.1,2.7c-1.3,0.2-2.5-0.8-2.7-2.1c-0.2-1.3,0.8-2.5,2.1-2.7
						C40.7,99.2,41.9,100.2,42.1,101.5z"/>
					<path class="st0" d="M48.8,113.2c0.1,1.1-0.6,2-1.7,2.2c-1.1,0.1-2-0.6-2.2-1.7c-0.1-1.1,0.6-2,1.7-2.2
						C47.7,111.3,48.7,112.1,48.8,113.2z"/>
				</g>
				<circle class="st0" cx="65.1" cy="32.7" r="4.2"/>
				<circle class="st0" cx="78.2" cy="29.2" r="3.7"/>
				<circle class="st0" cx="90.8" cy="28.8" r="3.2"/>
				<path class="st0" d="M101.8,33.9c1.5,0.5,3-0.3,3.5-1.7c0.5-1.5-0.3-3-1.7-3.5c-1.5-0.5-3,0.3-3.5,1.7
					C99.6,31.8,100.4,33.4,101.8,33.9z"/>
				<path class="st0" d="M112.5,38.7c1.2,0.4,2.6-0.2,3-1.5c0.4-1.2-0.2-2.6-1.5-3c-1.2-0.4-2.6,0.2-3,1.5
					C110.6,37,111.3,38.3,112.5,38.7z"/>
				<path class="st0" d="M121.1,44.9c1,0.3,2.1-0.2,2.5-1.2c0.3-1-0.2-2.1-1.2-2.5c-1-0.3-2.1,0.2-2.5,1.2
					C119.5,43.5,120.1,44.6,121.1,44.9z"/>
			</g>
		</g>
	</g>
	<text transform="matrix(1 0 0 1 49.758 100.6346)" class="st0 st1 st2">CATADIOPTRE</text>
</g>
</svg>
