<?xml version="1.0" encoding="utf-8"?>
<!-- Generator: Adobe Illustrator 25.2.3, SVG Export Plug-In . SVG Version: 6.00 Build 0)  -->
<svg version="1.1" id="Ebene_1" xmlns="http://www.w3.org/2000/svg" xmlns:xlink="http://www.w3.org/1999/xlink" x="0px" y="0px"
	 viewBox="0 0 315.6 139.3" style="enable-background:new 0 0 315.6 139.3;" xml:space="preserve">
<style type="text/css">
	.st0{fill:none;stroke:#82C1B6;stroke-width:33.0377;stroke-miterlimit:10;}
	.st1{fill:#82C1B6;}
</style>
<g>
	<g>
		<circle class="st0" cx="64.7" cy="64.7" r="48.2"/>
		<circle class="st1" cx="109.4" cy="122" r="17.3"/>
	</g>
	<g>
		<g>
			<path class="st1" d="M179.1,77.8c-0.8,0.9-1.7,1.7-2.8,2.2s-2.3,0.7-3.6,0.7c-1.8,0-3.4-0.4-4.8-1.1c-1.4-0.8-3-2.1-4.9-4
				c-2.1-0.3-4.1-1-5.7-2.1c-1.7-1.1-3-2.5-3.9-4.3c-0.9-1.8-1.4-3.7-1.4-5.8c0-2.3,0.6-4.4,1.7-6.3c1.1-1.9,2.7-3.3,4.6-4.4
				c2-1.1,4.2-1.6,6.7-1.6c2.5,0,4.7,0.5,6.6,1.6c2,1.1,3.5,2.5,4.6,4.4c1.1,1.9,1.7,4,1.7,6.3c0,2.8-0.8,5.2-2.3,7.3
				c-1.5,2.1-3.6,3.5-6.2,4.3c0.6,0.6,1.1,1,1.6,1.3c0.5,0.3,1.1,0.4,1.7,0.4c1.5,0,2.8-0.6,3.9-1.8L179.1,77.8z M158.5,67.3
				c0.6,1.2,1.5,2,2.7,2.7c1.1,0.6,2.4,1,3.8,1c1.4,0,2.7-0.3,3.8-1c1.1-0.6,2-1.5,2.7-2.7c0.6-1.2,1-2.5,1-3.9s-0.3-2.8-1-3.9
				c-0.6-1.2-1.5-2.1-2.7-2.7c-1.1-0.6-2.4-1-3.8-1c-1.4,0-2.7,0.3-3.8,1c-1.1,0.6-2,1.5-2.7,2.7c-0.6,1.2-1,2.5-1,3.9
				S157.8,66.2,158.5,67.3z"/>
			<path class="st1" d="M197.3,70.2h-11l-2.1,5.1h-5.6l10.6-23.7h5.4l10.6,23.7h-5.8L197.3,70.2z M195.6,66l-3.8-9.1l-3.8,9.1H195.6
				z"/>
			<path class="st1" d="M207.7,51.5h5.5v19.2h11.9v4.5h-17.4V51.5z"/>
			<path class="st1" d="M228.1,51.5h5.5v23.7h-5.5V51.5z"/>
			<path class="st1" d="M255,52.6c1.5,0.7,2.7,1.7,3.6,3c0.8,1.3,1.3,2.8,1.3,4.6c0,1.7-0.4,3.3-1.3,4.6s-2,2.3-3.6,3
				c-1.5,0.7-3.4,1-5.5,1h-4.8v6.5h-5.5V51.5h10.3C251.6,51.5,253.4,51.9,255,52.6z M253,63.2c0.9-0.7,1.3-1.7,1.3-3
				c0-1.3-0.4-2.4-1.3-3.1s-2.1-1.1-3.8-1.1h-4.5v8.2h4.5C250.9,64.2,252.1,63.9,253,63.2z"/>
			<path class="st1" d="M266.4,74.9c-1.8-0.5-3.2-1.2-4.2-2l1.9-4.1c1,0.7,2.2,1.3,3.6,1.8c1.4,0.5,2.8,0.7,4.2,0.7
				c1.6,0,2.7-0.2,3.5-0.7c0.7-0.5,1.1-1.1,1.1-1.8c0-0.6-0.2-1-0.7-1.4s-1-0.7-1.7-0.9c-0.7-0.2-1.6-0.5-2.8-0.7
				c-1.8-0.4-3.3-0.9-4.4-1.3c-1.2-0.4-2.1-1.1-3-2.1c-0.8-0.9-1.2-2.2-1.2-3.8c0-1.4,0.4-2.6,1.1-3.7c0.7-1.1,1.9-2,3.4-2.7
				c1.5-0.7,3.3-1,5.5-1c1.5,0,3,0.2,4.4,0.5c1.4,0.4,2.7,0.9,3.8,1.6l-1.7,4.2c-2.2-1.2-4.4-1.9-6.6-1.9c-1.5,0-2.7,0.2-3.4,0.7
				c-0.7,0.5-1.1,1.2-1.1,2s0.4,1.4,1.3,1.8c0.8,0.4,2.1,0.8,3.9,1.2c1.8,0.4,3.3,0.9,4.4,1.3c1.2,0.4,2.1,1.1,3,2
				c0.8,0.9,1.2,2.2,1.2,3.8c0,1.4-0.4,2.6-1.1,3.7c-0.8,1.1-1.9,2-3.4,2.7c-1.5,0.7-3.4,1-5.5,1C270,75.6,268.2,75.4,266.4,74.9z"
				/>
			<path class="st1" d="M285.7,51.5h5.5v23.7h-5.5V51.5z"/>
			<path class="st1" d="M299.1,74.9c-1.8-0.5-3.2-1.2-4.2-2l1.9-4.1c1,0.7,2.2,1.3,3.6,1.8c1.4,0.5,2.8,0.7,4.2,0.7
				c1.6,0,2.7-0.2,3.5-0.7c0.7-0.5,1.1-1.1,1.1-1.8c0-0.6-0.2-1-0.7-1.4s-1-0.7-1.7-0.9c-0.7-0.2-1.6-0.5-2.8-0.7
				c-1.8-0.4-3.3-0.9-4.4-1.3c-1.2-0.4-2.1-1.1-3-2.1c-0.8-0.9-1.2-2.2-1.2-3.8c0-1.4,0.4-2.6,1.1-3.7c0.7-1.1,1.9-2,3.4-2.7
				c1.5-0.7,3.3-1,5.5-1c1.5,0,3,0.2,4.4,0.5c1.4,0.4,2.7,0.9,3.8,1.6l-1.7,4.2c-2.2-1.2-4.4-1.9-6.6-1.9c-1.5,0-2.7,0.2-3.4,0.7
				c-0.7,0.5-1.1,1.2-1.1,2s0.4,1.4,1.3,1.8c0.8,0.4,2.1,0.8,3.9,1.2c1.8,0.4,3.3,0.9,4.4,1.3c1.2,0.4,2.1,1.1,3,2
				c0.8,0.9,1.2,2.2,1.2,3.8c0,1.4-0.4,2.6-1.1,3.7c-0.8,1.1-1.9,2-3.4,2.7c-1.5,0.7-3.4,1-5.5,1C302.7,75.6,300.9,75.4,299.1,74.9z
				"/>
		</g>
		<g>
			<g>
				<path class="st1" d="M190.9,88.7h1.2v11.8h-1.2V88.7z"/>
				<path class="st1" d="M210.9,88.7v11.8h-1l-7.6-9.5v9.5H201V88.7h1l7.6,9.5v-9.5H210.9z"/>
				<path class="st1" d="M220.5,100.2c-0.8-0.3-1.4-0.7-1.9-1.1l0.5-1c0.4,0.4,1,0.8,1.7,1s1.4,0.4,2.2,0.4c1.1,0,1.8-0.2,2.4-0.6
					c0.5-0.4,0.8-0.9,0.8-1.5c0-0.5-0.1-0.8-0.4-1.1c-0.3-0.3-0.6-0.5-1.1-0.6c-0.4-0.2-1-0.3-1.7-0.5c-0.9-0.2-1.6-0.4-2.1-0.6
					c-0.5-0.2-1-0.5-1.4-1c-0.4-0.4-0.6-1-0.6-1.7c0-0.6,0.2-1.1,0.5-1.6c0.3-0.5,0.8-0.9,1.4-1.2c0.6-0.3,1.5-0.4,2.4-0.4
					c0.7,0,1.3,0.1,2,0.3s1.2,0.4,1.7,0.8l-0.4,1c-0.5-0.3-1-0.6-1.6-0.7c-0.6-0.2-1.1-0.2-1.6-0.2c-1,0-1.8,0.2-2.3,0.6
					c-0.5,0.4-0.8,0.9-0.8,1.5c0,0.5,0.1,0.8,0.4,1.1c0.3,0.3,0.6,0.5,1.1,0.7c0.4,0.2,1,0.3,1.7,0.5c0.9,0.2,1.6,0.4,2.1,0.6
					c0.5,0.2,1,0.5,1.4,0.9c0.4,0.4,0.6,1,0.6,1.7c0,0.6-0.2,1.1-0.5,1.6c-0.3,0.5-0.8,0.9-1.5,1.2c-0.7,0.3-1.5,0.4-2.4,0.4
					C222.1,100.6,221.3,100.4,220.5,100.2z"/>
				<path class="st1" d="M235.1,88.7h1.2v11.8h-1.2V88.7z"/>
				<path class="st1" d="M253.5,94.6h1.2v4.5c-0.5,0.5-1.2,0.9-2,1.1s-1.5,0.4-2.4,0.4c-1.2,0-2.2-0.3-3.2-0.8
					c-0.9-0.5-1.7-1.2-2.2-2.1c-0.5-0.9-0.8-1.9-0.8-3.1s0.3-2.2,0.8-3.1c0.5-0.9,1.3-1.6,2.2-2.1c0.9-0.5,2-0.8,3.2-0.8
					c0.9,0,1.7,0.1,2.5,0.4c0.8,0.3,1.4,0.7,1.9,1.3l-0.8,0.8c-0.9-0.9-2.1-1.4-3.5-1.4c-1,0-1.8,0.2-2.6,0.6
					c-0.8,0.4-1.4,1-1.8,1.7s-0.7,1.6-0.7,2.5s0.2,1.7,0.7,2.5c0.4,0.7,1,1.3,1.8,1.7c0.8,0.4,1.6,0.6,2.6,0.6
					c1.2,0,2.2-0.3,3.1-0.9V94.6z"/>
				<path class="st1" d="M273.1,88.7v11.8h-1.2V95h-7.4v5.4h-1.2V88.7h1.2v5.2h7.4v-5.2H273.1z"/>
				<path class="st1" d="M284.3,89.8h-4.1v-1.1h9.5v1.1h-4.1v10.7h-1.2V89.8z"/>
			</g>
		</g>
	</g>
</g>
</svg>
