<?xml version="1.0" encoding="utf-8"?>
<!-- Generator: Adobe Illustrator 25.2.3, SVG Export Plug-In . SVG Version: 6.00 Build 0)  -->
<svg version="1.1" id="Ebene_1" xmlns="http://www.w3.org/2000/svg" xmlns:xlink="http://www.w3.org/1999/xlink" x="0px" y="0px"
	 viewBox="0 0 196.8 65.5" style="enable-background:new 0 0 196.8 65.5;" xml:space="preserve">
<style type="text/css">
	.st0{clip-path:url(#SVGID_2_);fill:url(#SVGID_3_);}
	.st1{clip-path:url(#SVGID_5_);fill:url(#SVGID_6_);}
	.st2{clip-path:url(#SVGID_8_);fill:url(#SVGID_9_);}
	.st3{clip-path:url(#SVGID_11_);fill:url(#SVGID_12_);}
	.st4{clip-path:url(#SVGID_14_);fill:url(#SVGID_15_);}
	.st5{clip-path:url(#SVGID_17_);fill:url(#SVGID_18_);}
</style>
<g>
	<g>
		<defs>
			<path id="SVGID_1_" d="M1.3,1c0.9-0.7,1.8-1,2.8-1c1,0,1.9,0.3,2.8,1c0.8,0.7,1.3,1.7,1.3,3.1v38.5c0,1.3-0.4,2.3-1.3,3
				c-0.8,0.7-1.8,1-2.8,1c-1,0-2-0.3-2.8-1c-0.9-0.7-1.3-1.7-1.3-3V4.1C0,2.7,0.4,1.7,1.3,1z"/>
		</defs>
		<clipPath id="SVGID_2_">
			<use xlink:href="#SVGID_1_"  style="overflow:visible;"/>
		</clipPath>
		<linearGradient id="SVGID_3_" gradientUnits="userSpaceOnUse" x1="-126.9509" y1="30.1951" x2="326.0728" y2="30.1951">
			<stop  offset="0" style="stop-color:#F12572"/>
			<stop  offset="0.6101" style="stop-color:#F39140"/>
		</linearGradient>
		<rect x="-127" y="-224" class="st0" width="453" height="508.5"/>
	</g>
	<g>
		<defs>
			<path id="SVGID_4_" d="M12.2,30c0-2.4,0.5-4.7,1.4-6.8c0.9-2.1,2.2-4,3.8-5.6c1.6-1.6,3.5-2.9,5.7-3.8c2.2-0.9,4.5-1.4,7.1-1.4
				c2.5,0,4.9,0.5,7.1,1.4c2.2,0.9,4.1,2.2,5.7,3.8c1.6,1.6,2.9,3.5,3.8,5.6c0.9,2.1,1.4,4.4,1.4,6.9v13.2c0,1.2-0.4,2.1-1.3,2.7
				c-0.8,0.6-1.8,0.9-2.8,0.9c-1,0-2-0.3-2.8-0.9c-0.9-0.6-1.3-1.5-1.3-2.7V30c0-1.7-0.3-3.2-0.8-4.5c-0.6-1.3-1.3-2.4-2.2-3.2
				c-0.9-0.9-1.9-1.5-3.1-1.9c-1.2-0.4-2.4-0.6-3.6-0.6c-1.3,0-2.5,0.2-3.7,0.6c-1.2,0.4-2.2,1.1-3.2,1.9c-0.9,0.9-1.7,1.9-2.2,3.2
				c-0.6,1.3-0.8,2.8-0.8,4.5c0,1.3,0.2,2.5,0.7,3.8c0.5,1.2,1.1,2.3,2,3.3c0.9,1,1.9,1.8,3.1,2.4c1.2,0.6,2.5,0.9,3.9,0.9
				c0.3,0,0.6,0,1.1-0.1c0.4,0,0.9,0,1.4,0.1c0.5,0.1,1,0.3,1.5,0.6c0.5,0.3,0.9,0.8,1.2,1.5c0.4,0.8,0.5,1.6,0.3,2.2
				c-0.1,0.6-0.4,1.2-0.9,1.6c-0.5,0.4-1.1,0.8-2,1c-0.8,0.2-1.7,0.3-2.7,0.3c-1.7,0-3.6-0.4-5.7-1.1c-2.1-0.7-4-1.8-5.8-3.2
				c-1.8-1.4-3.3-3.3-4.5-5.5C12.8,35.6,12.2,33,12.2,30z"/>
		</defs>
		<clipPath id="SVGID_5_">
			<use xlink:href="#SVGID_4_"  style="overflow:visible;"/>
		</clipPath>
		<linearGradient id="SVGID_6_" gradientUnits="userSpaceOnUse" x1="-126.9509" y1="30.1951" x2="326.0728" y2="30.1951">
			<stop  offset="0" style="stop-color:#F12572"/>
			<stop  offset="0.6101" style="stop-color:#F39140"/>
		</linearGradient>
		<rect x="-127" y="-224" class="st1" width="453" height="508.5"/>
	</g>
	<g>
		<defs>
			<path id="SVGID_7_" d="M52.2,30c0-2.6,0.5-5,1.5-7.1c1-2.2,2.3-4,4-5.6c1.7-1.6,3.6-2.8,5.7-3.6c2.2-0.9,4.4-1.3,6.8-1.3
				c1.1,0,2.2,0.1,3.4,0.3c1.1,0.2,2.3,0.5,3.4,1c2.2,0.8,4,2,5.6,3.5c1.6,1.5,2.8,3.1,3.7,5c0.9,1.8,1.5,3.8,1.7,5.8
				c0.2,2,0.1,4.1-0.3,6.1c-0.5,2-1.3,3.9-2.5,5.7c-1.2,1.8-2.7,3.3-4.7,4.7c1.1,1.3,1.9,2.7,2.4,4.3s0.7,3.1,0.6,4.7
				c-0.1,1.6-0.5,3.1-1.1,4.5c-0.7,1.5-1.6,2.8-2.7,3.9c-1.3,1.3-2.7,2.2-4.4,2.9c-1.6,0.6-3.3,0.9-5,0.9c-2.3,0-4.5-0.6-6.6-1.7
				c-2.1-1.2-3.8-2.8-5-5c-0.4-0.8-0.6-1.6-0.6-2.3c0.1-0.7,0.3-1.3,0.7-1.9c0.4-0.6,1-1,1.6-1.3c0.6-0.3,1.3-0.5,2-0.5
				c0.6,0,1.2,0.2,1.8,0.5c0.6,0.3,1.1,0.9,1.5,1.6c0.4,0.9,1.1,1.5,1.9,1.9c0.8,0.4,1.7,0.6,2.6,0.6c1.3,0,2.5-0.4,3.5-1.2
				c1.1-0.8,1.6-2.1,1.6-3.8c0-0.9-0.2-1.6-0.5-2.3c-0.3-0.7-0.8-1.2-1.3-1.6c-0.5-0.4-1.1-0.7-1.8-0.9c-0.7-0.2-1.3-0.2-2-0.2
				c-2.4,0-4.7-0.5-6.8-1.5c-2.1-0.9-4-2.2-5.6-3.7c-1.6-1.6-2.9-3.4-3.8-5.5C52.7,34.6,52.2,32.4,52.2,30z M80,29.9
				c0-1.6-0.3-3-0.8-4.2c-0.6-1.2-1.3-2.2-2.2-3C76,22,75,21.4,73.8,21c-1.2-0.4-2.4-0.6-3.6-0.6c-1.2,0-2.5,0.2-3.6,0.6
				c-1.2,0.4-2.2,1-3.2,1.8c-0.9,0.8-1.7,1.8-2.2,3c-0.6,1.2-0.8,2.6-0.8,4.2c0,1.6,0.3,3,0.8,4.2c0.6,1.2,1.3,2.2,2.2,2.9
				c0.9,0.8,2,1.4,3.2,1.8c1.2,0.4,2.4,0.6,3.6,0.6c1.2,0,2.5-0.2,3.6-0.6c1.2-0.4,2.2-1,3.1-1.8c0.9-0.8,1.6-1.8,2.2-2.9
				C79.7,32.9,80,31.6,80,29.9z"/>
		</defs>
		<clipPath id="SVGID_8_">
			<use xlink:href="#SVGID_7_"  style="overflow:visible;"/>
		</clipPath>
		<linearGradient id="SVGID_9_" gradientUnits="userSpaceOnUse" x1="-126.9509" y1="30.1951" x2="326.0728" y2="30.1951">
			<stop  offset="0" style="stop-color:#F12572"/>
			<stop  offset="0.6101" style="stop-color:#F39140"/>
		</linearGradient>
		<rect x="-127" y="-224" class="st2" width="453" height="508.5"/>
	</g>
	<g>
		<defs>
			<path id="SVGID_10_" d="M93,30c0-2.4,0.5-4.7,1.4-6.8c0.9-2.1,2.2-4,3.8-5.6c1.6-1.6,3.5-2.9,5.7-3.8c2.2-0.9,4.5-1.4,7.1-1.4
				c2.5,0,4.9,0.5,7.1,1.4c2.2,0.9,4.1,2.2,5.7,3.8c1.6,1.6,2.9,3.5,3.8,5.6c0.9,2.1,1.4,4.4,1.4,6.9c0,2.4-0.5,4.7-1.4,6.8
				c-0.9,2.1-2.2,4-3.8,5.6c-1.6,1.6-3.5,2.9-5.7,3.8c-2.2,0.9-4.6,1.4-7.1,1.4c-2.5,0-4.9-0.5-7.1-1.4c-2.2-0.9-4.1-2.2-5.7-3.8
				c-1.6-1.6-2.9-3.5-3.8-5.6C93.5,34.6,93,32.3,93,30z M111,20.4c-2.1,0-3.9,0.5-5.4,1.4c-1.4,1-2.5,2.1-3.3,3.5
				c-0.7,1.4-1.1,2.9-1.1,4.6c0,1.7,0.4,3.2,1.1,4.6c0.7,1.4,1.8,2.6,3.2,3.5c1.4,1,3.3,1.4,5.4,1.4c2.2,0,4-0.5,5.4-1.4
				c1.4-1,2.5-2.1,3.2-3.5c0.7-1.4,1.1-2.9,1.1-4.6c0-1.7-0.4-3.2-1.1-4.6c-0.7-1.4-1.8-2.6-3.2-3.5C115,20.8,113.1,20.4,111,20.4z"
				/>
		</defs>
		<clipPath id="SVGID_11_">
			<use xlink:href="#SVGID_10_"  style="overflow:visible;"/>
		</clipPath>
		<linearGradient id="SVGID_12_" gradientUnits="userSpaceOnUse" x1="-126.9509" y1="30.1951" x2="326.0728" y2="30.1951">
			<stop  offset="0" style="stop-color:#F12572"/>
			<stop  offset="0.6101" style="stop-color:#F39140"/>
		</linearGradient>
		<rect x="-127" y="-224" class="st3" width="453" height="508.5"/>
	</g>
	<g>
		<defs>
			<path id="SVGID_13_" d="M166,21.4c1-2,2.2-3.6,3.8-4.9c1.6-1.3,3.4-2.3,5.3-3c2-0.7,4-1,6-1c2,0,3.9,0.3,5.8,1
				c1.9,0.6,3.5,1.6,5,2.9c1.5,1.3,2.6,2.9,3.5,4.9c0.9,2,1.3,4.3,1.3,7v14.4c0,1.3-0.4,2.3-1.3,3c-0.9,0.7-1.8,1-2.8,1
				c-1,0-1.9-0.3-2.8-1c-0.8-0.7-1.3-1.7-1.3-3.1V28.1c0-1.3-0.2-2.4-0.7-3.4c-0.5-1-1.1-1.8-1.8-2.4c-0.7-0.6-1.6-1.1-2.6-1.5
				c-1-0.3-2-0.5-2.9-0.5c-1,0-1.9,0.2-2.9,0.5c-1,0.3-1.8,0.8-2.5,1.5c-0.7,0.6-1.3,1.5-1.8,2.4c-0.5,1-0.7,2.1-0.7,3.4v14.5
				c0,1.3-0.4,2.4-1.3,3c-0.8,0.7-1.8,1-2.8,1c-1,0-2-0.3-2.8-1c-0.8-0.7-1.3-1.7-1.3-3V28.2C164.6,25.6,165,23.3,166,21.4z"/>
		</defs>
		<clipPath id="SVGID_14_">
			<use xlink:href="#SVGID_13_"  style="overflow:visible;"/>
		</clipPath>
		<linearGradient id="SVGID_15_" gradientUnits="userSpaceOnUse" x1="-126.9509" y1="30.1951" x2="326.0728" y2="30.1951">
			<stop  offset="0" style="stop-color:#F12572"/>
			<stop  offset="0.6101" style="stop-color:#F39140"/>
		</linearGradient>
		<rect x="-127" y="-224" class="st4" width="453" height="508.5"/>
	</g>
	<g>
		<defs>
			<path id="SVGID_16_" d="M157,27.8c-0.6-1.5-1.5-2.8-2.6-3.9c-1.1-1.1-2.4-2-3.9-2.6c-1.5-0.6-3.1-0.9-4.9-0.9s-3.4,0.3-4.9,1
				c-1.5,0.6-2.8,1.5-3.9,2.6c-1.1,1.1-2,2.4-2.6,3.9c-0.6,1.5-0.9,3-0.9,4.7c0,1.6,0.3,3.2,0.9,4.6c0.6,1.5,1.5,2.8,2.6,3.9
				c1.1,1.1,2.4,2,3.9,2.6c1.5,0.6,3.1,1,4.9,1s3.4-0.3,4.9-1c1.5-0.6,2.8-1.5,3.9-2.6c1.1-1.1,2-2.4,2.6-3.8c0.6-1.5,0.9-3,0.9-4.7
				C158,30.8,157.7,29.3,157,27.8z"/>
		</defs>
		<clipPath id="SVGID_17_">
			<use xlink:href="#SVGID_16_"  style="overflow:visible;"/>
		</clipPath>
		<linearGradient id="SVGID_18_" gradientUnits="userSpaceOnUse" x1="-126.9509" y1="30.1951" x2="326.0728" y2="30.1951">
			<stop  offset="0" style="stop-color:#F12572"/>
			<stop  offset="0.6101" style="stop-color:#F39140"/>
		</linearGradient>
		<rect x="-127" y="-224" class="st5" width="453" height="508.5"/>
	</g>
</g>
</svg>
