<?xml version="1.0" encoding="utf-8"?>
<!-- Generator: Adobe Illustrator 25.2.3, SVG Export Plug-In . SVG Version: 6.00 Build 0)  -->
<svg version="1.1" id="Ebene_1" xmlns="http://www.w3.org/2000/svg" xmlns:xlink="http://www.w3.org/1999/xlink" x="0px" y="0px"
	 viewBox="0 0 551 301.3" style="enable-background:new 0 0 551 301.3;" xml:space="preserve">
<g>
	<path d="M269.5,282.5c-6.3-4-13.1-7.2-19.1-11.7c-12.6-9.5-22.5-21.2-29.9-35.1c-0.6-1.1-1.2-2.2-1.8-3.3c-1.6,0.1-1.8,1.5-2.3,2.3
		c-16.6,27.3-40.6,44.4-71.3,52.5c-26.5,7-53,8.1-79.7,1.5c-19.2-4.8-35.9-14-48.8-29.3c-8.2-9.7-13-21.3-15.1-33.9
		c-3.6-22.2-1.1-43.2,11.9-62.2c10.1-14.8,24.4-24.1,40.6-30.8c16.3-6.7,33.5-9.9,51-11.5c29.3-2.7,58.6-1,88-1.5
		c4.9-0.1,4.9,0,4.9-5c-0.1-11.1-1.5-21.9-5.3-32.4c-8.2-22.7-24.7-35.4-48.1-39.9c-11.3-2.2-22.6-2.9-34-2.2
		C86.6,41.5,65.1,49.3,46,63.6c-2.7,2.1-5.5,4.2-8,6.5c-1.6,1.4-2.5,1.6-4-0.1C26.5,61,19,52.1,11.3,43.4c-1.4-1.6-0.7-2.4,0.5-3.4
		c20.8-18.5,45-30,72.1-35.8c29.3-6.3,58.5-5.7,87.2,3.3c22.3,7,39.2,20.8,51.3,40.8c0.7,1.2,1.1,2.6,2.6,3.4
		c7.7-11.6,17.1-21.4,28.5-29.3c18.2-12.6,38.3-20,60.5-21.7c25.5-1.9,49.7,2.4,72.8,13.4c9.6,5.3,18.7,11.2,26.6,19
		c17.6,17.4,27.8,38.7,32.9,62.7c4.3,20,3.9,40.3,3.8,60.6c0,3.6-2.3,3-4.3,3c-29.7,0-59.5,0-89.2,0c-36.8,0-73.7,0-110.5,0
		c-4.9,0-5,0-4.8,5c0.9,23.5,7.3,45.1,23.5,62.8c11.8,12.9,26.6,20.6,43.6,24c22.4,4.4,44.2,3.1,64.7-8.1
		c13.9-7.6,24.8-18.4,33.1-31.9c1.2-2,2.2-2.7,4.4-1.1c9.7,7.1,19.4,14.2,29.2,21.2c1.9,1.3,2.9,2.7,1.1,4.6
		c-6.1,6.5-11.4,13.6-17.7,19.9c-20.1,20.3-44.3,32.4-72.7,35.8c-25.7,3.1-51.2,1.9-75.8-7.3c-1.7-0.7-3.2-1.9-5.2-1.7L269.5,282.5z
		 M372.4,52.5c-0.3-0.2-0.5-0.5-0.8-0.7c-0.2-0.1-0.4-0.1-0.7-0.1c-0.9-1.6-2.5-2.1-4-2.8c-18.7-8.9-38.4-10.9-58.6-7.7
		c-20.6,3.3-37.7,13.2-50.3,30c-10,13.3-15.2,28.5-16.4,45.1c-0.2,2.5-0.1,3.4,2.6,3.3c11.4-0.1,22.8-0.1,34.3-0.1
		c0.8,0,1.5,0,2.3,0c2.8,0,5.6,0,8.4,0c3.3,0,6.6,0,9.9,0c3.3,0,6.6,0,9.9,0c0.8,0,1.5,0,2.3,0c0.7,0,1.5,0,2.2,0c3.3,0,6.6,0,9.9,0
		c0.5,0,1,0,1.5,0c1,0,2,0,3.1,0c0.5,0,1,0,1.5,0c1.3,0,2.5,0,3.8,0c0.8,0,1.5,0,2.3,0c1.3,0,2.6,0,3.8,0c4.6,0,9.1,0,13.7,0
		c2.3,0,4.6,0,6.9,0c0.7,0,1.5,0,2.2,0c3.8,0,7.6,0,11.5,0c0.7,0,1.5,0,2.2,0c3.6,0,7.1,0,10.7,0l0.4,0l0.4,0c3.3,0,6.6,0,10,0
		c1,0,2,0,3,0c1.8,0,3.6,0,5.4,0c0.2-0.2,0.5-0.5,0.7-0.7c-0.6-15.4-4-30-11.7-43.5c-5-8.7-11.2-16.2-19.9-21.4
		C374.2,53.2,373.4,52.5,372.4,52.5L372.4,52.5z M106,253.2c6,0,11.9-0.8,17.8-1.7c50.6-7.9,72.5-46,74-89.3c0.1-2.2-0.7-3-2.8-2.9
		c-4.1,0.1-8.1-0.1-12.2,0c-26.8,0.5-53.6-1.5-80.3,2.2c-15.1,2.1-29.6,5.9-42.3,14.9c-21.6,15.4-23,44.7-2.8,61.9
		C71.4,250.3,88.1,254,106,253.2z"/>
	<circle cx="520.4" cy="270.6" r="30.6"/>
</g>
</svg>
