<?xml version="1.0" encoding="utf-8"?>
<!-- Generator: Adobe Illustrator 25.2.3, SVG Export Plug-In . SVG Version: 6.00 Build 0)  -->
<svg version="1.1" id="Ebene_1" xmlns="http://www.w3.org/2000/svg" xmlns:xlink="http://www.w3.org/1999/xlink" x="0px" y="0px"
	 viewBox="0 0 70.4 59.7" style="enable-background:new 0 0 70.4 59.7;" xml:space="preserve">
<g>
	<path d="M0.5,49.3c5.3-1.8,9.1-4.2,11.3-7.2c2.2-3,3.2-7.9,3.2-14.6H0V0h27.7v22.6c-0.1,7.4-0.8,13.1-2.3,17.2
		c-2.4,6.3-6.2,11.1-11.3,14.4c-3,1.9-7.5,3.8-13.6,5.5V49.3z M43.2,49.3c6.3-1.8,10.5-5.1,12.7-10c1.2-2.8,1.8-6.7,1.8-11.7h-15V0
		h27.7v22.6c-0.3,7.9-1,13.8-2.3,17.6c-1.5,4.4-4.5,8.5-8.9,12.1s-9.7,6.1-16,7.4V49.3z"/>
</g>
</svg>
