<?xml version="1.0" encoding="utf-8"?>
<!-- Generator: Adobe Illustrator 25.2.3, SVG Export Plug-In . SVG Version: 6.00 Build 0)  -->
<svg version="1.1" id="Ebene_1" xmlns="http://www.w3.org/2000/svg" xmlns:xlink="http://www.w3.org/1999/xlink" x="0px" y="0px"
	 viewBox="0 0 320.9 175.4" style="enable-background:new 0 0 320.9 175.4;" xml:space="preserve">
<g>
	<path d="M157,164.5c-3.7-2.3-7.6-4.2-11.1-6.8c-7.3-5.5-13.1-12.3-17.4-20.4c-0.3-0.6-0.7-1.3-1.1-1.9c-0.9,0-1,0.8-1.3,1.4
		c-9.6,15.9-23.6,25.8-41.5,30.6c-15.4,4.1-30.9,4.7-46.4,0.8c-11.2-2.8-20.9-8.2-28.4-17.1c-4.8-5.7-7.6-12.4-8.8-19.7
		c-2.1-12.9-0.6-25.2,6.9-36.2c5.9-8.6,14.2-14,23.7-17.9c9.5-3.9,19.5-5.8,29.7-6.7c17.1-1.6,34.2-0.6,51.2-0.9
		c2.9,0,2.9,0,2.8-2.9c0-6.4-0.9-12.8-3.1-18.9c-4.8-13.2-14.4-20.6-28-23.2C77.6,23.4,71,23,64.3,23.4
		c-13.9,0.8-26.4,5.3-37.5,13.7c-1.6,1.2-3.2,2.4-4.7,3.8c-0.9,0.8-1.5,0.9-2.3-0.1C15.5,35.5,11,30.4,6.6,25.2
		c-0.8-0.9-0.4-1.4,0.3-2C19,12.5,33.1,5.8,48.8,2.4c17.1-3.6,34.1-3.3,50.8,1.9c13,4,22.9,12.1,29.9,23.7c0.4,0.7,0.6,1.5,1.5,2
		c4.5-6.7,10-12.5,16.6-17c10.6-7.3,22.3-11.6,35.2-12.6c14.8-1.1,29,1.4,42.4,7.8c5.6,3.1,10.9,6.5,15.5,11
		c10.2,10.1,16.2,22.5,19.2,36.5c2.5,11.7,2.3,23.5,2.2,35.3c0,2.1-1.3,1.7-2.5,1.7c-17.3,0-34.6,0-51.9,0c-21.5,0-42.9,0-64.4,0
		c-2.8,0-2.9,0-2.8,2.9c0.5,13.7,4.3,26.2,13.7,36.6c6.9,7.5,15.5,12,25.4,14c13.1,2.6,25.7,1.8,37.7-4.7
		c8.1-4.4,14.4-10.7,19.3-18.6c0.7-1.2,1.3-1.6,2.5-0.6c5.6,4.2,11.3,8.3,17,12.3c1.1,0.8,1.7,1.6,0.6,2.7
		c-3.6,3.8-6.6,7.9-10.3,11.6c-11.7,11.8-25.8,18.9-42.3,20.9c-15,1.8-29.8,1.1-44.1-4.2C159,165.2,158.1,164.5,157,164.5L157,164.5
		z M216.9,30.6c-0.2-0.1-0.3-0.3-0.5-0.4c-0.1,0-0.3-0.1-0.4-0.1c-0.5-0.9-1.5-1.2-2.3-1.6c-10.9-5.2-22.3-6.3-34.1-4.5
		c-12,1.9-22,7.7-29.3,17.5c-5.8,7.8-8.8,16.6-9.6,26.3c-0.1,1.4-0.1,2,1.5,1.9c6.7-0.1,13.3-0.1,20-0.1c0.4,0,0.9,0,1.3,0
		c1.6,0,3.2,0,4.9,0c1.9,0,3.9,0,5.8,0c1.9,0,3.8,0,5.8,0c0.5,0,0.9,0,1.4,0c0.4,0,0.9,0,1.3,0c1.9,0,3.9,0,5.8,0c0.3,0,0.6,0,0.9,0
		c0.6,0,1.2,0,1.8,0c0.3,0,0.6,0,0.9,0c0.7,0,1.5,0,2.2,0c0.4,0,0.9,0,1.3,0c0.7,0,1.5,0,2.2,0c2.7,0,5.3,0,8,0c1.3,0,2.7,0,4,0
		c0.4,0,0.9,0,1.3,0c2.2,0,4.5,0,6.7,0c0.4,0,0.9,0,1.3,0c2.1,0,4.2,0,6.2,0l0.2,0l0.2,0c1.9,0,3.9,0,5.8,0c0.6,0,1.2,0,1.7,0
		c1,0,2.1,0,3.1,0c0.1-0.1,0.3-0.3,0.4-0.4c-0.3-9-2.3-17.5-6.8-25.3c-2.9-5-6.5-9.4-11.6-12.5C218,31,217.5,30.6,216.9,30.6
		L216.9,30.6z M61.7,147.5c3.5,0,6.9-0.4,10.4-1c29.5-4.6,42.2-26.8,43.1-52c0-1.3-0.4-1.7-1.7-1.7c-2.4,0.1-4.7,0-7.1,0
		c-15.6,0.3-31.2-0.9-46.8,1.3c-8.8,1.2-17.2,3.4-24.6,8.7c-12.6,9-13.4,26-1.6,36.1C41.6,145.8,51.3,147.9,61.7,147.5z"/>
	<circle cx="303.1" cy="157.6" r="17.8"/>
</g>
</svg>
