<?xml version="1.0" encoding="utf-8"?>
<!-- Generator: Adobe Illustrator 25.2.3, SVG Export Plug-In . SVG Version: 6.00 Build 0)  -->
<svg version="1.1" id="Ebene_1" xmlns="http://www.w3.org/2000/svg" xmlns:xlink="http://www.w3.org/1999/xlink" x="0px" y="0px"
	 viewBox="0 0 38.9 25.7" style="enable-background:new 0 0 38.9 25.7;" xml:space="preserve">
<style type="text/css">
	.st0{fill:#F2D800;}
</style>
<path class="st0" d="M0,6.6c0.2-0.4,0.6-0.5,1.1-0.5c0.5,0,0.9,0,1.5,0c0-0.1,0-0.2,0-0.4c0-1.3,0-2.7,0-4C2.5,0.6,3.1,0,4.2,0
	c2.5,0,4.9,0,7.4,0c0.7,0,1.3,0.3,1.6,1c0.4,0.8,0.8,1.5,1.2,2.3c0.1,0.2,0.2,0.3,0.5,0.3c6.6,0,13.2,0,19.8,0
	c0.7,0,1.3,0.2,1.5,0.9c0.1,0.3,0.1,0.7,0.1,1c0,0.2,0,0.4,0,0.6c0.5,0,1,0,1.5,0c0.8,0,1,0.3,0.9,1.1c-0.4,3.8-0.8,7.5-1.2,11.3
	c-0.2,2.2-0.5,4.3-0.7,6.5c-0.1,0.5-0.3,0.8-0.9,0.8c-1.6,0-3.1,0-4.7,0c-9.2,0-18.4,0-27.7,0c-0.8,0-1-0.1-1.1-0.9
	c-0.4-2.9-0.8-5.8-1.2-8.7c-0.4-2.9-0.8-5.8-1.2-8.7C0,7.2,0,7.2,0,7.1C0,6.9,0,6.8,0,6.6z M37.3,7.6c-11.9,0-23.8,0-35.7,0
	c0,0.1,0,0.2,0,0.3c0.3,1.8,0.5,3.6,0.8,5.3c0.5,3.5,1,7.1,1.5,10.6c0,0.3,0.1,0.3,0.4,0.3c10.3,0,20.6,0,30.8,0c0.1,0,0.2,0,0.4,0
	C36.1,18.6,36.7,13.1,37.3,7.6z M4.1,6.1c10.3,0,20.6,0,30.9,0c0-0.3,0-0.7,0-1c-0.1,0-0.2,0-0.4,0c-6.8,0-13.7,0-20.5,0
	c-0.2,0-0.4-0.1-0.5-0.3c-0.5-1-1.1-2-1.6-3c-0.1-0.2-0.3-0.3-0.5-0.3c-2.4,0-4.7,0-7.1,0c-0.1,0-0.2,0-0.3,0
	C4.1,3.1,4.1,4.6,4.1,6.1z"/>
</svg>
