<?xml version="1.0" encoding="utf-8"?>
<!-- Generator: Adobe Illustrator 25.2.3, SVG Export Plug-In . SVG Version: 6.00 Build 0)  -->
<svg version="1.1" id="Ebene_1" xmlns="http://www.w3.org/2000/svg" xmlns:xlink="http://www.w3.org/1999/xlink" x="0px" y="0px"
	 viewBox="0 0 273.1 135.6" style="enable-background:new 0 0 273.1 135.6;" xml:space="preserve">
<style type="text/css">
	.st0{fill:#F2D800;}
</style>
<g>
	<path class="st0" d="M0,97.1c2-3,3.6-6.1,2-9.8c-0.2-0.5-0.3-1.4,0-1.9c7.6-11.3,8.4-25,12.7-37.4c0.5-1.5,1.4-3,0.8-4.7
		c-1.3-0.7-1.8,0.5-2.5,0.9c-2,1-3.1-0.2-4-1.7c-1.1-1.7-0.1-2.8,1.3-3.7c2.1-1.3,4.6-1.8,6.9-2.6c13.1-5,26.9-7.4,40.2-11.7
		c2.1-0.7,3.9-2.7,6.5-1.8c1.5-0.9,3-1.8,4.8-1.3c0.3,0.2,0.4,0.5,0.4,0.8c-0.1,0.3-0.1,0.4-0.2,0.4c-15,6.9-30.6,12.1-46.2,17.4
		c-1.8,0.6-3.6,1.1-1.5,3.6c1.7,1.9,0.4,4.1-0.2,6.1C17.4,59.9,14.1,70,10.6,81.1c12.4-3.4,23-8.7,33.9-15.5
		c-0.7,5.4-3.8,7.6-6.9,9.7C30.3,80.1,22.2,83,14,85.7c-4.1,1.3-6.4,3.4-7,7.7c-0.5,4.1-1.4,8.1-2,12.2c-0.7,4.4,1.9,5.4,5.6,5.4
		c7.9-0.1,15.4-2.5,22.6-5.3c10.1-4,19.7-9,29.5-13.5c3.9-1.1,7.2-3.1,10.7-5c1.1-0.6,2.3-1.7,3.4-0.2c1.2,1.6,0.1,3-1.1,3.8
		c-3.3,2.1-6.8,4.1-10.3,6c-12.2,6.3-24.8,11.6-37.6,16.4c-4.8,3.5-10.5,4.5-16.2,4.9c-6.3,0.5-10-2.7-11.1-9
		c-0.3-2.6,0.6-5.4-0.5-8C0,99.7,0,98.4,0,97.1z"/>
	<path class="st0" d="M222,0c2.8,2.7,2.1,4.5-1.2,6.2c-10.5,5.3-21.8,8.7-32.6,13.2c-3.5,1.5-6.4,2.5-3.6,7.1
		c0.7,1.1,0.5,2.9,0.4,4.4c-1,21.4-2.9,42.7-7.9,63.6c-3.5,14.6-10.3,27.4-21.5,37.6c-2.3,2.1-4.8,4.2-8.3,3.5
		c-0.8-0.2-1.7-0.5-1.9-1.4c-0.2-1,0.5-1.3,1.3-1.7c8.5-3.6,13.2-10.9,17.7-18.3c9-14.8,10.8-31.4,12.6-47.9
		c1.3-11.8,2.8-23.6,1.9-35.5c-0.9-2.3-1-5.4-4.7-5c-8.4,3.1-16.4,6.9-23.9,11.7c-1.6,1-3.1,1.9-5,1.2c-1.3-0.5-2.3-1.3-2.5-2.8
		c-0.3-1.6,1-1.9,2-2.4c6.8-3.3,13.6-6.5,20.4-9.7c1.5-2.6,4.5-2.5,6.8-3.6c13.1-6.4,27.2-10.2,40.1-16.9c2.8-1.5,6-1.6,8.8-3.1
		C221.3,0,221.6,0,222,0z"/>
	<path class="st0" d="M0.8,109.2c-0.3,0-0.6-0.1-0.8-0.2c0-2.6,0-5.3,0-7.9C1.9,103.6,0.7,106.4,0.8,109.2z"/>
	<path class="st0" d="M86.7,74.5c1.2-0.8,2.2-1.8,2.7-3.2c2-2.1,4.6-3.7,5.4-6.8c0.5-2.1,2.1-2.2,3.9-1.3c3.6,1.8,5.3,9.2,2.6,12
		c-2.6,2.8-4.5,6.1-6.1,9.6c-0.6,1.4-1.4,3-0.2,4.1c1.1,1,2.4-0.4,3.6-0.9c7.2-2.7,9.8-8.5,10.6-15.6c0.2-1.9,0.2-4.5,3.2-3.7
		c2.5,0.6,3.2,2.5,2.6,5c-1.4,6.2-4.3,12.1-2.7,18.8c0.4,1.8-1.5,1.7-2.8,1.2c-1.8-0.8-2.2-2.8-3.3-4.4c-4,3-7.6,7.2-13.2,4.2
		c-5.5-3-3.8-8-2.9-13.3c-2.8,1.8-3.9,4-5.3,5.9c-1.5,2-3.2,3-5.4,1.4c-2.4-1.7-1.7-3.6,0-5.4C81.9,79.5,84.3,77,86.7,74.5z"/>
	<path class="st0" d="M227.8,56.2c-0.2-2.2,1-3.8,2.4-5.2c2-2.1,3.3-4.3,2.5-7.4c-0.5-1.8,0-3.6,2.1-4.5c1.6-0.7,2.8-0.2,4.1,0.8
		c1.6,1.3,2.1,3,1.1,4.8c-1.8,3.1-1,5.9,0.4,8.9c1.6,3.5,3,3.8,5.3,0.6c2.1-2.9,3.3-6.4,6.1-8.9c1.6-1.4,3.3-2.2,5.4-1.6
		c3.1,0.9,4.1,3.9,2,6.5c-2.1,2.5-4.3,5-7.1,6.8c-1.6,1-3.2,2.3-1.9,4.3c1.2,1.9,2.9,0.6,4.4,0c1.3-0.5,2.5-3.2,4-0.8
		c1.1,2-0.3,3.8-2,5.1c-3,2.3-7.1,1.4-10.3-2.4c-0.7-0.9-1.1-2.3-2.5-1.9c-1.2,0.3-0.8,1.6-1,2.5c-0.7,3.9-3.3,6.5-6.5,8.3
		c-1.9,1.1-4.6,1.2-5.8-1c-1.3-2.5,1-2.7,2.8-3.2c1.5-0.5,1.4-0.9-0.4-2.2c-1.3-1-1.1-1.6,1-4.1c1.3-1.5,4-2.2,2.8-5.1
		c-0.8-2-1.3-4.3-4.1-1.6c-1,1-2.5,1.6-3.7,2.5C227.9,57.5,227.4,57.2,227.8,56.2z"/>
	<path class="st0" d="M217,66.3c-2.9,1.5-5.8,3-8.7,4.5c-3.5,1.8-7.2,2.4-11.1,1.6c-4-0.8-6.5-4.2-6.2-8.2
		c0.5-5.9,5.3-11.5,10.9-13.2c2.3-0.7,3.9,0.5,5,2.2c1.3,2-0.8,2.8-1.9,3.9c-2.4,2.4-6.6,2.5-8.1,6.1c-0.6,1.4-1.6,2.7-0.6,4.1
		c0.9,1.3,2.4,0.9,3.7,0.9c5-0.1,8.9-3.3,13.5-4.5c1.2-0.3,2.4-1.9,3.6-1C218.4,63.8,216.6,65.2,217,66.3L217,66.3z"/>
	<path class="st0" d="M143.3,81.7c-4.4,3.8-9.3,7.1-15.2,8.2c-5.4,1-9.9-4.7-8.4-10.5c0.8-3.2,2.3-6.1,3.6-9.2
		c0.6-1.6,1.2-3.3,3.5-2.2c1.9,0.9,3.5,2.2,2.5,4.6c-0.9,2.3-2,4.5-3,6.8c-0.6,1.5-1.8,3.2-0.4,4.5c1.3,1.2,3.1,0.2,4.7-0.3
		c4.1-1.1,8.2-2.1,12.3-3.2C142.9,80.9,143.1,81.3,143.3,81.7z"/>
	<path class="st0" d="M227.8,56.2c0.4,0.4,0.7,0.8,1.1,1.3c-2.3,2-2,5.1-3,7.6c-0.9,2.5-2.5,4.6-4.3,6.5c-1.2,1.2-2.4,2.4-4.3,1.1
		c-1.8-1.2-2.4-2.6-0.9-4.5c0.4-0.5,0.4-1.2,0.6-1.8c0,0-0.1,0.1-0.1,0.1c4.2-2.9,5.4-7.4,3.4-12.9c-0.8-2.1-2-4.1-3-6.2
		c-0.4-1-1.4-2.1,0.1-3c1.3-0.8,2.1,0.2,2.9,1c2.6,2.6,4.1,5.9,5.4,9.2C226.2,55.6,226.5,56.4,227.8,56.2z"/>
	<path class="st0" d="M108.5,58.8c1-5.9,5.9-9.5,11.3-12.5c2.6-1.4,5.6-1.8,8.1-3.6c0.9-0.6,2.4-1.4,3.1-0.2
		c0.9,1.5-0.9,1.7-1.8,2.3c-3.3,2.2-6.7,4.3-9.8,6.7c-2.8,2.3-5.3,4.9-6.1,8.8c-0.3,1.4,1.2,3.8-1.5,3.7
		C109.4,64.1,108.3,62.1,108.5,58.8z"/>
	<path class="st0" d="M269.8,13.1c-4.6,5.3-10.4,9.6-13.1,16.4c-0.5,1.3-1.6,1.6-2.8,1.3c-1.9-0.5-1.4-2.1-1-3.2
		c1.5-5.3,5.4-8.9,9.3-12.3c1.6-1.4,3.6-2.3,5.4-3.4C268.8,11.3,269.9,11.1,269.8,13.1z"/>
	<path class="st0" d="M269.8,13.1c-0.5-1-1.4-1.2-2.3-1.3c1-0.7,2.1-1.4,3.1-2.1c1.6,0.1,1.9,0.8,1,2.1
		C271,12.2,270.4,12.7,269.8,13.1z"/>
	<path class="st0" d="M271.6,11.8c0.1-0.9,0.1-1.7-1-2.1c0.6-0.7,1.6-1.1,2-0.5C273.6,10.4,272.6,11.2,271.6,11.8z"/>
	<path class="st0" d="M68.6,22.7c0-0.2-0.1-0.5-0.2-0.7c-0.3-0.4-0.2-0.7,0.2-0.9c2.4-1,4.2-3.5,7.9-2.1
		C73.7,20.6,71.4,22.1,68.6,22.7z"/>
	<path class="st0" d="M68.6,21.1c0,0.3-0.1,0.6-0.2,0.9c-1.6,0.3-3.2,0.5-4.8,0.8C64.8,20.8,66.6,20.8,68.6,21.1z"/>
</g>
</svg>
