<?xml version="1.0" encoding="utf-8"?>
<!-- Generator: Adobe Illustrator 25.2.3, SVG Export Plug-In . SVG Version: 6.00 Build 0)  -->
<svg version="1.1" id="Ebene_1" xmlns="http://www.w3.org/2000/svg" xmlns:xlink="http://www.w3.org/1999/xlink" x="0px" y="0px"
	 viewBox="0 0 64.4 64.4" style="enable-background:new 0 0 64.4 64.4;" xml:space="preserve">
<style type="text/css">
	.st0{fill:#FFFFFF;}
</style>
<g>
	<g>
		<circle cx="32.2" cy="32.2" r="32.2"/>
		<g>
			<path class="st0" d="M42.2,41.6c-1.4,0-2.8,0-4.3,0c0-0.2,0-0.5,0-0.7c0-1.9,0-3.8,0-5.7c0-0.5,0-0.9-0.1-1.4
				c-0.2-1.2-0.9-1.8-1.9-1.9c-1.1-0.1-2.1,0.7-2.4,1.7c-0.1,0.4-0.1,0.8-0.1,1.2c0,2,0,4,0,6c0,0.2,0,0.5,0,0.7c-1.4,0-2.8,0-4.2,0
				c0-4.2,0-8.4,0-12.7c1.4,0,2.8,0,4.2,0c0,0.5,0,1,0,1.6c0.1-0.1,0.2-0.1,0.2-0.2c1.3-1.8,3.1-2.1,5.2-1.6c2.1,0.6,3,2.1,3.3,4.1
				c0.2,1.3,0.1,2.6,0.1,3.9C42.2,38.4,42.2,40,42.2,41.6z"/>
			<path class="st0" d="M22.5,28.9c1.4,0,2.8,0,4.2,0c0,4.2,0,8.4,0,12.7c-1.4,0-2.8,0-4.2,0C22.5,37.4,22.5,33.2,22.5,28.9z"/>
			<path class="st0" d="M24.7,22.8c1.4,0,2.3,1,2.3,2.3c0,1.3-1.1,2.2-2.5,2.1c-1.3,0-2.3-1-2.3-2.3C22.2,23.6,23.3,22.7,24.7,22.8z
				"/>
		</g>
	</g>
</g>
</svg>
